<?xml version="1.0" encoding="utf-8"?>
<!-- Generator: Adobe Illustrator 26.3.1, SVG Export Plug-In . SVG Version: 6.00 Build 0)  -->
<svg version="1.1" xmlns="http://www.w3.org/2000/svg" xmlns:xlink="http://www.w3.org/1999/xlink" x="0px" y="0px"
	 viewBox="0 0 16 16" style="enable-background:new 0 0 16 16;" xml:space="preserve">
<style type="text/css">
	.st0{display:none;}
	.st1{display:inline;}
	.st2{fill:#1B7B55;}
</style>
<g id="Capa_1" class="st0">
	<path class="st1" d="M0.1,3.6C0.3,2.6,1.1,2,2,2h12c0.9,0,1.7,0.6,1.9,1.6L8,8.4L0.1,3.6z M0,4.7v7.1l5.8-3.6L0,4.7z M6.8,8.8
		l-6.6,4C0.5,13.6,1.2,14,2,14h6.3C8.1,13.5,8,13,8,12.5c0-1.3,0.6-2.6,1.6-3.4L9.2,8.8L8,9.6L6.8,8.8L6.8,8.8z M16,4.7v5
		C15.1,8.6,13.9,8,12.5,8c-0.7,0-1.4,0.2-2,0.4l-0.3-0.2L16,4.7z"/>
	<path class="st1" d="M16,12.5c0,1.9-1.6,3.5-3.5,3.5S9,14.4,9,12.5S10.6,9,12.5,9S16,10.6,16,12.5z M11.1,11.1
		c-0.2,0.2-0.2,0.5,0,0.7c0,0,0,0,0,0l0.6,0.6l-0.6,0.6c-0.2,0.2-0.2,0.5,0,0.7s0.5,0.2,0.7,0l0.6-0.6l0.6,0.6
		c0.2,0.2,0.5,0.2,0.7,0s0.2-0.5,0-0.7l-0.6-0.6l0.6-0.6c0.2-0.2,0.2-0.5,0-0.7s-0.5-0.2-0.7,0l-0.6,0.6l-0.6-0.6
		C11.7,11,11.3,11,11.1,11.1C11.1,11.1,11.1,11.1,11.1,11.1z"/>
</g>
<g id="Capa_1_copia">
	<path class="st2" d="M0.1,3.6C0.3,2.6,1.1,2,2,2h11.9c0.9,0,1.7,0.6,1.9,1.6L8,8.4L0.1,3.6z M0,4.7v7.1l5.8-3.6L0,4.7z M6.8,8.8
		l-6.5,4C0.6,13.6,1.3,14,2,14h6.2C8.1,13.5,8,13,8,12.5c0-1.3,0.6-2.6,1.6-3.4L9.2,8.8L8,9.6L6.8,8.8L6.8,8.8z M15.9,4.7v5
		C15.1,8.6,13.8,8,12.5,8c-0.7,0-1.3,0.2-2,0.4l-0.3-0.2L15.9,4.7z"/>
	<path class="st2" d="M15.9,12.5c0,1.9-1.6,3.5-3.5,3.5S9,14.4,9,12.5S10.5,9,12.5,9S15.9,10.6,15.9,12.5z M11.1,11.1
		c-0.2,0.2-0.2,0.5,0,0.7c0,0,0,0,0,0l0.6,0.6l-0.6,0.6c-0.2,0.2-0.2,0.5,0,0.7c0.2,0.2,0.5,0.2,0.7,0l0.6-0.6l0.6,0.6
		c0.2,0.2,0.5,0.2,0.7,0s0.2-0.5,0-0.7l-0.6-0.6l0.6-0.6c0.2-0.2,0.2-0.5,0-0.7s-0.5-0.2-0.7,0l-0.6,0.6l-0.6-0.6
		C11.6,11,11.3,11,11.1,11.1C11.1,11.1,11.1,11.1,11.1,11.1z"/>
</g>
</svg>
