<?xml version="1.0" encoding="UTF-8"?><svg xmlns="http://www.w3.org/2000/svg" xmlns:xlink="http://www.w3.org/1999/xlink" viewBox="0 0 750 1334"><defs><style>.cls-1{clip-path:url(#clippath);}.cls-2{fill:#f7de79;}.cls-3{fill:#f9c100;}.cls-4{fill:#efa000;}.cls-5{fill:#f19d00;}.cls-6{fill:#f5aa00;}.cls-7{fill:#f6c100;}.cls-8{fill:#fbd500;}.cls-9{fill:#eea040;}.cls-10{fill:#eead05;}.cls-11{fill:#fee105;}.cls-12{fill:#ffe51c;}.cls-13{fill:#ffe603;}.cls-14{fill:#fff343;}.cls-15{fill:#ffe429;}.cls-16{fill:#ffee8a;}.cls-17{fill:#ffef00;}.cls-18{fill:#ffeea0;}.cls-19{fill:#fff7ac;}.cls-20{fill:#fff57a;}.cls-21{fill:#fffaa5;}.cls-22{fill:#fff590;}.cls-23{fill:#ffee0b;}.cls-24{fill:#ffda1c;}.cls-25{fill:#ffda1b;}.cls-26{fill:#ffdb1d;}.cls-27{fill:#ffdb1c;}.cls-28{fill:#ffbc00;}.cls-29{fill:#fcca00;}.cls-30{fill:#fcd600;}.cls-31{fill:#fb9e00;}.cls-32{fill:#feefa5;}.cls-33{fill:#fec700;}.cls-34{fill:#fde345;}.cls-35{fill:#fed306;}.cls-36{fill:#9e3800;}.cls-37{fill:#a64e00;}.cls-38{fill:#cb6f00;}.cls-39{fill:#cb7000;}.cls-40{fill:#ca6f00;}.cls-41{fill:#df8000;}.cls-42{fill:#e07900;}.cls-43{fill:#e38900;}.cls-44{fill:#411903;}.cls-45{fill:url(#Degradado_sin_nombre_116);}.cls-46{fill:url(#Degradado_sin_nombre_164);}.cls-47{fill:url(#Degradado_sin_nombre_106);}.cls-48{fill:url(#Degradado_sin_nombre_146);}.cls-49{fill:url(#Degradado_sin_nombre_158);}.cls-50{fill:url(#Degradado_sin_nombre_157);}.cls-51{fill:url(#Degradado_sin_nombre_234);}.cls-52{fill:url(#Degradado_sin_nombre_238);}.cls-53{fill:url(#Degradado_sin_nombre_243);}.cls-54{fill:url(#Degradado_sin_nombre_256);}.cls-55{fill:url(#Degradado_sin_nombre_220);}.cls-56{fill:url(#Degradado_sin_nombre_213);}.cls-57{fill:url(#Degradado_sin_nombre_80);}.cls-58{fill:url(#Degradado_sin_nombre_97);}.cls-59{fill:url(#Degradado_sin_nombre_41);}.cls-60{fill:url(#Degradado_sin_nombre_54);}.cls-61{fill:url(#Degradado_sin_nombre_116-2);}.cls-62{fill:url(#Degradado_sin_nombre_220-6);}.cls-63{fill:url(#Degradado_sin_nombre_220-4);}.cls-64{fill:url(#Degradado_sin_nombre_220-2);}.cls-65{fill:url(#Degradado_sin_nombre_220-5);}.cls-66{fill:url(#Degradado_sin_nombre_220-3);}.cls-67{fill:url(#Degradado_sin_nombre_213-4);}.cls-68{fill:url(#Degradado_sin_nombre_213-2);}.cls-69{fill:url(#Degradado_sin_nombre_213-3);}.cls-70{fill:url(#Degradado_sin_nombre_243-3);}.cls-71{fill:url(#Degradado_sin_nombre_243-2);}.cls-72{fill:url(#Degradado_sin_nombre_234-6);}.cls-73{fill:url(#Degradado_sin_nombre_234-2);}.cls-74{fill:url(#Degradado_sin_nombre_234-3);}.cls-75{fill:url(#Degradado_sin_nombre_234-4);}.cls-76{fill:url(#Degradado_sin_nombre_234-5);}.cls-77{fill:url(#Degradado_sin_nombre_238-4);}.cls-78{fill:url(#Degradado_sin_nombre_238-5);}.cls-79{fill:url(#Degradado_sin_nombre_238-2);}.cls-80{fill:url(#Degradado_sin_nombre_238-3);}.cls-81{fill:url(#Degradado_sin_nombre_164-2);}.cls-82{fill:url(#Degradado_sin_nombre_157-3);}.cls-83{fill:url(#Degradado_sin_nombre_157-2);}.cls-84{fill:url(#Degradado_sin_nombre_146-2);}.cls-85{fill:url(#Degradado_sin_nombre_146-9);}.cls-86{fill:url(#Degradado_sin_nombre_146-7);}.cls-87{fill:url(#Degradado_sin_nombre_146-8);}.cls-88{fill:url(#Degradado_sin_nombre_146-5);}.cls-89{fill:url(#Degradado_sin_nombre_146-4);}.cls-90{fill:url(#Degradado_sin_nombre_146-3);}.cls-91{fill:url(#Degradado_sin_nombre_146-6);}.cls-92{fill:url(#Degradado_sin_nombre_54-2);}.cls-93{fill:url(#Degradado_sin_nombre_146-12);}.cls-94{fill:url(#Degradado_sin_nombre_146-15);}.cls-95{fill:url(#Degradado_sin_nombre_146-14);}.cls-96{fill:url(#Degradado_sin_nombre_146-16);}.cls-97{fill:url(#Degradado_sin_nombre_146-11);}.cls-98{fill:url(#Degradado_sin_nombre_146-10);}.cls-99{fill:url(#Degradado_sin_nombre_146-27);}.cls-100{fill:url(#Degradado_sin_nombre_146-29);}.cls-101{fill:url(#Degradado_sin_nombre_146-24);}.cls-102{fill:url(#Degradado_sin_nombre_146-17);}.cls-103{fill:url(#Degradado_sin_nombre_146-13);}.cls-104{fill:url(#Degradado_sin_nombre_146-18);}.cls-105{fill:url(#Degradado_sin_nombre_146-19);}.cls-106{fill:url(#Degradado_sin_nombre_146-25);}.cls-107{fill:url(#Degradado_sin_nombre_146-20);}.cls-108{fill:url(#Degradado_sin_nombre_146-26);}.cls-109{fill:url(#Degradado_sin_nombre_146-23);}.cls-110{fill:url(#Degradado_sin_nombre_146-28);}.cls-111{fill:url(#Degradado_sin_nombre_146-22);}.cls-112{fill:url(#Degradado_sin_nombre_146-21);}</style><clipPath id="clippath"><path class="cls-15" d="M676.54,393.36l17.86-40.07-31.71-35.84-22.48-10.1-82.32,1.95-15.42,19.87s-89.81-12.81-168.54-11.84c-78.73,.98-165.61,11.62-165.61,11.62l-15.64-18.68-82.13-3.51-22.45,10.17-30.96,35.47,17.81,40.62h19.11l88.51,229.46s1.68,.05,4.78-.11c-13.36,56.36-58.81,189.12-62.39,196.61h-12.22l-5.05,3.91-19.06,65.65,2.61,6.52,23.95,24.92h24.6l52.78,59.13,50.82-.65,3.15-15.09,77,2.8,.16,.81h7.17l.16,11.89s4.56,21.64,6.68,23.86c2.12,2.23,79.49,3.26,81.94-.49,2.44-3.75,6.3-23.24,6.3-23.24l-.76-12.27,7.49,.11,1.63-.98,77.21-5.65,2.44,16.45,57.5,1.47,14.33-15.64-2.17-21.72,26.5-21.29,30.57,.49,25.57-25.25,3.69-1.95-3.37-5.05-17.92-65.32-15.31-1.79-64.83-195.64,89.27-231.8,18.73,.16Z"/></clipPath><linearGradient id="Degradado_sin_nombre_116" x1="562.8" y1="613.13" x2="637.06" y2="367.87" gradientTransform="matrix(1, 0, 0, 1, 0, 0)" gradientUnits="userSpaceOnUse"><stop offset=".07" stop-color="#d68d01"/><stop offset=".43" stop-color="#af6000"/><stop offset=".62" stop-color="#914b00"/><stop offset="1" stop-color="#743a07"/></linearGradient><linearGradient id="Degradado_sin_nombre_116-2" x1="159.19" y1="618.74" x2="229.71" y2="385.83" gradientTransform="translate(-334.98 263.58) rotate(-44.38)" xlink:href="#Degradado_sin_nombre_116"/><linearGradient id="Degradado_sin_nombre_106" x1="539.26" y1="586.68" x2="597.3" y2="366.62" gradientTransform="matrix(1, 0, 0, 1, 0, 0)" gradientUnits="userSpaceOnUse"><stop offset="0" stop-color="#773c08"/><stop offset=".35" stop-color="#632f07"/><stop offset=".51" stop-color="#401b0e"/><stop offset=".75" stop-color="#331409"/><stop offset="1" stop-color="#411903"/></linearGradient><linearGradient id="Degradado_sin_nombre_97" x1="491.12" y1="551.22" x2="591.15" y2="377.97" gradientTransform="matrix(1, 0, 0, 1, 0, 0)" gradientUnits="userSpaceOnUse"><stop offset="0" stop-color="#632f07"/><stop offset=".16" stop-color="#632f07"/><stop offset=".75" stop-color="#331409"/><stop offset="1" stop-color="#411903"/><stop offset="1" stop-color="#411903"/><stop offset="1" stop-color="#411903"/></linearGradient><linearGradient id="Degradado_sin_nombre_54" x1="242.67" y1="332.64" x2="362.46" y2="345.88" gradientTransform="translate(514.02 -6.73) rotate(178.5) scale(1 -1)" gradientUnits="userSpaceOnUse"><stop offset="0" stop-color="#fbca00"/><stop offset=".32" stop-color="#fbca00"/><stop offset=".99" stop-color="#f9ca01"/><stop offset="1" stop-color="#f9ca01"/></linearGradient><linearGradient id="Degradado_sin_nombre_54-2" x1="468.05" y1="333.71" x2="593.65" y2="347.59" gradientTransform="matrix(1, 0, 0, 1, 0, 0)" xlink:href="#Degradado_sin_nombre_54"/><linearGradient id="Degradado_sin_nombre_41" x1="159.24" y1="364.56" x2="595.36" y2="364.56" gradientTransform="matrix(1, 0, 0, 1, 0, 0)" gradientUnits="userSpaceOnUse"><stop offset="0" stop-color="#cb6a00"/><stop offset="1" stop-color="#cb7000"/></linearGradient><linearGradient id="Degradado_sin_nombre_80" x1="377.47" y1="617.41" x2="371.66" y2="308.11" gradientTransform="matrix(1, 0, 0, 1, 0, 0)" gradientUnits="userSpaceOnUse"><stop offset="0" stop-color="#632f07"/><stop offset=".17" stop-color="#632f07"/><stop offset=".25" stop-color="#632f07"/><stop offset=".51" stop-color="#401b0e"/><stop offset=".75" stop-color="#331409"/><stop offset="1" stop-color="#411903"/><stop offset="1" stop-color="#411903"/><stop offset="1" stop-color="#411903"/></linearGradient><linearGradient id="Degradado_sin_nombre_234" x1="657" y1="1057.4" x2="603.81" y2="1057.99" gradientTransform="translate(438.86 -318.33) rotate(21.58) scale(1 1.05)" gradientUnits="userSpaceOnUse"><stop offset=".36" stop-color="#ce6500"/><stop offset=".39" stop-color="#d77201"/><stop offset=".43" stop-color="#e07e02"/><stop offset=".49" stop-color="#e58502"/><stop offset=".64" stop-color="#e78703"/><stop offset=".65" stop-color="#e98d00"/><stop offset=".66" stop-color="#ea9000"/></linearGradient><linearGradient id="Degradado_sin_nombre_238" x1="629.37" y1="1028.25" x2="629.37" y2="1060.8" gradientTransform="translate(1717.44 303.61) rotate(90) scale(1 1.05)" gradientUnits="userSpaceOnUse"><stop offset=".28" stop-color="#d35d00"/><stop offset=".51" stop-color="#d76800"/><stop offset=".84" stop-color="#e18100"/></linearGradient><linearGradient id="Degradado_sin_nombre_234-2" x1="546.36" y1="1087.41" x2="496.99" y2="1087.96" gradientTransform="translate(-313 75.44) rotate(-17.59) scale(1 1.05)" xlink:href="#Degradado_sin_nombre_234"/><linearGradient id="Degradado_sin_nombre_238-2" x1="520.72" y1="1060.36" x2="520.72" y2="1090.57" gradientTransform="translate(3.96 -134.78) scale(1 1.05)" xlink:href="#Degradado_sin_nombre_238"/><linearGradient id="Degradado_sin_nombre_234-3" x1="606.59" y1="1076.93" x2="557.22" y2="1077.48" gradientTransform="translate(916.79 -319.32) rotate(45.59) scale(1.21 1.09)" xlink:href="#Degradado_sin_nombre_234"/><linearGradient id="Degradado_sin_nombre_238-3" x1="580.95" y1="1049.87" x2="580.95" y2="1080.08" gradientTransform="translate(1739.75 296.04) rotate(90) scale(1.21 1.09)" xlink:href="#Degradado_sin_nombre_238"/><linearGradient id="Degradado_sin_nombre_234-4" x1="304.49" y1="997.21" x2="248.27" y2="997.84" gradientTransform="translate(-284.99 163.78) rotate(-17.59) scale(1 .97)" xlink:href="#Degradado_sin_nombre_234"/><linearGradient id="Degradado_sin_nombre_238-4" x1="275.29" y1="966.4" x2="275.29" y2="1000.81" gradientTransform="translate(-10.67 36.12) scale(1 .97)" xlink:href="#Degradado_sin_nombre_238"/><linearGradient id="Degradado_sin_nombre_234-5" x1="238.23" y1="1000.29" x2="182.01" y2="1000.92" gradientTransform="matrix(1, 0, 0, 1, 0, 0)" xlink:href="#Degradado_sin_nombre_234"/><linearGradient id="Degradado_sin_nombre_238-5" x1="209.04" y1="969.48" x2="209.04" y2="1003.89" gradientTransform="matrix(1, 0, 0, 1, 0, 0)" xlink:href="#Degradado_sin_nombre_238"/><linearGradient id="Degradado_sin_nombre_220" x1="155.04" y1="997.74" x2="97.08" y2="998.39" gradientTransform="translate(345.66 13.19) rotate(18.72)" gradientUnits="userSpaceOnUse"><stop offset=".02" stop-color="#e78d00"/><stop offset=".04" stop-color="#e48800"/><stop offset=".11" stop-color="#e08100"/><stop offset=".3" stop-color="#df8000"/><stop offset=".35" stop-color="#ed9500"/><stop offset=".41" stop-color="#faa800"/><stop offset=".46" stop-color="#ffaf01"/><stop offset=".46" stop-color="#ffaf00"/><stop offset=".48" stop-color="#fb0"/><stop offset=".52" stop-color="#ffc200"/><stop offset=".62" stop-color="#ffc400"/><stop offset=".63" stop-color="#ffcb01"/><stop offset=".65" stop-color="#ffd703"/><stop offset=".67" stop-color="#ffde04"/><stop offset=".75" stop-color="#ffe005"/><stop offset=".76" stop-color="#ffdc03"/><stop offset=".8" stop-color="#ffd100"/><stop offset=".85" stop-color="#ffce00"/><stop offset=".86" stop-color="#f8b800"/><stop offset=".88" stop-color="#f3a700"/><stop offset=".9" stop-color="#ef9b00"/><stop offset=".92" stop-color="#ed9400"/><stop offset="1" stop-color="#ed9300"/></linearGradient><linearGradient id="Degradado_sin_nombre_213" x1="124.94" y1="965.91" x2="124.94" y2="1000.59" gradientTransform="translate(1131.69 859.58) rotate(90)" gradientUnits="userSpaceOnUse"><stop offset=".28" stop-color="#e07c00"/><stop offset=".48" stop-color="#e48700"/><stop offset=".82" stop-color="#f0a600"/><stop offset=".84" stop-color="#f1a900"/></linearGradient><linearGradient id="Degradado_sin_nombre_234-6" x1="219.35" y1="992.67" x2="147.41" y2="993.48" gradientTransform="matrix(1, 0, 0, 1, 0, 0)" xlink:href="#Degradado_sin_nombre_234"/><linearGradient id="Degradado_sin_nombre_213-2" x1="181.99" y1="952.24" x2="181.99" y2="996.28" gradientTransform="matrix(1, 0, 0, 1, 0, 0)" xlink:href="#Degradado_sin_nombre_213"/><linearGradient id="Degradado_sin_nombre_220-2" x1="209.96" y1="983.01" x2="134.76" y2="983.86" gradientTransform="matrix(1, 0, 0, 1, 0, 0)" xlink:href="#Degradado_sin_nombre_220"/><linearGradient id="Degradado_sin_nombre_213-3" x1="170.91" y1="941.71" x2="170.91" y2="986.71" gradientTransform="matrix(1, 0, 0, 1, 0, 0)" xlink:href="#Degradado_sin_nombre_213"/><linearGradient id="Degradado_sin_nombre_220-3" x1="191.72" y1="967.05" x2="116.52" y2="967.89" gradientTransform="matrix(1, 0, 0, 1, 0, 0)" xlink:href="#Degradado_sin_nombre_220"/><linearGradient id="Degradado_sin_nombre_213-4" x1="152.67" y1="925.75" x2="152.67" y2="970.74" gradientTransform="matrix(1, 0, 0, 1, 0, 0)" xlink:href="#Degradado_sin_nombre_213"/><linearGradient id="Degradado_sin_nombre_220-4" x1="164.02" y1="851.32" x2="109.16" y2="851.94" gradientTransform="translate(21.6 -94.62) rotate(2.21) scale(.98 1.08)" xlink:href="#Degradado_sin_nombre_220"/><linearGradient id="Degradado_sin_nombre_243" x1="136.64" y1="824.42" x2="136.64" y2="860.39" gradientTransform="translate(821.8 680.41) rotate(90) scale(.95 .83)" gradientUnits="userSpaceOnUse"><stop offset=".28" stop-color="#f68100"/><stop offset=".44" stop-color="#f88c00"/><stop offset=".72" stop-color="#fdab00"/><stop offset=".75" stop-color="#feaf00"/></linearGradient><linearGradient id="Degradado_sin_nombre_220-5" x1="127.99" y1="850.26" x2="73.13" y2="850.88" gradientTransform="translate(-417.59 73.79) rotate(-27.03) scale(1.03 1.08)" xlink:href="#Degradado_sin_nombre_220"/><linearGradient id="Degradado_sin_nombre_243-2" x1="99.59" y1="823.06" x2="99.59" y2="859.03" gradientTransform="translate(-17.28 126.87) scale(1 .83)" xlink:href="#Degradado_sin_nombre_243"/><linearGradient id="Degradado_sin_nombre_220-6" x1="127.01" y1="908.48" x2="70.04" y2="909.12" gradientTransform="translate(-215.4 41.21) rotate(-13.29)" xlink:href="#Degradado_sin_nombre_220"/><linearGradient id="Degradado_sin_nombre_243-3" x1="97.41" y1="875.15" x2="97.41" y2="911.43" gradientTransform="translate(-12.67 -5.1)" xlink:href="#Degradado_sin_nombre_243"/><linearGradient id="Degradado_sin_nombre_146" x1="430.61" y1="676.87" x2="358.95" y2="686.69" gradientTransform="matrix(1, 0, 0, 1, 0, 0)" gradientUnits="userSpaceOnUse"><stop offset=".02" stop-color="#e78d00"/><stop offset=".39" stop-color="#ec9400"/><stop offset=".4" stop-color="#ef9800"/><stop offset=".42" stop-color="#f8a500"/><stop offset=".45" stop-color="#fdac00"/><stop offset=".53" stop-color="#ffaf01"/><stop offset=".55" stop-color="#ffb700"/><stop offset=".59" stop-color="#ffc100"/><stop offset=".65" stop-color="#ffc400"/><stop offset=".65" stop-color="#ffc800"/><stop offset=".67" stop-color="#ffd603"/><stop offset=".7" stop-color="#ffdd04"/><stop offset=".74" stop-color="#ffe005"/><stop offset=".76" stop-color="#ffd802"/><stop offset=".8" stop-color="#ffd000"/><stop offset=".88" stop-color="#ffce00"/><stop offset="1" stop-color="#ee9d0b"/></linearGradient><linearGradient id="Degradado_sin_nombre_256" x1="169.77" y1="832.96" x2="95.39" y2="878.38" gradientTransform="matrix(1, 0, 0, 1, 0, 0)" gradientUnits="userSpaceOnUse"><stop offset=".33" stop-color="#f7c200"/><stop offset=".89" stop-color="#ffe005"/></linearGradient><linearGradient id="Degradado_sin_nombre_164" x1="413.83" y1="608.94" x2="348.02" y2="617.96" gradientTransform="translate(466.67 -114.95) rotate(32.51) scale(1.11)" gradientUnits="userSpaceOnUse"><stop offset=".02" stop-color="#e78d00"/><stop offset=".2" stop-color="#ec9400"/><stop offset=".2" stop-color="#ef9800"/><stop offset=".22" stop-color="#f8a500"/><stop offset=".23" stop-color="#fdac00"/><stop offset=".27" stop-color="#ffaf01"/><stop offset=".31" stop-color="#ed9b00"/><stop offset=".39" stop-color="#d57e00"/><stop offset=".47" stop-color="#c16700"/><stop offset=".56" stop-color="#b35700"/><stop offset=".66" stop-color="#ab4d00"/><stop offset=".79" stop-color="#a94b00"/><stop offset="1" stop-color="#ee9d0b"/></linearGradient><linearGradient id="Degradado_sin_nombre_146-2" x1="466.42" y1="702.83" x2="394.76" y2="712.66" gradientTransform="translate(243.15 -79.15) rotate(18.25)" xlink:href="#Degradado_sin_nombre_146"/><linearGradient id="Degradado_sin_nombre_146-3" x1="351.06" y1="786.6" x2="279.4" y2="796.43" gradientTransform="translate(217.75 -31.86) rotate(18.63)" xlink:href="#Degradado_sin_nombre_146"/><linearGradient id="Degradado_sin_nombre_146-4" x1="269.58" y1="814.37" x2="197.91" y2="824.2" gradientTransform="translate(-433.67 259.14) rotate(-36.98) scale(1 .98)" xlink:href="#Degradado_sin_nombre_146"/><linearGradient id="Degradado_sin_nombre_146-5" x1="309.98" y1="793.16" x2="238.32" y2="802.99" gradientTransform="translate(-509.06 417.87) rotate(-43.13)" xlink:href="#Degradado_sin_nombre_146"/><linearGradient id="Degradado_sin_nombre_146-6" x1="298.67" y1="768.15" x2="219.56" y2="779" gradientTransform="translate(-442.36 437.86) rotate(-40.17) scale(1 .9)" xlink:href="#Degradado_sin_nombre_146"/><linearGradient id="Degradado_sin_nombre_146-7" x1="384.38" y1="829.86" x2="312.71" y2="839.68" gradientTransform="translate(-280.61 144.61) rotate(-18.57)" xlink:href="#Degradado_sin_nombre_146"/><linearGradient id="Degradado_sin_nombre_146-8" x1="431.79" y1="825.88" x2="360.12" y2="835.71" gradientTransform="translate(243.15 -79.15) rotate(18.25)" xlink:href="#Degradado_sin_nombre_146"/><linearGradient id="Degradado_sin_nombre_146-9" x1="487.94" y1="803.45" x2="416.27" y2="813.28" gradientTransform="translate(243.15 -79.15) rotate(18.25)" xlink:href="#Degradado_sin_nombre_146"/><linearGradient id="Degradado_sin_nombre_146-10" x1="452.87" y1="599.67" x2="387.98" y2="608.56" gradientTransform="translate(364.57 -140.71) rotate(25.35) scale(1.11)" xlink:href="#Degradado_sin_nombre_146"/><linearGradient id="Degradado_sin_nombre_158" x1="457.71" y1="621.2" x2="391.9" y2="630.22" gradientTransform="translate(150.15 -49.62) rotate(8.51) scale(1.11)" gradientUnits="userSpaceOnUse"><stop offset=".02" stop-color="#e78d00"/><stop offset=".25" stop-color="#ef9900"/><stop offset=".53" stop-color="#ffaf01"/><stop offset=".55" stop-color="#ffb700"/><stop offset=".59" stop-color="#ffc100"/><stop offset=".65" stop-color="#ffc400"/><stop offset=".65" stop-color="#ffc800"/><stop offset=".67" stop-color="#ffd603"/><stop offset=".7" stop-color="#ffdd04"/><stop offset=".74" stop-color="#ffe005"/><stop offset=".76" stop-color="#ffd802"/><stop offset=".8" stop-color="#ffd000"/><stop offset=".88" stop-color="#ffce00"/><stop offset="1" stop-color="#ee9d0b"/></linearGradient><linearGradient id="Degradado_sin_nombre_146-11" x1="565.21" y1="679" x2="484.1" y2="690.12" gradientTransform="translate(412.78 21.4) rotate(30.74) scale(.97 .81)" xlink:href="#Degradado_sin_nombre_146"/><linearGradient id="Degradado_sin_nombre_157" x1="569.15" y1="679.6" x2="488.04" y2="690.71" gradientTransform="translate(429.55 22.54) rotate(32.21) scale(.9 .83)" gradientUnits="userSpaceOnUse"><stop offset=".02" stop-color="#9b3500"/><stop offset=".5" stop-color="#9b3500"/><stop offset=".59" stop-color="#9f3a00"/><stop offset=".69" stop-color="#aa4802"/><stop offset=".8" stop-color="#be6104"/><stop offset=".92" stop-color="#d98308"/><stop offset="1" stop-color="#ee9d0b"/></linearGradient><linearGradient id="Degradado_sin_nombre_146-12" x1="478.29" y1="682.9" x2="406.63" y2="692.72" gradientTransform="translate(479.29 -176.59) rotate(32.99) scale(1.11)" xlink:href="#Degradado_sin_nombre_146"/><linearGradient id="Degradado_sin_nombre_157-2" x1="606.84" y1="715.25" x2="525.73" y2="726.37" xlink:href="#Degradado_sin_nombre_157"/><linearGradient id="Degradado_sin_nombre_146-13" x1="657.79" y1="693.52" x2="576.68" y2="704.64" gradientTransform="translate(640.26 -92.24) rotate(43.34)" xlink:href="#Degradado_sin_nombre_146"/><linearGradient id="Degradado_sin_nombre_157-3" x1="613.78" y1="743.92" x2="532.67" y2="755.04" gradientTransform="translate(152.65 172.09) rotate(8.34) scale(.84 .78)" xlink:href="#Degradado_sin_nombre_157"/><linearGradient id="Degradado_sin_nombre_146-14" x1="563.15" y1="760.93" x2="482.04" y2="772.05" gradientTransform="translate(142.14 31.41) rotate(8.34) scale(.9 .96)" xlink:href="#Degradado_sin_nombre_146"/><linearGradient id="Degradado_sin_nombre_146-15" x1="534.24" y1="779.05" x2="453.12" y2="790.17" gradientTransform="translate(640.26 -92.24) rotate(43.34)" xlink:href="#Degradado_sin_nombre_146"/><linearGradient id="Degradado_sin_nombre_146-16" x1="540.13" y1="745.42" x2="459.02" y2="756.54" gradientTransform="translate(640.26 -92.24) rotate(43.34)" xlink:href="#Degradado_sin_nombre_146"/><linearGradient id="Degradado_sin_nombre_146-17" x1="453.34" y1="736" x2="381.67" y2="745.83" gradientTransform="translate(479.29 -176.59) rotate(32.99) scale(1.11)" xlink:href="#Degradado_sin_nombre_146"/><linearGradient id="Degradado_sin_nombre_146-18" x1="448.16" y1="790.7" x2="376.5" y2="800.52" gradientTransform="translate(476.15 -97.61) rotate(32.99)" xlink:href="#Degradado_sin_nombre_146"/><linearGradient id="Degradado_sin_nombre_146-19" x1="404.56" y1="717.06" x2="332.9" y2="726.88" gradientTransform="translate(243.15 -79.15) rotate(18.25)" xlink:href="#Degradado_sin_nombre_146"/><linearGradient id="Degradado_sin_nombre_146-20" x1="351.91" y1="705.33" x2="288.8" y2="713.98" gradientTransform="translate(-301.09 229.33) rotate(-29.07)" xlink:href="#Degradado_sin_nombre_146"/><linearGradient id="Degradado_sin_nombre_146-21" x1="300.53" y1="667.53" x2="237.42" y2="676.18" gradientTransform="translate(-143.75 81.99) rotate(-12.2)" xlink:href="#Degradado_sin_nombre_146"/><linearGradient id="Degradado_sin_nombre_146-22" x1="365.15" y1="739.85" x2="293.48" y2="749.67" gradientTransform="translate(-276.58 188.44) rotate(-24.01)" xlink:href="#Degradado_sin_nombre_146"/><linearGradient id="Degradado_sin_nombre_146-23" x1="327.76" y1="795.28" x2="256.09" y2="805.11" gradientTransform="translate(-171.93 19.52) rotate(-11.18) scale(1 .98)" xlink:href="#Degradado_sin_nombre_146"/><linearGradient id="Degradado_sin_nombre_146-24" x1="321.08" y1="739.86" x2="249.42" y2="749.69" gradientTransform="translate(-209.23 194.6) rotate(-17.71) scale(.98 .77)" xlink:href="#Degradado_sin_nombre_146"/><linearGradient id="Degradado_sin_nombre_146-25" x1="255.08" y1="793.22" x2="183.42" y2="803.04" gradientTransform="translate(-360.65 327.79) rotate(-36.77) scale(1.05 .81)" xlink:href="#Degradado_sin_nombre_146"/><linearGradient id="Degradado_sin_nombre_146-26" x1="409.11" y1="776.62" x2="337.44" y2="786.44" gradientTransform="translate(243.15 -79.15) rotate(18.25)" xlink:href="#Degradado_sin_nombre_146"/><linearGradient id="Degradado_sin_nombre_146-27" x1="448.77" y1="645.17" x2="384.93" y2="653.92" gradientTransform="translate(-53.89 38.35) rotate(-4.96)" xlink:href="#Degradado_sin_nombre_146"/><linearGradient id="Degradado_sin_nombre_164-2" x1="387.21" y1="646.32" x2="323.38" y2="655.07" gradientTransform="translate(306.1 -83.83) rotate(25.27)" xlink:href="#Degradado_sin_nombre_164"/><linearGradient id="Degradado_sin_nombre_146-28" x1="363.6" y1="793.71" x2="291.93" y2="803.54" gradientTransform="translate(-349.75 187.77) rotate(-24.62) scale(1.07 1.04)" xlink:href="#Degradado_sin_nombre_146"/><linearGradient id="Degradado_sin_nombre_146-29" x1="334.83" y1="653.41" x2="263.16" y2="663.24" xlink:href="#Degradado_sin_nombre_146"/></defs><g id="Capa_1"><g><path class="cls-15" d="M676.54,393.36l17.86-40.07-31.71-35.84-22.48-10.1-82.32,1.95-15.42,19.87s-89.81-12.81-168.54-11.84c-78.73,.98-165.61,11.62-165.61,11.62l-15.64-18.68-82.13-3.51-22.45,10.17-30.96,35.47,17.81,40.62h19.11l88.51,229.46s1.68,.05,4.78-.11c-13.36,56.36-58.81,189.12-62.39,196.61h-12.22l-5.05,3.91-19.06,65.65,2.61,6.52,23.95,24.92h24.6l52.78,59.13,50.82-.65,3.15-15.09,77,2.8,.16,.81h7.17l.16,11.89s4.56,21.64,6.68,23.86c2.12,2.23,79.49,3.26,81.94-.49,2.44-3.75,6.3-23.24,6.3-23.24l-.76-12.27,7.49,.11,1.63-.98,77.21-5.65,2.44,16.45,57.5,1.47,14.33-15.64-2.17-21.72,26.5-21.29,30.57,.49,25.57-25.25,3.69-1.95-3.37-5.05-17.92-65.32-15.31-1.79-64.83-195.64,89.27-231.8,18.73,.16Z"/><g class="cls-1"><image width="750" height="1334" xlink:href="1e4dc58d004603d67b53b9a77124ff89.png"/></g></g><g id="Capa_8"><polygon class="cls-45" points="539.22 595.35 566.91 617.17 569.19 623.36 660.74 386.51 603.07 383.26 539.22 595.35"/></g><g id="Capa_8_copia"><polygon class="cls-61" points="180.96 618.91 210.93 591.11 150.12 393.46 94.08 393.03 180.96 618.91"/></g><g id="Capa_7"><polyline class="cls-47" points="532.38 575.04 539.76 590.68 600.58 391.94 586.24 388.25 532.38 575.04"/></g><path class="cls-58" d="M532.38,575.04s-20.85-62.55-12.16-119.89,16.51-78.19,16.51-78.19l53.43,.43-57.77,197.65Z"/><g id="Capa_6"><polygon class="cls-44" points="150.55 399 598.84 397.26 601.01 384.67 584.94 378.15 156.63 379.89 150.55 399"/></g><g id="Capa_10"><polygon class="cls-16" points="557.9 309.3 640.21 307.35 662.69 317.45 577.88 313.86 557.9 309.3"/></g><polygon class="cls-26" points="662.69 317.45 694.4 353.28 609.26 353.5 577.55 313.54 662.69 317.45"/><polygon class="cls-34" points="601.12 345.46 692.99 351 694.4 353.28 609.26 353.5 601.12 345.46"/><polygon class="cls-37" points="537.92 335.91 557.9 309.3 577.55 313.54 609.26 353.5 600.14 392.59 537.92 335.91"/><g id="Capa_10_copia"><polygon class="cls-16" points="193.12 310.06 110.56 306.77 88.11 316.94 172.91 313.09 193.12 310.06"/></g><polygon class="cls-26" points="88.11 316.94 56.52 352.88 141.66 352.83 173.24 312.76 88.11 316.94"/><polygon class="cls-34" points="149.77 344.76 57.92 350.59 56.52 352.88 141.66 352.83 149.77 344.76"/><polygon class="cls-37" points="212.95 335.01 193.77 311.15 173.24 312.76 149.08 346.28 155.93 380 167.06 380.43 212.95 335.01"/><g id="Capa_2_copia_3"><path class="cls-60" d="M173.68,333.41l-14.33,23.78,108.1-9.96s6.28-20.19,11.79-25.55c-3.93-.77-105.56,11.73-105.56,11.73Z"/></g><g id="Capa_2_copia_2"><path class="cls-24" d="M237.05,352.96l247.76-4.89s-7.49-20.85-12.38-27.69c-.74-.14-53.78-3.95-111.42-2.93-62.23,1.95-105.66,6.53-113.58,7.42-2.89,6.1-10.38,28.09-10.38,28.09Z"/></g><g id="Capa_2"><path class="cls-18" d="M251.71,347.74l75.75-4.89s-4.24-18.14-5.21-23.78c-6.52,.08-52,3.3-63.69,4.56-1.91,5.98-6.84,24.11-6.84,24.11Z"/></g><g id="Capa_5_copia"><polygon class="cls-39" points="74.97 393.03 151.85 393.25 149.9 353.28 57.15 352.86 74.97 393.03"/></g><g id="Capa_5"><polygon class="cls-39" points="676.59 393.46 600.14 392.59 609.26 353.5 694.4 353.28 676.59 393.46"/></g><g id="Capa_2_copia"><path class="cls-92" d="M577.12,333.52l18.24,23.02-111.64-7.38s-9.12-23.46-14.77-28.67c3.91-.87,108.16,13.03,108.16,13.03Z"/></g><g id="Capa_3"><path class="cls-18" d="M159.24,358.71l1.3-4.34s111.64-14.33,229.79-13.9c26.06-.87,205.47,13.68,205.47,13.68l-.43,2.39-436.13,2.17"/></g><path class="cls-59" d="M159.24,358.71l6.95,24.33,422.66-1.74,6.52-24.76s-122.93-9.56-208.51-10.43-227.62,12.6-227.62,12.6Z"/><g id="Capa_4"><path class="cls-57" d="M218.97,576.78l309.5-1.95s-11.08-41.7-11.08-88.62,13.68-89.27,13.68-89.27H217.01s20.2,50.17,18.24,95.13-16.29,84.71-16.29,84.71Z"/></g></g><g id="Capa_16_copia_8"><g><g><path class="cls-51" d="M645.75,942.14c-1.24,3.92-6.13,12.33-8.91,14.83-7.69,6.92-18.27,9.62-27.74,5.88-9.7-3.84-16.6-12.46-17.43-22.15-.35-4.05,3.93-16.41,5.68-20.85,18.12,5.04,47.86,20.66,48.39,22.29Z"/><ellipse class="cls-9" cx="620.17" cy="934.44" rx="24.75" ry="26.62" transform="translate(-476.87 1167.44) rotate(-68.42)"/><ellipse class="cls-43" cx="620.76" cy="932.94" rx="24.75" ry="26.62" transform="translate(-475.11 1167.05) rotate(-68.42)"/><ellipse class="cls-42" cx="621.08" cy="932.13" rx="18.01" ry="21.04" transform="translate(-474.14 1166.83) rotate(-68.42)"/><ellipse class="cls-52" cx="620.74" cy="932.98" rx="17.09" ry="21.04" transform="translate(-475.16 1167.06) rotate(-68.42)"/><ellipse class="cls-41" cx="620.33" cy="934.03" rx="15.17" ry="20.01" transform="translate(-476.39 1167.33) rotate(-68.42)"/></g><polygon class="cls-36" points="611.87 919.07 570.17 952.96 522.82 952.96 567.78 909.73 569.95 919.62 611.87 919.07"/><polygon class="cls-38" points="570.17 919.51 642.28 919.51 664.87 895.18 588.85 897.35 570.17 919.51"/><g><path class="cls-73" d="M548.03,986.34c1.41,3.55,2.81,12.47,2.28,15.89-1.47,9.49-7.5,17.64-16.51,20.49-9.23,2.93-19.25,.77-25.53-5.72-2.63-2.71-6.8-14.11-8.14-18.34,16-7,46.55-13.19,47.89-12.33Z"/><ellipse class="cls-9" cx="525.11" cy="995.79" rx="24.7" ry="22.98" transform="translate(-276.43 205.3) rotate(-17.59)"/><ellipse class="cls-43" cx="524.66" cy="994.37" rx="24.7" ry="22.98" transform="translate(-276.02 205.1) rotate(-17.59)"/><ellipse class="cls-42" cx="524.41" cy="993.59" rx="19.53" ry="16.72" transform="translate(-275.8 204.99) rotate(-17.59)"/><ellipse class="cls-79" cx="524.67" cy="994.41" rx="19.53" ry="15.86" transform="translate(-276.03 205.1) rotate(-17.59)"/><ellipse class="cls-41" cx="524.99" cy="995.4" rx="18.57" ry="14.08" transform="translate(-276.32 205.25) rotate(-17.59)"/></g><g><path class="cls-74" d="M595.82,1017.25c-2.61,3.01-10.4,8.35-14.01,9.29-10,2.59-21.36-.15-29.33-8.28-8.17-8.34-11.89-19.71-9.27-29.07,1.1-3.91,9.67-13.21,12.98-16.45,16.02,13.61,39.69,42.74,39.63,44.51Z"/><ellipse class="cls-9" cx="573.42" cy="997.49" rx="23.94" ry="29.78" transform="translate(-534.23 686.19) rotate(-44.41)"/><ellipse class="cls-43" cx="574.53" cy="996.4" rx="23.94" ry="29.78" transform="translate(-533.15 686.66) rotate(-44.41)"/><ellipse class="cls-42" cx="575.14" cy="995.81" rx="17.42" ry="23.54" transform="translate(-532.56 686.91) rotate(-44.41)"/><ellipse class="cls-80" cx="574.5" cy="996.43" rx="16.53" ry="23.54" transform="translate(-533.18 686.64) rotate(-44.41)"/><ellipse class="cls-41" cx="573.72" cy="997.19" rx="14.68" ry="22.39" transform="translate(-533.94 686.32) rotate(-44.41)"/></g><g><path class="cls-75" d="M291.25,977.14c1.5,3.71,2.85,13.09,2.16,16.72-1.91,10.06-8.95,18.82-19.2,22.07-10.51,3.33-21.78,1.32-28.71-5.37-2.9-2.8-7.31-14.72-8.72-19.15,18.27-7.81,52.97-15.16,54.46-14.28Z"/><ellipse class="cls-9" cx="265.09" cy="987.73" rx="28.13" ry="24.07" transform="translate(-286.15 126.33) rotate(-17.59)"/><ellipse class="cls-43" cx="264.61" cy="986.24" rx="28.13" ry="24.07" transform="translate(-285.73 126.12) rotate(-17.59)"/><ellipse class="cls-42" cx="264.36" cy="985.42" rx="22.24" ry="17.52" transform="translate(-285.49 126) rotate(-17.59)"/><ellipse class="cls-77" cx="264.63" cy="986.28" rx="22.24" ry="16.62" transform="translate(-285.74 126.12) rotate(-17.59)"/><ellipse class="cls-41" cx="264.96" cy="987.32" rx="21.15" ry="14.76" transform="translate(-286.04 126.27) rotate(-17.59)"/></g><g><path class="cls-76" d="M237.17,986c.3,4.13-1.24,13.81-2.99,17.18-4.87,9.32-14.22,15.77-24.98,15.77s-21.16-5.52-25.74-14.28c-1.92-3.67-2.52-16.81-2.52-21.63,19.77-1.99,55.07,1.62,56.23,2.95Z"/><ellipse class="cls-9" cx="209.04" cy="988.26" rx="28.13" ry="24.92"/><ellipse class="cls-43" cx="209.04" cy="986.64" rx="28.13" ry="24.92"/><ellipse class="cls-42" cx="209.04" cy="985.75" rx="22.24" ry="18.13"/><ellipse class="cls-78" cx="209.04" cy="986.68" rx="22.24" ry="17.2"/><ellipse class="cls-41" cx="209.04" cy="987.81" rx="21.15" ry="15.28"/></g><g><path class="cls-55" d="M175.89,993.92c-1.04,4.05-5.68,12.78-8.48,15.41-7.77,7.29-18.98,10.36-29.49,6.79s-18.88-12.27-20.52-22.15c-.69-4.13,2.98-16.89,4.54-21.48,19.95,4.64,53.25,19.77,53.95,21.42Z"/><ellipse class="cls-3" cx="147.67" cy="986.8" rx="25.12" ry="29.01" transform="translate(-834.32 809.97) rotate(-71.28)"/><ellipse class="cls-2" cx="147.93" cy="986.03" rx="25.12" ry="29.01" transform="translate(-833.41 809.7) rotate(-71.28)"/><ellipse class="cls-8" cx="148.46" cy="984.48" rx="25.12" ry="29.01" transform="translate(-831.6 809.14) rotate(-71.28)"/><ellipse class="cls-6" cx="148.74" cy="983.64" rx="18.28" ry="22.93" transform="translate(-830.6 808.84) rotate(-71.28)"/><ellipse class="cls-56" cx="148.44" cy="984.53" rx="17.34" ry="22.93" transform="translate(-831.64 809.16) rotate(-71.28)"/><ellipse class="cls-7" cx="148.08" cy="985.6" rx="15.4" ry="21.81" transform="translate(-832.91 809.54) rotate(-71.28)"/></g><g><path class="cls-72" d="M217.99,974.38c.39,5.29-1.58,17.67-3.83,21.98-6.23,11.93-18.19,20.18-31.96,20.18s-27.08-7.06-32.94-18.27c-2.45-4.69-3.23-21.52-3.23-27.67,25.3-2.55,70.47,2.07,71.96,3.78Z"/><ellipse class="cls-3" cx="181.99" cy="977.31" rx="36" ry="31.89"/><ellipse class="cls-2" cx="181.99" cy="976.28" rx="36" ry="31.89"/><ellipse class="cls-10" cx="181.99" cy="974.2" rx="36" ry="31.89"/><ellipse class="cls-6" cx="181.99" cy="973.07" rx="28.46" ry="23.2"/><ellipse class="cls-68" cx="181.99" cy="974.26" rx="28.46" ry="22.02"/><ellipse class="cls-7" cx="181.99" cy="975.71" rx="27.07" ry="19.55"/></g><g><path class="cls-64" d="M208.54,964.33c.41,5.4-1.65,18.06-4,22.47-6.51,12.19-19.01,20.63-33.41,20.63s-28.3-7.21-34.43-18.67c-2.56-4.79-3.37-21.99-3.37-28.28,26.45-2.61,73.66,2.12,75.21,3.86Z"/><ellipse class="cls-3" cx="170.91" cy="967.33" rx="37.63" ry="32.59"/><ellipse class="cls-2" cx="170.91" cy="966.27" rx="37.63" ry="32.59"/><ellipse class="cls-8" cx="170.91" cy="964.15" rx="37.63" ry="32.59"/><ellipse class="cls-6" cx="170.91" cy="962.99" rx="29.74" ry="23.71"/><ellipse class="cls-69" cx="170.91" cy="964.21" rx="29.74" ry="22.5"/><ellipse class="cls-7" cx="170.91" cy="965.69" rx="28.29" ry="19.98"/></g><g><path class="cls-66" d="M190.3,948.37c.41,5.4-1.65,18.06-4,22.47-6.51,12.19-19.01,20.63-33.41,20.63s-28.3-7.21-34.43-18.67c-2.56-4.79-3.37-21.99-3.37-28.28,26.45-2.61,73.66,2.12,75.21,3.86Z"/><ellipse class="cls-3" cx="152.67" cy="951.36" rx="37.63" ry="32.59"/><ellipse class="cls-2" cx="152.67" cy="950.31" rx="37.63" ry="32.59"/><ellipse class="cls-8" cx="152.67" cy="948.19" rx="37.63" ry="32.59"/><ellipse class="cls-6" cx="152.67" cy="947.03" rx="29.74" ry="23.71"/><ellipse class="cls-67" cx="152.67" cy="948.25" rx="29.74" ry="22.5"/><ellipse class="cls-7" cx="152.67" cy="949.72" rx="28.29" ry="19.98"/></g><g><path class="cls-63" d="M145.95,814.47c-.1,.49-.36,2.89-.47,3.36-.57,2.43-2.22,6.94-2.87,8.22-5.17,10.29-13.63,14.8-24.18,14.39-10.81-.42-20.51-6.99-24.63-17.01-.72-1.75-1.2-6.24-1.43-10.24-.3-5.16,54.49-3.02,53.57,1.27Z"/><ellipse class="cls-3" cx="119.19" cy="812.27" rx="21.73" ry="26.84" transform="translate(-697.07 900.09) rotate(-87.79)"/><ellipse class="cls-11" cx="119.21" cy="811.57" rx="21.73" ry="26.84" transform="translate(-696.34 899.44) rotate(-87.79)"/><ellipse class="cls-29" cx="119.27" cy="810.16" rx="21.73" ry="26.84" transform="translate(-694.88 898.14) rotate(-87.79)"/><ellipse class="cls-31" cx="119.3" cy="809.39" rx="15.81" ry="21.22" transform="translate(-694.08 897.43) rotate(-87.79)"/><ellipse class="cls-53" cx="119.27" cy="810.2" rx="15" ry="21.22" transform="translate(-694.92 898.18) rotate(-87.79)"/><ellipse class="cls-28" cx="119.23" cy="811.18" rx="13.32" ry="20.18" transform="translate(-695.94 899.08) rotate(-87.79)"/></g><g><path class="cls-65" d="M108.94,818.31c.14,.48,1.09,2.7,1.22,3.17,.66,2.41,1.36,7.19,1.4,8.64,.29,11.62-5.28,19.88-15.18,24.94-10.15,5.18-22.29,4.41-30.98-2.21-1.52-1.16-4.16-4.83-6.34-8.2-2.8-4.34,48.62-30.56,49.89-26.34Z"/><ellipse class="cls-3" cx="83.25" cy="830.12" rx="28.26" ry="21.73" transform="translate(-368.19 128.52) rotate(-27.03)"/><ellipse class="cls-11" cx="82.93" cy="829.49" rx="28.26" ry="21.73" transform="translate(-367.94 128.31) rotate(-27.03)"/><ellipse class="cls-29" cx="82.29" cy="828.23" rx="28.26" ry="21.73" transform="translate(-367.43 127.88) rotate(-27.03)"/><ellipse class="cls-31" cx="81.94" cy="827.55" rx="22.34" ry="15.81" transform="translate(-367.16 127.65) rotate(-27.03)"/><ellipse class="cls-71" cx="82.3" cy="828.27" rx="22.34" ry="15" transform="translate(-367.45 127.89) rotate(-27.03)"/><ellipse class="cls-28" cx="82.75" cy="829.15" rx="21.25" ry="13.32" transform="translate(-367.8 128.19) rotate(-27.03)"/></g><g><path class="cls-62" d="M112.51,881.73c1.3,4.17,2.13,14.46,1.21,18.33-2.54,10.7-10.2,19.5-20.81,22.01-10.87,2.57-22.2-.73-28.84-8.66-2.78-3.32-6.56-16.67-7.73-21.61,19.02-6.65,54.7-11.17,56.17-10.07Z"/><ellipse class="cls-3" cx="85.32" cy="890.64" rx="28.51" ry="26.28" transform="translate(-202.45 43.46) rotate(-13.29)"/><ellipse class="cls-11" cx="85.13" cy="889.81" rx="28.51" ry="26.28" transform="translate(-202.26 43.4) rotate(-13.29)"/><ellipse class="cls-29" cx="84.73" cy="888.15" rx="28.51" ry="26.28" transform="translate(-201.89 43.26) rotate(-13.29)"/><ellipse class="cls-31" cx="84.52" cy="887.24" rx="22.53" ry="19.12" transform="translate(-201.69 43.19) rotate(-13.29)"/><ellipse class="cls-70" cx="84.74" cy="888.19" rx="22.53" ry="18.14" transform="translate(-201.9 43.27) rotate(-13.29)"/><ellipse class="cls-28" cx="85.02" cy="889.35" rx="21.43" ry="16.11" transform="translate(-202.16 43.36) rotate(-13.29)"/></g></g></g><g id="Capa_16_copia_5"><g><path class="cls-48" d="M358.73,667.18c-.24,1.71,.08,9.61,.24,19.71,2.47,12.16,19.97,18.77,35.98,18.22,21.93-.96,33.9-12.93,34.23-21.24,.13-3.27-.08-13.44,.08-16.86-5.5-8.37-69.08-10.03-70.53,.16Z"/><path class="cls-23" d="M392.18,645.06c-25.68,2.11-33.83,15.02-33.23,25.3,.69,11.91,13.29,24.53,36.01,23.75,21.37-.73,33.93-13.88,34.42-25.38s-15.17-25.48-37.2-23.67Z"/><path class="cls-19" d="M392.18,644.06c-25.68,2.11-33.83,15.02-33.23,25.3,.69,11.91,13.29,24.53,36.01,23.75,21.37-.73,33.93-13.88,34.42-25.38s-15.17-25.48-37.2-23.67Z"/><path class="cls-14" d="M392.18,641.06c-25.68,2.11-33.83,15.02-33.23,25.3,.69,11.91,13.29,24.53,36.01,23.75,21.37-.73,33.93-13.88,34.42-25.38s-15.17-25.48-37.2-23.67Z"/><path class="cls-4" d="M392.97,646.35c-18.75,1.5-25.94,9.74-25.3,18.17s10.22,17.25,26.81,16.7c15.61-.52,24.4-9.86,25.13-17.99,.79-8.76-10.56-18.17-26.64-16.89Z"/><path class="cls-35" d="M392.94,650.57c-18.23,1.33-25.22,8.64-24.6,16.13s9.94,15.31,26.06,14.82c15.17-.46,23.72-8.75,24.43-15.96,.77-7.77-10.26-16.13-25.9-14.99Z"/><path class="cls-15" d="M394.24,652.36c-12.54,.49-23.05,8.47-22.48,15.31s12.22,12.54,23.13,12.05,20.85-7.09,21.5-13.68c.7-7.1-9.15-14.19-22.15-13.68Z"/></g></g><g id="Capa_35"><g id="Capa_38"><polygon class="cls-40" points="113.19 920.16 90.17 895.83 167.49 896.05 186.39 919.94 113.19 920.16"/></g><g id="Capa_39"><polygon class="cls-21" points="113.63 818.73 107.11 823.51 179.22 823.51 175.74 821.77 113.63 818.73"/></g><polygon class="cls-27" points="187.69 620.43 125.14 818.84 181.83 821.77 239.49 629.23 187.69 620.43"/><path class="cls-54" d="M107.11,823.51l-17.81,63.42s71.24,0,69.5,.43,18.68-55.6,18.68-55.6l-7.82-7.38-62.55-.87Z"/><g id="Capa_37"><polygon class="cls-25" points="90.17 895.83 86.69 891.71 89.3 886.93 159.02 887.58 167.49 896.05 90.17 895.83"/></g></g><g id="Capa_16_copia"><g><path class="cls-46" d="M436.98,646.94c-1.14,1.32-5.14,8.21-10.47,16.88-4.47,11.68,6.93,26.85,20.93,35.12,19.29,11.15,36.02,7.51,40.8,.63,1.88-2.7,7.21-11.46,9.2-14.28-.18-10.12-53.7-46.21-60.47-38.35Z"/><path class="cls-23" d="M477.59,646.4c-23.13-12.22-37.1-5.69-42.15,3.37-5.86,10.5-1.91,28.09,17.96,39.83,18.69,11.04,36.56,6.72,43.21-2.79,6.59-9.42,.82-29.93-19.02-40.41Z"/><path class="cls-19" d="M478.13,645.55c-23.13-12.22-37.1-5.69-42.15,3.37-5.86,10.5-1.91,28.09,17.96,39.83,18.69,11.04,36.56,6.72,43.21-2.79,6.59-9.42,.82-29.93-19.02-40.41Z"/><path class="cls-17" d="M479.75,643c-23.13-12.22-37.1-5.69-42.15,3.37-5.86,10.5-1.91,28.09,17.96,39.83,18.69,11.04,36.56,6.72,43.21-2.79,6.59-9.42,.82-29.93-19.02-40.41Z"/><path class="cls-4" d="M477.58,647.92c-16.86-8.96-27.48-5.88-31.5,1.64s-.6,20.24,13.9,28.82c13.64,8.08,26.23,4.94,31.26-1.57,5.42-7.01,.81-21.2-13.66-28.89Z"/><path class="cls-33" d="M475.26,651.49c-16.33-8.82-27.65-4.05-29.79,.28-3.34,6.79,.21,18.43,14.28,26.82,13.24,7.89,25.04,5.51,29.56-.23,4.87-6.18-.05-19.3-14.05-26.87Z"/><path class="cls-30" d="M475.4,653.72c-11-6.43-24.32-5.38-27.54,.75s3.66,17.32,13.27,22.86c9.25,5.33,21.69,5.35,25.82,.1,4.45-5.65-.14-17.05-11.55-23.72Z"/></g><g><path class="cls-84" d="M400.78,702.69c-.77,1.55-2.93,9.15-5.94,18.8-1.46,12.32,13.08,24.08,28.46,28.57,21.13,5.96,36.25-1.66,39.16-9.45,1.15-3.06,4.13-12.79,5.36-15.99-2.61-9.67-62.46-31.16-67.04-21.93Z"/><path class="cls-23" d="M439.47,692.16c-25.05-6.04-36.83,3.68-39.48,13.62-3.07,11.53,4.94,27.45,26.76,33.83,20.53,6,36.57-2.55,40.64-13.33,4.03-10.67-6.42-28.95-27.91-34.13Z"/><path class="cls-19" d="M439.78,691.21c-25.05-6.04-36.83,3.68-39.48,13.62-3.07,11.53,4.94,27.45,26.76,33.83,20.53,6,36.57-2.55,40.64-13.33,4.03-10.67-6.42-28.95-27.91-34.13Z"/><path class="cls-14" d="M440.72,688.36c-25.05-6.04-36.83,3.68-39.48,13.62-3.07,11.53,4.94,27.45,26.76,33.83,20.53,6,36.57-2.55,40.64-13.33,4.03-10.67-6.42-28.95-27.91-34.13Z"/><path class="cls-4" d="M439.83,693.62c-18.28-4.45-27.69,1.13-29.72,9.34-2.03,8.21,4.3,19.59,20.23,24.26,14.98,4.4,26.26-1.72,29.5-9.21,3.49-8.07-4.33-20.56-20.01-24.38Z"/><path class="cls-35" d="M438.47,697.62c-17.73-4.45-26.66,.31-28.41,7.61s4.64,17.65,20.11,22.24c14.55,4.32,25.27-.88,28.2-7.51,3.16-7.14-4.7-18.53-19.9-22.34Z"/><path class="cls-15" d="M439.15,699.73c-12.07-3.46-24.54,.83-26.14,7.5s7.67,15.74,18.19,18.69,22.02-.2,24.71-6.26c2.89-6.53-4.24-16.34-16.75-19.93Z"/></g><g><path class="cls-90" d="M234.05,793.53c-.78,1.54-2.99,9.13-6.07,18.76-1.55,12.31,12.92,24.17,28.27,28.76,21.09,6.1,36.26-1.42,39.22-9.19,1.17-3.05,4.22-12.76,5.46-15.95-2.54-9.69-62.25-31.58-66.89-22.38Z"/><path class="cls-23" d="M272.81,783.26c-25.01-6.2-36.85,3.43-39.57,13.36-3.15,11.51,4.76,27.49,26.53,34.01,20.49,6.14,36.58-2.31,40.73-13.05,4.1-10.64-6.23-28.99-27.68-34.31Z"/><path class="cls-19" d="M273.13,782.31c-25.01-6.2-36.85,3.43-39.57,13.36-3.15,11.51,4.76,27.49,26.53,34.01,20.49,6.14,36.58-2.31,40.73-13.05,4.1-10.64-6.23-28.99-27.68-34.31Z"/><path class="cls-14" d="M274.09,779.47c-25.01-6.2-36.85,3.43-39.57,13.36-3.15,11.51,4.76,27.49,26.53,34.01,20.49,6.14,36.58-2.31,40.73-13.05,4.1-10.64-6.23-28.99-27.68-34.31Z"/><path class="cls-4" d="M273.16,784.73c-18.25-4.57-27.69,.94-29.78,9.14s4.17,19.62,20.07,24.39c14.95,4.5,26.27-1.55,29.56-9.02,3.55-8.04-4.2-20.59-19.85-24.51Z"/><path class="cls-35" d="M271.77,788.72c-17.7-4.57-26.66,.13-28.46,7.42s4.52,17.68,19.96,22.37c14.53,4.41,25.27-.71,28.25-7.32,3.21-7.12-4.57-18.56-19.75-22.48Z"/><path class="cls-15" d="M272.44,790.83c-12.04-3.54-24.55,.66-26.19,7.33s7.57,15.79,18.07,18.81,22.02-.05,24.75-6.1c2.94-6.51-4.13-16.37-16.62-20.04Z"/></g><g><path class="cls-89" d="M198.59,770.26c.81,1.49,5.73,7.48,11.81,15.29,9.14,8.04,27.02,2.69,39.49-7.37,16.96-13.94,19.46-30.51,14.83-37.21-1.82-2.64-7.99-10.47-9.87-13.25-9.33-3.24-61.1,33.7-56.25,42.55Z"/><path class="cls-23" d="M212.28,732.82c-19.27,17.1-18.17,32.11-11.63,39.8,7.57,8.91,25.07,11.21,42.76-3.06,16.65-13.43,18.92-31.27,12.54-40.57-6.33-9.22-27.14-10.83-43.67,3.84Z"/><path class="cls-19" d="M211.69,732.04c-19.27,17.1-18.17,32.11-11.63,39.8,7.57,8.91,25.07,11.21,42.76-3.06,16.65-13.43,18.92-31.27,12.54-40.57-6.33-9.22-27.14-10.83-43.67,3.84Z"/><path class="cls-14" d="M209.92,729.69c-19.27,17.1-18.17,32.11-11.63,39.8,7.57,8.91,25.07,11.21,42.76-3.06,16.65-13.43,18.92-31.27,12.54-40.57-6.33-9.22-27.14-10.83-43.67,3.84Z"/><path class="cls-4" d="M213.67,733.35c-14.1,12.45-14.98,23.23-9.5,29.44s18.34,7.36,31.26-3.05c12.16-9.79,13.68-22.39,9.47-29.2-4.53-7.33-19.14-7.88-31.24,2.8Z"/><path class="cls-35" d="M216.13,736.67c-13.78,12.01-15.05,21.94-10.14,27.42s16.96,6.01,29.56-4.07c11.85-9.49,13.79-21.12,10.11-27.2-3.97-6.55-17.7-6.45-29.53,3.84Z"/><path class="cls-15" d="M218.22,737.29c-9.73,7.93-13.42,20.5-8.93,25.51,4.49,5.01,17.15,2.47,25.58-4.47s12.48-18.09,9.11-23.65c-3.63-5.98-15.67-5.61-25.76,2.61Z"/></g><g><path class="cls-88" d="M200.31,826.91c.99,1.42,6.63,6.96,13.65,14.22,10.12,7.19,27.41,.05,38.72-11.3,15.35-15.69,15.9-32.61,10.46-38.9-2.13-2.48-9.25-9.75-11.47-12.36-9.74-2.35-57.27,39.9-51.37,48.34Z"/><path class="cls-23" d="M209.6,787.91c-17.3,19.1-14.42,34.09-6.96,41.18,8.65,8.22,26.47,8.81,42.51-7.28,15.1-15.15,15.28-33.32,7.77-42.05-7.44-8.65-28.49-8.23-43.33,8.15Z"/><path class="cls-19" d="M208.92,787.18c-17.3,19.1-14.42,34.09-6.96,41.18,8.65,8.22,26.47,8.81,42.51-7.28,15.1-15.15,15.28-33.32,7.77-42.05-7.44-8.65-28.49-8.23-43.33,8.15Z"/><path class="cls-14" d="M206.87,784.99c-17.3,19.1-14.42,34.09-6.96,41.18,8.65,8.22,26.47,8.81,42.51-7.28,15.1-15.15,15.28-33.32,7.77-42.05-7.44-8.65-28.49-8.23-43.33,8.15Z"/><path class="cls-4" d="M211.06,788.3c-12.66,13.91-12.27,24.84-6.04,30.56s19.25,5.61,30.98-6.14c11.04-11.05,11.07-23.87,6.05-30.31-5.41-6.93-20.13-6.05-30.99,5.89Z"/><path class="cls-35" d="M213.92,791.4c-12.4,13.43-12.5,23.55-6.93,28.59s17.72,4.38,29.16-7c10.76-10.71,11.33-22.6,6.92-28.35-4.75-6.2-18.51-4.75-29.15,6.77Z"/><path class="cls-15" d="M216.09,791.82c-8.82,8.93-11.03,21.94-5.94,26.54s17.49,.8,25.12-7.02c7.35-7.53,10.37-19.43,6.34-24.69-4.34-5.66-16.38-4.1-25.52,5.16Z"/></g><g><path class="cls-91" d="M163.29,813.9c.88,1.47,6.19,7.2,12.77,14.71,9.84,7.42,28.88-.1,42.09-11.97,17.97-16.4,20.48-34,15.46-40.51-1.97-2.56-8.63-10.09-10.68-12.79-10-2.38-64.9,41.82-59.64,50.55Z"/><path class="cls-23" d="M177.53,773.29c-20.41,19.96-19.08,35.53-12.02,42.86,8.18,8.5,26.89,9.01,45.63-7.82,17.64-15.83,19.9-34.73,12.98-43.77-6.85-8.95-29.09-8.39-46.59,8.72Z"/><path class="cls-19" d="M176.89,772.53c-20.41,19.96-19.08,35.53-12.02,42.86,8.18,8.5,26.89,9.01,45.63-7.82,17.64-15.83,19.9-34.73,12.98-43.77-6.85-8.95-29.09-8.39-46.59,8.72Z"/><path class="cls-14" d="M174.98,770.27c-20.41,19.96-19.08,35.53-12.02,42.86,8.18,8.5,26.89,9.01,45.63-7.82,17.64-15.83,19.9-34.73,12.98-43.77-6.85-8.95-29.09-8.39-46.59,8.72Z"/><path class="cls-4" d="M179.02,773.69c-14.93,14.54-15.77,25.9-9.85,31.81s19.65,5.72,33.35-6.56c12.89-11.55,14.39-24.89,9.83-31.55-4.91-7.17-20.52-6.17-33.33,6.3Z"/><path class="cls-35" d="M181.68,776.9c-14.6,14.04-15.86,24.56-10.56,29.76,5.3,5.2,18.17,4.46,31.52-7.44,12.56-11.2,14.52-23.57,10.52-29.52-4.3-6.42-18.97-4.84-31.49,7.2Z"/><path class="cls-15" d="M183.93,777.32c-10.31,9.34-14.13,22.88-9.28,27.63,4.84,4.76,18.34,.73,27.28-7.44,8.6-7.87,13.15-20.26,9.49-25.7-3.93-5.87-16.79-4.17-27.49,5.51Z"/></g><g><path class="cls-86" d="M276.85,822.53c.31,1.7,3.14,9.08,6.51,18.61,6.22,10.74,24.91,11.43,39.91,5.81,20.48-7.89,28.02-23.05,25.68-31.03-.91-3.14-4.36-12.71-5.29-16.01-7.88-6.18-68.67,12.5-66.81,22.62Z"/><path class="cls-23" d="M301.51,790.91c-23.67,10.18-27.28,25.02-23.44,34.57,4.45,11.07,20.41,19.01,41.7,11.04,20.03-7.5,27.74-23.96,24.54-35.02-3.17-10.96-22.49-19.32-42.8-10.59Z"/><path class="cls-19" d="M301.19,789.96c-23.67,10.18-27.28,25.02-23.44,34.57,4.45,11.07,20.41,19.01,41.7,11.04,20.03-7.5,27.74-23.96,24.54-35.02-3.17-10.96-22.49-19.32-42.8-10.59Z"/><path class="cls-14" d="M300.24,787.12c-23.67,10.18-27.28,25.02-23.44,34.57,4.45,11.07,20.41,19.01,41.7,11.04,20.03-7.5,27.74-23.96,24.54-35.02-3.17-10.96-22.49-19.32-42.8-10.59Z"/><path class="cls-4" d="M302.67,791.87c-17.3,7.39-21.49,17.5-18.19,25.28s15.18,13.1,30.73,7.3c14.63-5.46,19.99-17.12,18.09-25.06-2.04-8.55-15.79-13.86-30.63-7.52Z"/><path class="cls-35" d="M303.98,795.89c-16.86,7.07-21.15,16.23-18.18,23.12s14.3,11.35,29.43,5.75c14.24-5.27,19.7-15.85,18.08-22.92-1.75-7.61-14.86-12.02-29.32-5.96Z"/><path class="cls-15" d="M305.79,797.17c-11.73,4.46-19.15,15.37-16.43,21.67s15.58,8,25.77,4.06,17.51-13.36,16.02-19.82c-1.6-6.96-13.19-10.54-25.36-5.91Z"/></g><g><path class="cls-87" d="M329.35,808.7c-.77,1.55-2.93,9.15-5.94,18.8-1.46,12.32,13.08,24.08,28.46,28.57,21.13,5.96,36.25-1.66,39.16-9.45,1.15-3.06,4.13-12.79,5.36-15.99-2.61-9.67-62.46-31.16-67.04-21.93Z"/><path class="cls-23" d="M368.04,798.17c-25.05-6.04-36.83,3.68-39.48,13.62-3.07,11.53,4.94,27.45,26.76,33.83,20.53,6,36.57-2.55,40.64-13.33,4.03-10.67-6.42-28.95-27.91-34.13Z"/><path class="cls-19" d="M368.35,797.22c-25.05-6.04-36.83,3.68-39.48,13.62-3.07,11.53,4.94,27.45,26.76,33.83,20.53,6,36.57-2.55,40.64-13.33,4.03-10.67-6.42-28.95-27.91-34.13Z"/><path class="cls-14" d="M369.29,794.38c-25.05-6.04-36.83,3.68-39.48,13.62-3.07,11.53,4.94,27.45,26.76,33.83,20.53,6,36.57-2.55,40.64-13.33,4.03-10.67-6.42-28.95-27.91-34.13Z"/><path class="cls-4" d="M368.39,799.64c-18.28-4.45-27.69,1.13-29.72,9.34-2.03,8.21,4.3,19.59,20.23,24.26,14.98,4.4,26.26-1.72,29.5-9.21,3.49-8.07-4.33-20.56-20.01-24.38Z"/><path class="cls-35" d="M367.04,803.64c-17.73-4.45-26.66,.31-28.41,7.61s4.64,17.65,20.11,22.24c14.55,4.32,25.27-.88,28.2-7.51,3.16-7.14-4.7-18.53-19.9-22.34Z"/><path class="cls-15" d="M367.71,805.75c-12.07-3.46-24.54,.83-26.14,7.5s7.67,15.74,18.19,18.69,22.02-.2,24.71-6.26c2.89-6.53-4.24-16.34-16.75-19.93Z"/></g><g><path class="cls-85" d="M389.7,804.99c-.77,1.55-2.93,9.15-5.94,18.8-1.46,12.32,13.08,24.08,28.46,28.57,21.13,5.96,36.25-1.66,39.16-9.45,1.15-3.06,4.13-12.79,5.36-15.99-2.61-9.67-62.46-31.16-67.04-21.93Z"/><path class="cls-23" d="M428.39,794.46c-25.05-6.04-36.83,3.68-39.48,13.62-3.07,11.53,4.94,27.45,26.76,33.83,20.53,6,36.57-2.55,40.64-13.33,4.03-10.67-6.42-28.95-27.91-34.13Z"/><path class="cls-19" d="M428.71,793.51c-25.05-6.04-36.83,3.68-39.48,13.62-3.07,11.53,4.94,27.45,26.76,33.83,20.53,6,36.57-2.55,40.64-13.33,4.03-10.67-6.42-28.95-27.91-34.13Z"/><path class="cls-14" d="M429.65,790.66c-25.05-6.04-36.83,3.68-39.48,13.62-3.07,11.53,4.94,27.45,26.76,33.83,20.53,6,36.57-2.55,40.64-13.33,4.03-10.67-6.42-28.95-27.91-34.13Z"/><path class="cls-4" d="M428.75,795.92c-18.28-4.45-27.69,1.13-29.72,9.34-2.03,8.21,4.3,19.59,20.23,24.26,14.98,4.4,26.26-1.72,29.5-9.21,3.49-8.07-4.33-20.56-20.01-24.38Z"/><path class="cls-35" d="M427.39,799.92c-17.73-4.45-26.66,.31-28.41,7.61s4.64,17.65,20.11,22.24c14.55,4.32,25.27-.88,28.2-7.51,3.16-7.14-4.7-18.53-19.9-22.34Z"/><path class="cls-15" d="M428.07,802.03c-12.07-3.46-24.54,.83-26.14,7.5s7.67,15.74,18.19,18.69,22.02-.2,24.71-6.26c2.89-6.53-4.24-16.34-16.75-19.93Z"/></g><g><path class="cls-98" d="M473,630.33c-1.3,2.92-3.44,7.32-5.21,11.22-2.98,12.15,10.22,25.77,25.15,32.23,20.53,8.66,34.85,6.75,38.73-.67,.55-1.05,4.11-8.07,5.47-10.8,2.43-4.89-62.34-36-64.13-31.98Z"/><path class="cls-23" d="M510.1,630.95c-24.21-9.8-35.62-5.02-38.21,1.87-3,7.98,4.7,21.59,25.78,30.96,19.83,8.82,35.36,5.8,39.33-1.4s-6.13-23.02-26.9-31.42Z"/><path class="cls-19" d="M510.41,630.3c-24.21-9.8-35.62-5.02-38.21,1.87-3,7.98,4.7,21.59,25.78,30.96,19.83,8.82,35.36,5.8,39.33-1.4,3.93-7.14-6.13-23.02-26.9-31.42Z"/><path class="cls-17" d="M511.32,628.37c-24.21-9.8-35.62-5.02-38.21,1.87-3,7.98,4.7,21.59,25.78,30.96,19.83,8.82,35.36,5.8,39.33-1.4,3.93-7.14-6.13-23.02-26.9-31.42Z"/><path class="cls-4" d="M510.44,632.12c-17.66-7.18-26.77-5-28.76,.72-1.99,5.71,4.11,15.56,19.49,22.42,14.48,6.45,25.39,4.25,28.55-.67,3.4-5.3-4.13-16.3-19.28-22.46Z"/><path class="cls-33" d="M509.12,634.82c-17.13-7.07-26.51-3.6-27.49-.29-1.53,5.17,4.44,14.19,19.38,20.88,14.06,6.3,24.43,4.67,27.29,.33,3.08-4.67-4.49-14.86-19.18-20.92Z"/><path class="cls-30" d="M509.77,636.55c-11.66-5.14-23.73-4.56-25.3,.1-1.57,4.66,7.38,13.39,17.54,17.82s21.29,4.49,23.9,.52c2.81-4.27-4.06-13.12-16.15-18.45Z"/><path class="cls-32" d="M500.74,625.59c-2.16-.54-4.2-.19-4.3,.56s1.73,1.91,3.61,2.38,3.78,.24,4.09-.43c.33-.72-1.15-1.94-3.4-2.51Z"/></g><g><path class="cls-49" d="M478.98,678.94c-.5,1.67-1.35,9.59-2.69,19.68,.67,12.49,17.25,21.71,33.41,23.56,22.16,2.34,35.96-7.79,37.53-16.03,.62-3.24,1.92-13.41,2.59-16.79-4.28-9.17-67.86-20.37-70.84-10.43Z"/><path class="cls-23" d="M515.86,661.91c-26.1-1.75-36.2,9.89-37.13,20.23-1.08,11.97,9.69,26.44,32.61,29.08,21.57,2.48,36.13-8.74,38.34-20.13,2.19-11.29-11.43-27.67-33.82-29.17Z"/><path class="cls-19" d="M516.01,660.92c-26.1-1.75-36.2,9.89-37.13,20.23-1.08,11.97,9.69,26.44,32.61,29.08,21.57,2.48,36.13-8.74,38.34-20.13,2.19-11.29-11.43-27.67-33.82-29.17Z"/><path class="cls-17" d="M516.46,657.93c-26.1-1.75-36.2,9.89-37.13,20.23-1.08,11.97,9.69,26.44,32.61,29.08,21.57,2.48,36.13-8.74,38.34-20.13,2.19-11.29-11.43-27.67-33.82-29.17Z"/><path class="cls-4" d="M516.47,663.31c-19.05-1.32-27.5,5.81-28.11,14.31s7.69,18.73,24.42,20.67c15.75,1.83,25.97-6.16,27.91-14.15,2.1-8.61-7.89-19.7-24.23-20.83Z"/><path class="cls-33" d="M515.8,667.51c-18.5-1.41-26.91,7.55-27.1,12.38-.29,7.56,7.69,16.75,23.96,18.69,15.3,1.82,25.12-5.16,26.91-12.24,1.93-7.63-7.9-17.61-23.77-18.83Z"/><path class="cls-30" d="M516.84,669.49c-12.67-1.4-24.4,4.98-24.85,11.89-.45,6.9,10.4,14.34,21.43,15.49s21.99-3.93,23.63-10.41c1.76-6.97-7.07-15.52-20.2-16.96Z"/></g><g><path class="cls-97" d="M541.04,725.17c-1.03,1.21-4.41,7.59-8.98,15.61-3.35,10.94,10.1,25.96,25.48,34.53,21.17,11.57,38.07,8.9,42.26,2.56,1.65-2.49,6.2-10.6,7.95-13.19-1.29-9.67-60.58-46.7-66.72-39.51Z"/><path class="cls-23" d="M582.97,726.6c-25.25-12.77-38.98-7.21-43.22,1.19-4.91,9.74,1.1,26.73,22.93,38.88,20.54,11.44,38.54,8.17,44.38-.59,5.78-8.68-2.43-28.53-24.09-39.49Z"/><path class="cls-19" d="M583.44,725.81c-25.25-12.77-38.98-7.21-43.22,1.19-4.91,9.74,1.1,26.73,22.93,38.88,20.54,11.44,38.54,8.17,44.38-.59,5.78-8.68-2.43-28.53-24.09-39.49Z"/><path class="cls-13" d="M584.84,723.46c-25.25-12.77-38.98-7.21-43.22,1.19-4.91,9.74,1.1,26.73,22.93,38.88,20.54,11.44,38.54,8.17,44.38-.59,5.78-8.68-2.43-28.53-24.09-39.49Z"/><path class="cls-4" d="M583.13,728.05c-18.42-9.36-29.06-6.93-32.39,.05-3.33,6.98,1.6,19.29,17.53,28.18,14.99,8.36,27.66,5.97,32.15,0,4.84-6.43-1.49-20.2-17.28-28.23Z"/><path class="cls-12" d="M581.12,731.35c-17.85-9.2-27.87-7.39-30.77-1.16-2.91,6.23,2.24,17.61,17.7,26.29,14.55,8.17,26.5,6.46,30.54,1.2,4.35-5.67-2.16-18.43-17.47-26.32Z"/><path class="cls-30" d="M581.51,733.49c-12.08-6.67-25.74-6.3-28.39-.61-2.66,5.69,5.69,16.72,16.23,22.47,10.15,5.54,23.01,6.15,26.71,1.34,3.98-5.18-2.01-16.28-14.54-23.2Z"/><path class="cls-32" d="M570.17,718.82c-2.16-.54-4.2-.19-4.3,.56s1.73,1.91,3.61,2.38,3.78,.24,4.09-.43c.33-.72-1.15-1.94-3.4-2.51Z"/></g><g><path class="cls-50" d="M507.01,723.81c-1.06,1.22-4.72,7.64-9.61,15.72-3.93,10.96,7.87,25.69,21.95,33.95,19.39,11.16,35.68,8.19,40.1,1.8,1.74-2.51,6.62-10.67,8.47-13.29-.58-9.61-54.58-45.45-60.91-38.19Z"/><path class="cls-23" d="M546.87,724.49c-23.2-12.28-36.66-6.49-41.26,1.96-5.34,9.79-.75,26.61,19.23,38.34,18.8,11.03,36.17,7.46,42.32-1.37,6.1-8.75-.39-28.39-20.29-38.92Z"/><path class="cls-19" d="M547.37,723.7c-23.2-12.28-36.66-6.49-41.26,1.96-5.34,9.79-.75,26.61,19.23,38.34,18.8,11.03,36.17,7.46,42.32-1.37,6.1-8.75-.39-28.39-20.29-38.92Z"/><path class="cls-14" d="M548.86,721.32c-23.2-12.28-36.66-6.49-41.26,1.96-5.34,9.79-.75,26.61,19.23,38.34,18.8,11.03,36.17,7.46,42.32-1.37,6.1-8.75-.39-28.39-20.29-38.92Z"/><path class="cls-4" d="M546.92,725.93c-16.92-9-27.22-6.39-30.87,.63-3.65,7.02,.22,19.2,14.8,27.77,13.72,8.07,25.95,5.46,30.63-.57,5.04-6.49-.05-20.1-14.56-27.82Z"/><path class="cls-35" d="M544.79,729.25c-16.39-8.85-26.06-6.87-29.24-.61-3.19,6.26,.94,17.51,15.09,25.88,13.31,7.88,24.81,5.97,29.02,.65,4.53-5.73-.82-18.33-14.87-25.92Z"/><path class="cls-15" d="M545.02,731.37c-11.06-6.43-24.1-5.82-27.01-.1s4.29,16.55,13.94,22.1,21.51,5.72,25.36,.86c4.14-5.24-.82-16.19-12.29-22.85Z"/></g><g><path class="cls-93" d="M453.85,687.64c-1.25,1.43-5.67,8.89-11.55,18.29-4.98,12.68,7.3,29.29,22.47,38.43,20.9,12.32,39.16,8.51,44.42,1.06,2.08-2.93,7.95-12.42,10.15-15.47-.1-11.02-58.05-50.81-65.49-42.3Z"/><path class="cls-23" d="M498.08,687.41c-25.07-13.51-40.34-6.53-45.93,3.29-6.48,11.38-2.33,30.57,19.19,43.53,20.25,12.19,39.75,7.65,47.08-2.64,7.26-10.2,1.16-32.58-20.34-44.17Z"/><path class="cls-19" d="M498.68,686.49c-25.07-13.51-40.34-6.53-45.93,3.29-6.48,11.38-2.33,30.57,19.19,43.53,20.25,12.19,39.75,7.65,47.08-2.64,7.26-10.2,1.16-32.58-20.34-44.17Z"/><path class="cls-14" d="M500.47,683.73c-25.07-13.51-40.34-6.53-45.93,3.29-6.48,11.38-2.33,30.57,19.19,43.53,20.25,12.19,39.75,7.65,47.08-2.64,7.26-10.2,1.16-32.58-20.34-44.17Z"/><path class="cls-4" d="M498.05,689.07c-18.28-9.91-29.87-6.65-34.32,1.5s-.83,22.03,14.87,31.51c14.78,8.92,28.51,5.61,34.05-1.43,5.96-7.58,1.07-23.08-14.61-31.58Z"/><path class="cls-35" d="M495.5,692.94c-17.7-9.75-28.55-7.23-32.44,.04-3.89,7.26,.06,20.07,15.31,29.33,14.34,8.71,27.22,6.23,32.19,.01,5.35-6.69,.12-21.02-15.06-29.38Z"/><path class="cls-15" d="M495.63,695.37c-11.92-7.1-26.43-6.08-29.99,.56s3.83,18.9,14.24,25.02,23.57,6.03,28.11,.35c4.9-6.12,0-18.57-12.36-25.93Z"/></g><g><path class="cls-83" d="M520.04,766.81c-1.06,1.22-4.72,7.64-9.61,15.72-3.93,10.96,7.87,25.69,21.95,33.95,19.39,11.16,35.68,8.19,40.1,1.8,1.74-2.51,6.62-10.67,8.47-13.29-.58-9.61-54.58-45.45-60.91-38.19Z"/><path class="cls-23" d="M559.9,767.49c-23.2-12.28-36.66-6.49-41.26,1.96-5.34,9.79-.75,26.61,19.23,38.34,18.8,11.03,36.17,7.46,42.32-1.37,6.1-8.75-.39-28.39-20.29-38.92Z"/><path class="cls-19" d="M560.4,766.7c-23.2-12.28-36.66-6.49-41.26,1.96-5.34,9.79-.75,26.61,19.23,38.34,18.8,11.03,36.17,7.46,42.32-1.37,6.1-8.75-.39-28.39-20.29-38.92Z"/><path class="cls-14" d="M561.89,764.33c-23.2-12.28-36.66-6.49-41.26,1.96-5.34,9.79-.75,26.61,19.23,38.34,18.8,11.03,36.17,7.46,42.32-1.37,6.1-8.75-.39-28.39-20.29-38.92Z"/><path class="cls-4" d="M559.95,768.94c-16.92-9-27.22-6.39-30.87,.63-3.65,7.02,.22,19.2,14.8,27.77,13.72,8.07,25.95,5.46,30.63-.57,5.04-6.49-.05-20.1-14.56-27.82Z"/><path class="cls-35" d="M557.82,772.25c-16.39-8.85-26.06-6.87-29.24-.61-3.19,6.26,.94,17.51,15.09,25.88,13.31,7.88,24.81,5.97,29.02,.65,4.53-5.73-.82-18.33-14.87-25.92Z"/><path class="cls-15" d="M558.05,774.38c-11.06-6.43-24.1-5.82-27.01-.1s4.29,16.55,13.94,22.1,21.51,5.72,25.36,.86c4.14-5.24-.82-16.19-12.29-22.85Z"/></g><g><path class="cls-103" d="M591.05,799.8c-1.53,1.22-7.4,7.97-15.11,16.41-7.41,11.93,1.86,30.96,15.46,42.95,18.79,16.25,37.95,15.69,44.67,9.11,2.65-2.58,10.37-11.13,13.16-13.81,1.97-11.17-49.07-61.91-58.19-54.65Z"/><path class="cls-23" d="M635.76,807.57c-22.78-18.21-39.51-13.91-47.01-4.98-8.68,10.34-8.11,30.51,11.19,47.52,18.16,16,38.71,14.93,48.05,5.84,9.25-9,7.31-32.76-12.23-48.37Z"/><path class="cls-19" d="M636.54,806.75c-22.78-18.21-39.51-13.91-47.01-4.98-8.68,10.34-8.11,30.51,11.19,47.52,18.16,16,38.71,14.93,48.05,5.84s7.31-32.76-12.23-48.37Z"/><path class="cls-14" d="M638.87,804.28c-22.78-18.21-39.51-13.91-47.01-4.98-8.68,10.34-8.11,30.51,11.19,47.52,18.16,16,38.71,14.93,48.05,5.84,9.25-9,7.31-32.76-12.23-48.37Z"/><path class="cls-4" d="M635.42,809.24c-16.6-13.33-28.92-12.13-34.94-4.69-6.02,7.44-4.99,22.14,9.09,34.57,13.25,11.7,27.74,10.84,34.66,4.71,7.45-6.59,5.43-23.16-8.81-34.59Z"/><path class="cls-35" d="M632.11,812.69c-16.04-13.07-27.47-12.48-32.77-5.83-5.3,6.64-3.71,20.32,9.94,32.45,12.85,11.41,26.32,11.22,32.51,5.84,6.67-5.8,4.08-21.25-9.68-32.45Z"/><path class="cls-15" d="M631.79,815.18c-10.7-9.34-25.55-10.93-30.4-4.86-4.84,6.07,.31,19.81,9.68,27.89s22.67,10.36,28.33,5.44c6.1-5.3,3.49-18.79-7.61-28.47Z"/></g><g><path class="cls-82" d="M513.95,804.6c-.45,1.46-1.16,8.43-2.3,17.3,.77,11,16.45,19.21,31.65,20.95,20.84,2.2,33.69-6.63,35.06-13.87,.55-2.84,1.65-11.79,2.24-14.76-4.13-8.1-63.97-18.35-66.66-9.62Z"/><path class="cls-23" d="M548.38,789.86c-24.53-1.7-33.89,8.48-34.64,17.57-.88,10.53,9.41,23.33,30.97,25.79,20.29,2.32,33.83-7.46,35.78-17.47,1.92-9.92-11.06-24.42-32.1-25.89Z"/><path class="cls-19" d="M548.51,788.98c-24.53-1.7-33.89,8.48-34.64,17.57-.88,10.53,9.41,23.33,30.97,25.79,20.29,2.32,33.83-7.46,35.78-17.47s-11.06-24.42-32.1-25.89Z"/><path class="cls-14" d="M548.9,786.35c-24.53-1.7-33.89,8.48-34.64,17.57-.88,10.53,9.41,23.33,30.97,25.79,20.29,2.32,33.83-7.46,35.78-17.47,1.92-9.92-11.06-24.42-32.1-25.89Z"/><path class="cls-4" d="M548.97,791.09c-17.91-1.28-25.76,4.94-26.23,12.42-.48,7.48,7.44,16.53,23.18,18.35,14.81,1.71,24.32-5.26,26.05-12.28,1.87-7.56-7.64-17.38-23-18.48Z"/><path class="cls-35" d="M548.4,794.78c-17.39-1.36-24.94,4.08-25.31,10.72-.37,6.64,7.42,14.79,22.72,16.6,14.39,1.7,23.53-4.38,25.13-10.6,1.72-6.7-7.63-15.55-22.55-16.72Z"/><path class="cls-15" d="M549.4,796.53c-11.91-1.31-22.86,4.23-23.2,10.3-.34,6.07,9.93,12.68,20.31,13.76s20.61-3.32,22.07-9.01c1.58-6.13-6.82-13.7-19.17-15.05Z"/></g><g><path class="cls-95" d="M467.71,807.44c-.52,1.8-1.43,10.35-2.86,21.24,.58,13.45,17.21,23.15,33.48,24.93,22.3,2.22,36.29-8.89,37.93-17.78,.65-3.49,2.04-14.47,2.74-18.13-4.24-9.82-68.2-21.02-71.28-10.27Z"/><path class="cls-23" d="M504.99,788.59c-26.28-1.53-36.54,11.16-37.56,22.31-1.18,12.92,9.56,28.36,32.63,30.88,21.71,2.38,36.46-9.91,38.77-22.22,2.29-12.19-11.31-29.66-33.84-30.97Z"/><path class="cls-19" d="M505.15,787.52c-26.28-1.53-36.54,11.16-37.56,22.31-1.18,12.92,9.56,28.36,32.63,30.88,21.71,2.38,36.46-9.91,38.77-22.22,2.29-12.19-11.31-29.66-33.84-30.97Z"/><path class="cls-14" d="M505.62,784.29c-26.28-1.53-36.54,11.16-37.56,22.31-1.18,12.92,9.56,28.36,32.63,30.88,21.71,2.38,36.46-9.91,38.77-22.22,2.29-12.19-11.31-29.66-33.84-30.97Z"/><path class="cls-4" d="M505.6,790.09c-19.18-1.16-27.74,6.64-28.42,15.81-.68,9.17,7.6,20.08,24.45,21.94,15.85,1.75,26.2-7,28.23-15.64,2.18-9.3-7.8-21.12-24.25-22.11Z"/><path class="cls-35" d="M504.89,794.63c-18.63-1.27-26.84,5.57-27.39,13.71-.55,8.14,7.62,17.95,23.99,19.81,15.4,1.75,25.34-5.9,27.2-13.56,2-8.25-7.82-18.87-23.8-19.96Z"/><path class="cls-15" d="M505.93,796.75c-12.75-1.33-24.62,5.7-25.12,13.15-.5,7.45,10.36,15.3,21.47,16.39,10.69,1.05,22.18-4.54,23.88-11.54,1.83-7.54-7-16.62-20.22-18Z"/></g><g><path class="cls-94" d="M442.49,777.21c-1.53,1.22-7.4,7.97-15.11,16.41-7.41,11.93,1.86,30.96,15.46,42.95,18.79,16.25,37.95,15.69,44.67,9.11,2.65-2.58,10.37-11.13,13.16-13.81,1.97-11.17-49.07-61.91-58.19-54.65Z"/><path class="cls-23" d="M487.2,784.98c-22.78-18.21-39.51-13.91-47.01-4.98-8.68,10.34-8.11,30.51,11.19,47.52,18.16,16,38.71,14.93,48.05,5.84,9.25-9,7.31-32.76-12.23-48.37Z"/><path class="cls-19" d="M487.98,784.16c-22.78-18.21-39.51-13.91-47.01-4.98-8.68,10.34-8.11,30.51,11.19,47.52,18.16,16,38.71,14.93,48.05,5.84s7.31-32.76-12.23-48.37Z"/><path class="cls-14" d="M490.31,781.69c-22.78-18.21-39.51-13.91-47.01-4.98-8.68,10.34-8.11,30.51,11.19,47.52,18.16,16,38.71,14.93,48.05,5.84,9.25-9,7.31-32.76-12.23-48.37Z"/><path class="cls-4" d="M486.86,786.65c-16.6-13.33-28.92-12.13-34.94-4.69-6.02,7.44-4.99,22.14,9.09,34.57,13.25,11.7,27.74,10.84,34.66,4.71,7.45-6.59,5.43-23.16-8.81-34.59Z"/><path class="cls-35" d="M483.55,790.1c-16.04-13.07-27.47-12.48-32.77-5.83-5.3,6.64-3.71,20.32,9.94,32.45,12.85,11.41,26.32,11.22,32.51,5.84,6.67-5.8,4.08-21.25-9.68-32.45Z"/><path class="cls-15" d="M483.23,792.59c-10.7-9.34-25.55-10.93-30.4-4.86-4.84,6.07,.31,19.81,9.68,27.89s22.67,10.36,28.33,5.44c6.1-5.3,3.49-18.79-7.61-28.47Z"/></g><g><path class="cls-96" d="M469.85,756.79c-1.53,1.22-7.4,7.97-15.11,16.41-7.41,11.93,1.86,30.96,15.46,42.95,18.79,16.25,37.95,15.69,44.67,9.11,2.65-2.58,10.37-11.13,13.16-13.81,1.97-11.17-49.07-61.91-58.19-54.65Z"/><path class="cls-23" d="M514.57,764.57c-22.78-18.21-39.51-13.91-47.01-4.98-8.68,10.34-8.11,30.51,11.19,47.52,18.16,16,38.71,14.93,48.05,5.84,9.25-9,7.31-32.76-12.23-48.37Z"/><path class="cls-19" d="M515.34,763.74c-22.78-18.21-39.51-13.91-47.01-4.98-8.68,10.34-8.11,30.51,11.19,47.52,18.16,16,38.71,14.93,48.05,5.84s7.31-32.76-12.23-48.37Z"/><path class="cls-14" d="M517.67,761.27c-22.78-18.21-39.51-13.91-47.01-4.98-8.68,10.34-8.11,30.51,11.19,47.52,18.16,16,38.71,14.93,48.05,5.84,9.25-9,7.31-32.76-12.23-48.37Z"/><path class="cls-4" d="M514.23,766.24c-16.6-13.33-28.92-12.13-34.94-4.69-6.02,7.44-4.99,22.14,9.09,34.57,13.25,11.7,27.74,10.84,34.66,4.71,7.45-6.59,5.43-23.16-8.81-34.59Z"/><path class="cls-35" d="M510.92,769.69c-16.04-13.07-27.47-12.48-32.77-5.83-5.3,6.64-3.71,20.32,9.94,32.45,12.85,11.41,26.32,11.22,32.51,5.84,6.67-5.8,4.08-21.25-9.68-32.45Z"/><path class="cls-15" d="M510.6,772.17c-10.7-9.34-25.55-10.93-30.4-4.86-4.84,6.07,.31,19.81,9.68,27.89s22.67,10.36,28.33,5.44c6.1-5.3,3.49-18.79-7.61-28.47Z"/></g><g><path class="cls-102" d="M398.98,721.5c-1.25,1.43-5.67,8.89-11.55,18.29-4.98,12.68,7.3,29.29,22.47,38.43,20.9,12.32,39.16,8.51,44.42,1.06,2.08-2.93,7.95-12.42,10.15-15.47-.1-11.02-58.05-50.81-65.49-42.3Z"/><path class="cls-23" d="M443.21,721.27c-25.07-13.51-40.34-6.53-45.93,3.29-6.48,11.38-2.33,30.57,19.19,43.53,20.25,12.19,39.75,7.65,47.08-2.64,7.26-10.2,1.16-32.58-20.34-44.17Z"/><path class="cls-19" d="M443.81,720.35c-25.07-13.51-40.34-6.53-45.93,3.29-6.48,11.38-2.33,30.57,19.19,43.53,20.25,12.19,39.75,7.65,47.08-2.64,7.26-10.2,1.16-32.58-20.34-44.17Z"/><path class="cls-14" d="M445.6,717.59c-25.07-13.51-40.34-6.53-45.93,3.29-6.48,11.38-2.33,30.57,19.19,43.53,20.25,12.19,39.75,7.65,47.08-2.64,7.26-10.2,1.16-32.58-20.34-44.17Z"/><path class="cls-4" d="M443.18,722.93c-18.28-9.91-29.87-6.65-34.32,1.5s-.83,22.03,14.87,31.51c14.78,8.92,28.51,5.61,34.05-1.43,5.96-7.58,1.07-23.08-14.61-31.58Z"/><path class="cls-35" d="M440.63,726.79c-17.7-9.75-28.55-7.23-32.44,.04-3.89,7.26,.06,20.07,15.31,29.33,14.34,8.71,27.22,6.23,32.19,.01,5.35-6.69,.12-21.02-15.06-29.38Z"/><path class="cls-15" d="M440.77,729.23c-11.92-7.1-26.43-6.08-29.99,.56s3.83,18.9,14.24,25.02,23.57,6.03,28.11,.35c4.9-6.12,0-18.57-12.36-25.93Z"/></g><g><path class="cls-104" d="M366.49,762.35c-1.14,1.3-5.16,8.11-10.53,16.67-4.55,11.55,6.53,26.62,20.26,34.88,18.91,11.14,35.48,7.62,40.27,.83,1.89-2.67,7.25-11.32,9.25-14.1-.06-10.02-52.48-46.03-59.25-38.27Z"/><path class="cls-23" d="M406.58,762.01c-22.69-12.21-36.55-5.82-41.65,3.13-5.91,10.37-2.21,27.81,17.27,39.53,18.33,11.03,36.01,6.83,42.69-2.55s1.15-29.63-18.31-40.11Z"/><path class="cls-19" d="M407.13,761.17c-22.69-12.21-36.55-5.82-41.65,3.13-5.91,10.37-2.21,27.81,17.27,39.53,18.33,11.03,36.01,6.83,42.69-2.55,6.62-9.29,1.15-29.63-18.31-40.11Z"/><path class="cls-14" d="M408.76,758.66c-22.69-12.21-36.55-5.82-41.65,3.13-5.91,10.37-2.21,27.81,17.27,39.53,18.33,11.03,36.01,6.83,42.69-2.55,6.62-9.29,1.15-29.63-18.31-40.11Z"/><path class="cls-4" d="M406.55,763.52c-16.54-8.95-27.06-5.96-31.12,1.47s-.82,20.04,13.39,28.61c13.37,8.06,25.83,5.02,30.87-1.4,5.43-6.91,1.04-20.99-13.15-28.67Z"/><path class="cls-35" d="M404.23,767.04c-16.02-8.81-25.86-6.48-29.41,.13s0,18.25,13.79,26.63c12.98,7.88,24.66,5.58,29.19-.08,4.87-6.1,.17-19.11-13.56-26.67Z"/><path class="cls-15" d="M404.34,769.25c-10.79-6.42-23.95-5.45-27.19,.6s3.42,17.17,12.84,22.71,21.35,5.41,25.49,.23c4.46-5.58,.05-16.88-11.13-23.54Z"/></g><g><path class="cls-105" d="M337.58,696.83c-.77,1.55-2.93,9.15-5.94,18.8-1.46,12.32,13.08,24.08,28.46,28.57,21.13,5.96,36.25-1.66,39.16-9.45,1.15-3.06,4.13-12.79,5.36-15.99-2.61-9.67-62.46-31.16-67.04-21.93Z"/><path class="cls-23" d="M376.27,686.29c-25.05-6.04-36.83,3.68-39.48,13.62-3.07,11.53,4.94,27.45,26.76,33.83,20.53,6,36.57-2.55,40.64-13.33,4.03-10.67-6.42-28.95-27.91-34.13Z"/><path class="cls-19" d="M376.58,685.35c-25.05-6.04-36.83,3.68-39.48,13.62-3.07,11.53,4.94,27.45,26.76,33.83,20.53,6,36.57-2.55,40.64-13.33,4.03-10.67-6.42-28.95-27.91-34.13Z"/><path class="cls-14" d="M377.52,682.5c-25.05-6.04-36.83,3.68-39.48,13.62-3.07,11.53,4.94,27.45,26.76,33.83,20.53,6,36.57-2.55,40.64-13.33,4.03-10.67-6.42-28.95-27.91-34.13Z"/><path class="cls-4" d="M376.62,687.76c-18.28-4.45-27.69,1.13-29.72,9.34s4.3,19.59,20.23,24.26c14.98,4.4,26.26-1.72,29.5-9.21,3.49-8.07-4.33-20.56-20.01-24.38Z"/><path class="cls-35" d="M375.27,691.76c-17.73-4.45-26.66,.31-28.41,7.61s4.64,17.65,20.11,22.24c14.55,4.32,25.27-.88,28.2-7.51,3.16-7.14-4.7-18.53-19.9-22.34Z"/><path class="cls-15" d="M375.94,693.87c-12.07-3.46-24.54,.83-26.14,7.5s7.67,15.74,18.19,18.69,22.02-.2,24.71-6.26c2.89-6.53-4.24-16.34-16.75-19.93Z"/></g><g><path class="cls-107" d="M289.74,698.1c.54,1.42,4.17,7.36,8.62,15.06,7.11,8.3,23.4,5.9,35.49-1.37,16.47-10.12,20.56-24.46,17.26-30.99-1.29-2.57-5.81-10.31-7.15-13.01-7.82-4.09-57.45,21.84-54.21,30.3Z"/><path class="cls-23" d="M306.02,666.77c-18.86,12.62-19.61,26.04-14.75,33.69,5.63,8.87,20.72,13.19,37.87,2.87,16.14-9.71,20.17-25.2,15.63-34.26-4.5-8.98-22.58-13.12-38.75-2.3Z"/><path class="cls-19" d="M305.59,666c-18.86,12.62-19.61,26.04-14.75,33.69,5.63,8.87,20.72,13.19,37.87,2.87,16.14-9.71,20.17-25.2,15.63-34.26-4.5-8.98-22.58-13.12-38.75-2.3Z"/><path class="cls-14" d="M304.31,663.69c-18.86,12.62-19.61,26.04-14.75,33.69,5.63,8.87,20.72,13.19,37.87,2.87,16.14-9.71,20.17-25.2,15.63-34.26-4.5-8.98-22.58-13.12-38.75-2.3Z"/><path class="cls-4" d="M307.18,667.41c-13.79,9.18-15.8,18.6-11.7,24.81s15.25,8.91,27.78,1.39c11.79-7.08,14.56-18.03,11.65-24.6-3.14-7.08-15.9-9.47-27.73-1.6Z"/><path class="cls-35" d="M308.96,670.68c-13.46,8.82-15.71,17.44-12.03,22.94,3.68,5.49,14.2,7.53,26.4,.26,11.48-6.85,14.51-16.88,11.97-22.74-2.73-6.31-14.8-8.02-26.35-.45Z"/><path class="cls-15" d="M310.73,671.5c-9.44,5.74-14.12,16.38-10.75,21.4,3.37,5.02,14.77,4.43,22.96-.62s13.01-14.38,10.69-19.73c-2.5-5.77-13.11-7.01-22.9-1.05Z"/></g><g><path class="cls-112" d="M227.34,676c.11,1.52,1.86,8.26,3.88,16.92,4.39,10.01,20.68,12.44,34.36,8.99,18.7-4.9,26.77-17.43,25.51-24.65-.49-2.84-2.57-11.55-3.07-14.53-6.29-6.18-61.32,4.22-60.68,13.26Z"/><path class="cls-23" d="M252.02,650.75c-21.71,6.6-26.32,19.22-23.89,27.96,2.81,10.12,16,18.64,35.41,13.74,18.26-4.61,26.62-18.25,24.9-28.25-1.7-9.9-17.79-19.11-36.42-13.45Z"/><path class="cls-19" d="M251.83,649.89c-21.71,6.6-26.32,19.22-23.89,27.96,2.81,10.12,16,18.64,35.41,13.74,18.26-4.61,26.62-18.25,24.9-28.25-1.7-9.9-17.79-19.11-36.42-13.45Z"/><path class="cls-14" d="M251.27,647.3c-21.71,6.6-26.32,19.22-23.89,27.96,2.81,10.12,16,18.64,35.41,13.74,18.26-4.61,26.62-18.25,24.9-28.25-1.7-9.9-17.79-19.11-36.42-13.45Z"/><path class="cls-4" d="M252.94,651.7c-15.86,4.78-20.52,13.21-18.39,20.35,2.12,7.14,12.01,12.95,26.18,9.39,13.34-3.35,19.17-13.02,18.28-20.16-.95-7.68-12.47-13.68-26.07-9.58Z"/><path class="cls-35" d="M253.69,655.34c-15.44,4.54-20.1,12.13-18.17,18.46,1.93,6.32,11.4,11.33,25.19,7.91,12.97-3.22,18.79-11.94,18.06-18.29-.78-6.83-11.83-11.97-25.08-8.08Z"/><path class="cls-15" d="M255.15,656.64c-10.7,2.75-18.26,11.58-16.5,17.36,1.76,5.78,12.85,8.52,22.15,6.07,8.96-2.36,16.63-9.98,15.96-15.78-.72-6.24-10.51-10.51-21.61-7.66Z"/></g><g><path class="cls-111" d="M288.38,736.12c.47,1.66,3.98,8.75,8.24,17.91,7.21,10.11,25.88,9.02,40.28,2.01,19.64-9.8,25.71-25.6,22.63-33.33-1.21-3.04-5.54-12.24-6.78-15.43-8.43-5.41-67.18,18.94-64.37,28.85Z"/><path class="cls-23" d="M309.94,702.31c-22.6,12.38-24.79,27.49-20.06,36.63,5.48,10.6,22.12,17,42.55,7.04,19.23-9.36,25.35-26.48,21.12-37.19-4.19-10.61-24.22-17.11-43.61-6.49Z"/><path class="cls-19" d="M309.53,701.4c-22.6,12.38-24.79,27.49-20.06,36.63,5.48,10.6,22.12,17,42.55,7.04,19.23-9.36,25.35-26.48,21.12-37.19-4.19-10.61-24.22-17.11-43.61-6.49Z"/><path class="cls-14" d="M308.31,698.66c-22.6,12.38-24.79,27.49-20.06,36.63,5.48,10.6,22.12,17,42.55,7.04,19.23-9.36,25.35-26.48,21.12-37.19-4.19-10.61-24.22-17.11-43.61-6.49Z"/><path class="cls-4" d="M311.19,703.16c-16.52,9-19.73,19.45-15.72,26.89s16.36,11.6,31.28,4.35c14.05-6.82,18.28-18.93,15.64-26.66-2.84-8.32-17.04-12.31-31.21-4.59Z"/><path class="cls-35" d="M312.87,707.03c-16.11,8.63-19.52,18.16-15.91,24.74s15.31,9.94,29.84,2.94c13.67-6.59,18.11-17.64,15.83-24.52-2.46-7.41-15.94-10.56-29.76-3.15Z"/><path class="cls-15" d="M314.79,708.14c-11.26,5.55-17.61,17.12-14.31,23.13,3.3,6.02,16.26,6.49,26.03,1.6s16.16-14.96,14.08-21.25c-2.25-6.77-14.13-9.24-25.8-3.49Z"/></g><g><path class="cls-109" d="M228.41,725.19c.09,1.69,1.91,9.22,3.99,18.9,4.74,11.21,23.16,14.17,38.76,10.54,21.33-5.17,30.8-19.01,29.54-27.06-.49-3.17-2.63-12.9-3.12-16.23-6.99-6.98-69.67,3.75-69.16,13.84Z"/><path class="cls-23" d="M257.02,697.44c-24.79,7.01-30.33,21.01-27.79,30.77,2.94,11.32,17.7,21,39.84,15.85,20.83-4.85,30.65-19.92,28.94-31.08-1.69-11.05-19.72-21.56-40.99-15.54Z"/><path class="cls-19" d="M256.83,696.48c-24.79,7.01-30.33,21.01-27.79,30.77,2.94,11.32,17.7,21,39.84,15.85,20.83-4.85,30.65-19.92,28.94-31.08-1.69-11.05-19.72-21.56-40.99-15.54Z"/><path class="cls-22" d="M256.26,693.59c-24.79,7.01-30.33,21.01-27.79,30.77,2.94,11.32,17.7,21,39.84,15.85,20.83-4.85,30.65-19.92,28.94-31.08-1.69-11.05-19.72-21.56-40.99-15.54Z"/><path class="cls-5" d="M258.04,698.51c-18.11,5.08-23.6,14.4-21.37,22.38,2.23,7.98,13.31,14.61,29.47,10.86,15.21-3.53,22.06-14.21,21.24-22.17-.89-8.57-13.81-15.42-29.34-11.07Z"/><path class="cls-35" d="M258.81,702.58c-17.63,4.81-23.1,13.2-21.06,20.28s12.66,12.79,28.39,9.2c14.8-3.39,21.61-13.01,20.94-20.09-.72-7.62-13.13-13.51-28.26-9.38Z"/><path class="cls-20" d="M260.43,704.05c-12.21,2.9-21,12.61-19.14,19.08,1.86,6.47,14.37,9.69,24.98,7.1,10.22-2.49,19.11-10.86,18.49-17.33-.66-6.97-11.67-11.87-24.33-8.86Z"/></g><g><path class="cls-101" d="M194.59,657.98c.17,1.33,2.34,7.05,4.86,14.44,5.16,8.22,23.01,7.88,37.8,2.71,20.2-7.23,28.54-19.6,26.89-25.82-.64-2.44-3.24-9.87-3.89-12.44-7.1-4.52-66.7,13.17-65.66,21.11Z"/><path class="cls-23" d="M220.54,631.75c-23.42,9.2-27.98,21.12-25,28.51,3.44,8.56,18.15,14.1,39.12,6.77,19.74-6.9,28.34-20.31,26.09-28.93-2.23-8.54-20.12-14.25-40.21-6.36Z"/><path class="cls-19" d="M220.31,631.01c-23.42,9.2-27.98,21.12-25,28.51,3.44,8.56,18.15,14.1,39.12,6.77,19.74-6.9,28.34-20.31,26.09-28.93-2.23-8.54-20.12-14.25-40.21-6.36Z"/><path class="cls-22" d="M219.6,628.8c-23.42,9.2-27.98,21.12-25,28.51,3.44,8.56,18.15,14.1,39.12,6.77,19.74-6.9,28.34-20.31,26.09-28.93s-20.12-14.25-40.21-6.36Z"/><path class="cls-5" d="M221.58,632.45c-17.11,6.68-21.87,14.89-19.29,20.91,2.58,6.02,13.58,9.66,28.9,4.32,14.42-5.02,20.41-14.52,19.18-20.72-1.32-6.68-14.11-10.24-28.79-4.51Z"/><path class="cls-35" d="M222.54,635.57c-16.67,6.4-21.46,13.87-19.12,19.19s12.86,8.32,27.76,3.16c14.03-4.85,20.04-13.5,19.01-19.02-1.11-5.95-13.35-8.82-27.65-3.33Z"/><path class="cls-20" d="M224.18,636.5c-11.57,4.09-19.48,13.09-17.34,17.96,2.14,4.87,14.33,5.6,24.38,1.99,9.68-3.47,17.75-11.42,16.81-16.47-1.02-5.44-11.86-7.72-23.85-3.48Z"/></g><g><path class="cls-106" d="M173.74,722.22c.63,1.27,4.74,6.2,9.78,12.66,7.98,6.36,25.88-.32,39.05-10.72,17.94-14.38,22.17-29.67,18.41-35.27-1.47-2.21-6.6-8.68-8.12-11.01-8.69-1.99-62.84,36.8-59.11,44.34Z"/><path class="cls-23" d="M191.07,686.87c-20.52,17.48-21.09,30.98-15.59,37.29,6.37,7.31,23.07,7.61,41.75-7.15,17.58-13.88,21.73-30.3,16.55-38.09-5.13-7.71-25.11-7.05-42.71,7.94Z"/><path class="cls-19" d="M190.58,686.22c-20.52,17.48-21.09,30.98-15.59,37.29,6.37,7.31,23.07,7.61,41.75-7.15,17.58-13.88,21.73-30.3,16.55-38.09-5.13-7.71-25.11-7.05-42.71,7.94Z"/><path class="cls-22" d="M189.12,684.27c-20.52,17.48-21.09,30.98-15.59,37.29,6.37,7.31,23.07,7.61,41.75-7.15,17.58-13.88,21.73-30.3,16.55-38.09-5.13-7.71-25.11-7.05-42.71,7.94Z"/><path class="cls-5" d="M192.36,687.2c-15.01,12.73-17.04,22.6-12.4,27.68,4.63,5.08,16.96,4.81,30.61-5.95,12.85-10.13,15.69-21.71,12.35-27.46-3.59-6.19-17.69-5.19-30.56,5.73Z"/><path class="cls-35" d="M194.38,689.97c-14.65,12.3-16.97,21.44-12.81,25.91s15.78,3.72,29.07-6.71c12.51-9.82,15.66-20.56,12.75-25.7-3.13-5.53-16.45-4.05-29.02,6.5Z"/><path class="cls-20" d="M196.34,690.32c-10.29,8.18-15.23,19.96-11.43,24.05,3.8,4.09,16.35,.49,25.27-6.67,8.59-6.9,14.05-17.68,11.4-22.38-2.86-5.06-14.57-3.49-25.24,5Z"/></g><g><path class="cls-108" d="M323.24,754.82c-.77,1.55-2.93,9.15-5.94,18.8-1.46,12.32,13.08,24.08,28.46,28.57,21.13,5.96,36.25-1.66,39.16-9.45,1.15-3.06,4.13-12.79,5.36-15.99-2.61-9.67-62.46-31.16-67.04-21.93Z"/><path class="cls-23" d="M361.93,744.29c-25.05-6.04-36.83,3.68-39.48,13.62-3.07,11.53,4.94,27.45,26.76,33.83,20.53,6,36.57-2.55,40.64-13.33,4.03-10.67-6.42-28.95-27.91-34.13Z"/><path class="cls-19" d="M362.25,743.34c-25.05-6.04-36.83,3.68-39.48,13.62-3.07,11.53,4.94,27.45,26.76,33.83,20.53,6,36.57-2.55,40.64-13.33,4.03-10.67-6.42-28.95-27.91-34.13Z"/><path class="cls-14" d="M363.18,740.49c-25.05-6.04-36.83,3.68-39.48,13.62-3.07,11.53,4.94,27.45,26.76,33.83,20.53,6,36.57-2.55,40.64-13.33,4.03-10.67-6.42-28.95-27.91-34.13Z"/><path class="cls-4" d="M362.29,745.75c-18.28-4.45-27.69,1.13-29.72,9.34s4.3,19.59,20.23,24.26c14.98,4.4,26.26-1.72,29.5-9.21,3.49-8.07-4.33-20.56-20.01-24.38Z"/><path class="cls-35" d="M360.93,749.75c-17.73-4.45-26.66,.31-28.41,7.61s4.64,17.65,20.11,22.24c14.55,4.32,25.27-.88,28.2-7.51,3.16-7.14-4.7-18.53-19.9-22.34Z"/><path class="cls-15" d="M361.61,751.86c-12.07-3.46-24.54,.83-26.14,7.5s7.67,15.74,18.19,18.69,22.02-.2,24.71-6.26c2.89-6.53-4.24-16.34-16.75-19.93Z"/></g><g id="Capa_16"><g><path class="cls-99" d="M384.41,639.28c-.09,1.54,.81,8.52,1.73,17.47,3.13,10.6,19.16,15.12,33.33,13.4,19.39-2.54,29.09-14.08,28.74-21.48-.13-2.91-1.11-11.92-1.23-14.97-5.53-7-62.07-3.58-62.57,5.57Z"/><path class="cls-23" d="M412.39,617.08c-22.63,3.85-28.86,15.93-27.54,25.01,1.53,10.52,13.68,20.74,33.78,18.3,18.91-2.29,29.04-14.92,28.59-25.17s-15.42-21.44-34.83-18.14Z"/><path class="cls-19" d="M412.31,616.19c-22.63,3.85-28.86,15.93-27.54,25.01,1.53,10.52,13.68,20.74,33.78,18.3,18.91-2.29,29.04-14.92,28.59-25.17-.44-10.15-15.42-21.44-34.83-18.14Z"/><path class="cls-14" d="M412.08,613.53c-22.63,3.85-28.86,15.93-27.54,25.01,1.53,10.52,13.68,20.74,33.78,18.3,18.91-2.29,29.04-14.92,28.59-25.17-.44-10.15-15.42-21.44-34.83-18.14Z"/><path class="cls-4" d="M413.19,618.16c-16.52,2.77-22.27,10.64-21.05,18.07,1.22,7.43,10.4,14.52,25.07,12.76,13.81-1.66,20.89-10.62,20.92-17.9,.03-7.83-10.76-15.31-24.94-12.93Z"/><path class="cls-35" d="M413.48,621.9c-16.08,2.58-21.71,9.61-20.59,16.2s10,12.82,24.27,11.15c13.43-1.58,20.38-9.59,20.45-16.05,.08-6.95-10.35-13.52-24.14-11.3Z"/><path class="cls-15" d="M414.78,623.39c-11.09,1.4-19.8,9.29-18.77,15.32,1.03,6.03,11.81,10.19,21.45,8.92,9.29-1.23,17.96-7.89,18.03-13.8,.08-6.36-9.21-11.89-20.71-10.44Z"/></g></g><g id="Capa_16_copia_3"><g><path class="cls-81" d="M326.12,630.8c-.85,1.28-3.59,7.77-7.3,15.97-2.63,10.74,8.94,22.71,22.05,28.36,18.03,7.57,32.22,2.48,35.64-4.09,1.35-2.58,5.04-10.85,6.48-13.55-1.25-8.83-51.82-34.34-56.87-26.69Z"/><path class="cls-23" d="M361.47,625.7c-21.49-8.06-32.96-.76-36.39,7.74-3.97,9.86,1.38,24.81,19.97,32.82,17.49,7.54,32.6,1.72,37.37-7.36,4.73-8.99-2.53-26.29-20.96-33.21Z"/><path class="cls-19" d="M361.85,624.89c-21.49-8.06-32.96-.76-36.39,7.74-3.97,9.86,1.38,24.81,19.97,32.82,17.49,7.54,32.6,1.72,37.37-7.36,4.73-8.99-2.53-26.29-20.96-33.21Z"/><path class="cls-14" d="M362.99,622.48c-21.49-8.06-32.96-.76-36.39,7.74-3.97,9.86,1.38,24.81,19.97,32.82,17.49,7.54,32.6,1.72,37.37-7.36,4.73-8.99-2.53-26.29-20.96-33.21Z"/><path class="cls-4" d="M361.62,627.03c-15.67-5.92-24.6-2.02-27.29,5.02s1.67,17.78,15.24,23.65c12.77,5.52,23.4,1.34,27.08-4.93,3.97-6.75-1.59-18.65-15.04-23.73Z"/><path class="cls-35" d="M359.99,630.42c-15.19-5.86-23.6-2.63-25.94,3.64s2.18,16.11,15.36,21.85c12.4,5.4,22.43,1.97,25.75-3.57,3.57-5.97-2.13-16.89-15.16-21.92Z"/><path class="cls-15" d="M360.35,632.36c-10.29-4.38-21.79-1.94-23.93,3.79-2.14,5.73,5.07,14.75,14.05,18.5,8.64,3.62,19.49,2.22,22.52-2.84,3.27-5.45-1.97-14.91-12.64-19.44Z"/></g></g><g><path class="cls-110" d="M273.38,795.38c.5,1.72,4.23,9.01,8.74,18.45,7.66,10.35,27.6,8.74,43,1.06,21-10.71,27.53-27.34,24.26-35.31-1.28-3.14-5.88-12.62-7.19-15.91-8.99-5.42-71.79,21.47-68.81,31.72Z"/><path class="cls-23" d="M296.5,759.58c-24.17,13.48-26.55,29.28-21.54,38.69,5.81,10.9,23.56,17.14,45.41,6.25,20.56-10.25,27.14-28.25,22.66-39.3s-25.81-17.2-46.54-5.64Z"/><path class="cls-19" d="M296.07,758.64c-24.17,13.48-26.55,29.28-21.54,38.69,5.81,10.9,23.56,17.14,45.41,6.25,20.56-10.25,27.14-28.25,22.66-39.3-4.44-10.95-25.81-17.2-46.54-5.64Z"/><path class="cls-14" d="M294.77,755.82c-24.17,13.48-26.55,29.28-21.54,38.69,5.81,10.9,23.56,17.14,45.41,6.25,20.56-10.25,27.14-28.25,22.66-39.3-4.44-10.95-25.81-17.2-46.54-5.64Z"/><path class="cls-4" d="M297.83,760.43c-17.67,9.8-21.13,20.78-16.87,28.43,4.26,7.65,17.42,11.67,33.39,3.73,15.02-7.47,19.57-20.2,16.78-28.18-3.01-8.6-18.15-12.39-33.3-3.98Z"/><path class="cls-35" d="M299.61,764.42c-17.23,9.41-20.9,19.42-17.06,26.19,3.84,6.77,16.31,9.97,31.85,2.29,14.62-7.22,19.39-18.85,16.97-25.96-2.6-7.66-16.98-10.59-31.76-2.52Z"/><path class="cls-15" d="M301.66,765.53c-12.04,6.07-18.85,18.29-15.35,24.48,3.51,6.19,17.34,6.34,27.79,1,10.06-5.15,17.3-16,15.09-22.5-2.38-7-15.05-9.27-27.54-2.97Z"/></g><g id="Capa_16_copia_2"><g><path class="cls-100" d="M262.95,643.73c-.24,1.71,.08,9.61,.24,19.71,2.47,12.16,19.97,18.77,35.98,18.22,21.93-.96,33.9-12.93,34.23-21.24,.13-3.27-.08-13.44,.08-16.86-5.5-8.37-69.08-10.03-70.53,.16Z"/><path class="cls-23" d="M296.4,621.61c-25.68,2.11-33.83,15.02-33.23,25.3,.69,11.91,13.29,24.53,36.01,23.75,21.37-.73,33.93-13.88,34.42-25.38s-15.17-25.48-37.2-23.67Z"/><path class="cls-19" d="M296.4,620.61c-25.68,2.11-33.83,15.02-33.23,25.3,.69,11.91,13.29,24.53,36.01,23.75,21.37-.73,33.93-13.88,34.42-25.38s-15.17-25.48-37.2-23.67Z"/><path class="cls-14" d="M296.4,617.61c-25.68,2.11-33.83,15.02-33.23,25.3,.69,11.91,13.29,24.53,36.01,23.75,21.37-.73,33.93-13.88,34.42-25.38s-15.17-25.48-37.2-23.67Z"/><path class="cls-4" d="M297.19,622.89c-18.75,1.5-25.94,9.74-25.3,18.17s10.22,17.25,26.81,16.7c15.61-.52,24.4-9.86,25.13-17.99,.79-8.76-10.56-18.17-26.64-16.89Z"/><path class="cls-35" d="M297.16,627.11c-18.23,1.33-25.22,8.64-24.6,16.13s9.94,15.31,26.06,14.82c15.17-.46,23.72-8.75,24.43-15.96,.77-7.77-10.26-16.13-25.9-14.99Z"/><path class="cls-15" d="M298.46,628.9c-12.54,.49-23.05,8.47-22.48,15.31s12.22,12.54,23.13,12.05,20.85-7.09,21.5-13.68c.7-7.1-9.15-14.19-22.15-13.68Z"/></g></g></g></svg>