<?xml version="1.0" encoding="utf-8"?>
<!-- Generator: Adobe Illustrator 26.3.1, SVG Export Plug-In . SVG Version: 6.00 Build 0)  -->
<svg version="1.1" xmlns="http://www.w3.org/2000/svg" xmlns:xlink="http://www.w3.org/1999/xlink" x="0px" y="0px"
	 viewBox="0 0 16 16" style="enable-background:new 0 0 16 16;" xml:space="preserve">
<style type="text/css">
	.st0{display:none;}
	.st1{display:inline;}
	.st2{display:inline;fill:#073321;}
	.st3{fill:#1B7B55;}
	.st4{display:inline;fill:#1B7B55;}
	.st5{font-family:'OpenSans-Bold';}
	.st6{font-size:2px;}
</style>
<g id="Capa_1" class="st0">
	<path class="st1" d="M0.1,3.6C0.3,2.6,1.1,2,2,2h12c0.9,0,1.7,0.6,1.9,1.6L8,8.4L0.1,3.6z M0,4.7v7.1l5.8-3.6L0,4.7z M6.8,8.8
		l-6.6,4C0.5,13.6,1.2,14,2,14h12c0.8,0,1.5-0.4,1.8-1.1l-6.6-4L8,9.6L6.8,8.8L6.8,8.8z M10.2,8.2l5.8,3.6V4.7L10.2,8.2L10.2,8.2z"
		/>
</g>
<g id="Capa_1_copia" class="st0">
	<path class="st2" d="M0.1,3.6C0.3,2.7,1.1,2,2,2H14c0.9,0,1.7,0.6,1.9,1.5L8,8.4L0.1,3.6z M0,4.7v7.1l5.8-3.5L0,4.7z M6.8,8.9
		l-6.5,4C0.6,13.6,1.3,14,2,14H14c0.8,0,1.5-0.4,1.8-1.1l-6.5-4L8,9.6L6.8,8.9L6.8,8.9z M10.2,8.3l5.8,3.5V4.7L10.2,8.3L10.2,8.3z"
		/>
</g>
<g id="Capa_1_copia_2">
	<path class="st3" d="M0.1,3.6C0.3,2.7,1.1,2,2,2H14c0.9,0,1.7,0.6,1.9,1.5L8,8.4L0.1,3.6z M0,4.7v7.1l5.8-3.5L0,4.7z M6.8,8.9
		l-6.5,4C0.6,13.6,1.3,14,2,14H14c0.8,0,1.5-0.4,1.8-1.1l-6.5-4L8,9.6L6.8,8.9L6.8,8.9z M10.2,8.3l5.8,3.5V4.7L10.2,8.3L10.2,8.3z"
		/>
</g>
<g id="Capa_4" class="st0">
	<text transform="matrix(1 0 0 1 1.7439 15.6989)" class="st4 st5 st6">Unsubscribe</text>
</g>
</svg>
