<?xml version="1.0" encoding="UTF-8"?><svg xmlns="http://www.w3.org/2000/svg" xmlns:xlink="http://www.w3.org/1999/xlink" viewBox="0 0 620 300"><defs><style>.cls-1{fill:#1d1e1e;opacity:.05;}.cls-2{fill:url(#Degradado_sin_nombre_217);stroke:#8c0d2a;}.cls-2,.cls-3,.cls-4,.cls-5,.cls-6,.cls-7,.cls-8,.cls-9,.cls-10,.cls-11,.cls-12,.cls-13,.cls-14,.cls-15,.cls-16,.cls-17,.cls-18,.cls-19,.cls-20,.cls-21,.cls-22{stroke-miterlimit:10;}.cls-2,.cls-19{stroke-linecap:round;stroke-width:.5px;}.cls-23{fill:url(#radial-gradient-2);}.cls-23,.cls-24,.cls-25,.cls-26,.cls-27,.cls-28,.cls-29,.cls-30,.cls-31,.cls-32,.cls-33{mix-blend-mode:multiply;}.cls-24{fill:url(#radial-gradient-5);}.cls-25{fill:url(#radial-gradient-6);}.cls-26{fill:url(#radial-gradient-7);}.cls-27{fill:url(#radial-gradient-3);}.cls-28{fill:url(#radial-gradient-9);}.cls-29{fill:url(#radial-gradient-8);}.cls-34{fill:url(#linear-gradient);}.cls-35{clip-path:url(#clippath);}.cls-36{opacity:.08;}.cls-37{font-size:33.84px;}.cls-37,.cls-38,.cls-39,.cls-40{font-family:OpenSans-Extrabold, 'Open Sans';font-weight:700;}.cls-37,.cls-41{fill:#981e3f;}.cls-42{opacity:.1;}.cls-43{mask:url(#mask);}.cls-44{opacity:.24;}.cls-44,.cls-45,.cls-46,.cls-47,.cls-48,.cls-49{mix-blend-mode:overlay;}.cls-38{font-size:24.6px;}.cls-38,.cls-50,.cls-9,.cls-14{fill:#2e4d92;}.cls-51{filter:url(#luminosity-invert);}.cls-52{fill:#f8dc14;}.cls-53,.cls-45,.cls-48,.cls-49,.cls-54{fill:#fff;}.cls-55{fill:#ffff6e;}.cls-56{fill:#ed1c24;}.cls-57{fill:#ffc6be;}.cls-58{fill:#fd687e;}.cls-59{fill:#efb428;}.cls-60{fill:#fdfdfd;}.cls-61{fill:#911e33;}.cls-62{fill:#666464;}.cls-63{fill:#900b2c;}.cls-64{fill:#be305d;}.cls-65{fill:#c0bdbd;}.cls-66{fill:#bf2427;}.cls-67{fill:#c48485;}.cls-68,.cls-7,.cls-8,.cls-18{fill:#a8a5a5;}.cls-69{fill:#1f191a;}.cls-70{fill:#2347fe;}.cls-71,.cls-39{fill:#197c3d;}.cls-72,.cls-10{fill:#888586;}.cls-73{fill:#8a112f;}.cls-74{fill:#594f81;}.cls-75,.cls-13,.cls-20{fill:#483329;}.cls-76{fill:#3960b5;}.cls-77,.cls-40{fill:#393076;}.cls-78{fill:#37b26c;}.cls-79{fill:#851130;}.cls-80{fill:#770707;}.cls-81{fill:#616060;}.cls-82{fill:rgba(23,21,51,.3);}.cls-83{fill:rgba(81,16,36,.3);}.cls-3{stroke:#981e3f;stroke-width:12.51px;}.cls-3,.cls-4,.cls-5,.cls-6,.cls-11,.cls-12,.cls-15,.cls-16,.cls-17,.cls-21,.cls-22{fill:none;}.cls-4{stroke:#2e4d92;stroke-width:7.56px;}.cls-45{opacity:.12;}.cls-84{fill:url(#radial-gradient-4);}.cls-84,.cls-85{mix-blend-mode:screen;}.cls-5{stroke:#197c3d;stroke-width:5.2px;}.cls-86{fill:url(#Degradado_sin_nombre_462);}.cls-87{fill:url(#Degradado_sin_nombre_499);}.cls-88{fill:url(#Degradado_sin_nombre_523);}.cls-89{fill:url(#Degradado_sin_nombre_115);}.cls-90{fill:url(#Degradado_sin_nombre_137);}.cls-91{fill:url(#Degradado_sin_nombre_101);}.cls-92{fill:url(#Degradado_sin_nombre_232);}.cls-93{fill:url(#Degradado_sin_nombre_245);}.cls-94{fill:url(#Degradado_sin_nombre_210);}.cls-95{fill:url(#Degradado_sin_nombre_274);}.cls-96{fill:url(#Degradado_sin_nombre_271);}.cls-97{fill:url(#Degradado_sin_nombre_262);}.cls-98{fill:url(#Degradado_sin_nombre_377);}.cls-99{fill:url(#Degradado_sin_nombre_310);}.cls-39{font-size:15.58px;}.cls-100{clip-path:url(#clippath-1);}.cls-6{stroke-width:1.48px;}.cls-6,.cls-17,.cls-21,.cls-22{stroke:#fdfdfd;}.cls-7,.cls-8,.cls-9,.cls-10,.cls-14,.cls-15,.cls-16,.cls-17{stroke-width:2.16px;}.cls-7,.cls-10,.cls-13,.cls-15,.cls-18,.cls-20{stroke:#1f191a;}.cls-8,.cls-9,.cls-12,.cls-14,.cls-16{stroke:#050000;}.cls-31{fill:url(#linear-gradient-25);opacity:.36;}.cls-101{fill:#061e0e;opacity:.2;}.cls-11{stroke:#393076;stroke-width:8.42px;}.cls-102{fill:url(#Degradado_sin_nombre_499-2);}.cls-102,.cls-103,.cls-104,.cls-105,.cls-106{opacity:.8;}.cls-103{fill:url(#Degradado_sin_nombre_314-3);}.cls-104{fill:url(#Degradado_sin_nombre_314-2);}.cls-12{stroke-width:2.06px;}.cls-107{fill:url(#linear-gradient-8);}.cls-108{fill:url(#linear-gradient-9);}.cls-109{fill:url(#linear-gradient-3);}.cls-110{fill:url(#linear-gradient-4);}.cls-111{fill:url(#linear-gradient-2);}.cls-112{fill:url(#linear-gradient-6);}.cls-113{fill:url(#linear-gradient-5);}.cls-114{fill:url(#Degradado_sin_nombre_87);}.cls-115{fill:url(#Degradado_sin_nombre_96);}.cls-116{fill:url(#Degradado_sin_nombre_78);}.cls-13{stroke-width:1.62px;}.cls-117{opacity:.16;}.cls-14{filter:url(#drop-shadow-1);}.cls-118{opacity:.33;}.cls-32{fill:url(#radial-gradient);}.cls-119,.cls-49{opacity:.31;}.cls-120{opacity:.26;}.cls-121{opacity:.39;}.cls-122{opacity:.59;}.cls-123{fill:url(#Degradado_sin_nombre_217-2);}.cls-124{fill:url(#Degradado_sin_nombre_245-2);}.cls-125{fill:url(#Degradado_sin_nombre_377-3);}.cls-126{fill:url(#Degradado_sin_nombre_377-2);}.cls-127{fill:url(#Degradado_sin_nombre_462-2);}.cls-18{stroke-width:1.5px;}.cls-19{stroke:#000;}.cls-40{font-size:28.52px;}.cls-128{fill:url(#linear-gradient-14);}.cls-129{fill:url(#linear-gradient-18);}.cls-130{fill:url(#linear-gradient-22);}.cls-131{fill:url(#linear-gradient-20);}.cls-132{fill:url(#linear-gradient-21);}.cls-133{fill:url(#linear-gradient-23);}.cls-134{fill:url(#linear-gradient-15);}.cls-135{fill:url(#linear-gradient-19);}.cls-136{fill:url(#linear-gradient-16);}.cls-137{fill:url(#linear-gradient-17);}.cls-138{fill:url(#linear-gradient-13);}.cls-139{fill:url(#linear-gradient-12);}.cls-140{fill:url(#linear-gradient-10);}.cls-141{fill:url(#linear-gradient-11);}.cls-142{fill:url(#linear-gradient-27);}.cls-143{fill:url(#linear-gradient-26);}.cls-144{fill:url(#linear-gradient-28);}.cls-145{fill:url(#linear-gradient-29);}.cls-20{stroke-width:1.08px;}.cls-146{isolation:isolate;}.cls-47{opacity:.07;}.cls-21{stroke-width:3.57px;}.cls-33{fill:url(#linear-gradient-24);}.cls-85{fill:url(#Degradado_sin_nombre_130);}.cls-147{fill:url(#linear-gradient-7);opacity:.52;}.cls-148{mask:url(#mask-2);}.cls-149{mask:url(#mask-1);}.cls-48{opacity:.4;}.cls-22{stroke-width:2.4px;}.cls-150{fill:#1b2f54;opacity:.5;}.cls-54{opacity:.23;}.cls-106{fill:url(#Degradado_sin_nombre_314);}</style><filter id="drop-shadow-1" filterUnits="userSpaceOnUse"><feOffset dx="1.08" dy="2.16"/><feGaussianBlur result="blur" stdDeviation="0"/><feFlood flood-color="#000" flood-opacity=".25"/><feComposite in2="blur" operator="in"/><feComposite in="SourceGraphic"/></filter><radialGradient id="radial-gradient" cx="250.26" cy="-1220.75" fx="250.26" fy="-1220.75" r="96.53" gradientTransform="translate(0 717.25) scale(1 .37)" gradientUnits="userSpaceOnUse"><stop offset="0" stop-color="#000"/><stop offset=".01" stop-color="#060606"/><stop offset=".15" stop-color="#474747"/><stop offset=".29" stop-color="#7f7f7f"/><stop offset=".42" stop-color="#adadad"/><stop offset=".55" stop-color="#d0d0d0"/><stop offset=".66" stop-color="#eaeaea"/><stop offset=".77" stop-color="#f9f9f9"/><stop offset=".85" stop-color="#fff"/><stop offset="1" stop-color="#fff"/></radialGradient><radialGradient id="radial-gradient-2" cx="244.38" cy="-1217.86" fx="244.38" fy="-1217.86" r="96.53" xlink:href="#radial-gradient"/><radialGradient id="radial-gradient-3" cx="248.25" cy="-1209.73" fx="248.25" fy="-1209.73" r="55.32" xlink:href="#radial-gradient"/><linearGradient id="linear-gradient" x1="231.36" y1="246.61" x2="264.46" y2="246.61" gradientTransform="matrix(1, 0, 0, 1, 0, 0)" gradientUnits="userSpaceOnUse"><stop offset="0" stop-color="#8c5e3b"/><stop offset="1" stop-color="#3e0842"/></linearGradient><linearGradient id="linear-gradient-2" x1="133.89" y1="252.27" x2="246.08" y2="252.27" gradientTransform="matrix(1, 0, 0, 1, 0, 0)" gradientUnits="userSpaceOnUse"><stop offset="0" stop-color="#900044"/><stop offset=".12" stop-color="#a80d2d"/><stop offset=".27" stop-color="#c31b14"/><stop offset=".41" stop-color="#d42405"/><stop offset=".52" stop-color="#da2800"/><stop offset=".67" stop-color="#ae171a"/><stop offset=".81" stop-color="#8c0a2e"/><stop offset=".92" stop-color="#77023b"/><stop offset="1" stop-color="#700040"/></linearGradient><linearGradient id="Degradado_sin_nombre_78" x1="133.89" y1="252.27" x2="246.08" y2="252.27" gradientTransform="matrix(1, 0, 0, 1, 0, 0)" gradientUnits="userSpaceOnUse"><stop offset="0" stop-color="#900044"/><stop offset=".12" stop-color="#a80a47"/><stop offset=".27" stop-color="#c3154a"/><stop offset=".41" stop-color="#d41c4c"/><stop offset=".52" stop-color="#da1f4d"/><stop offset=".67" stop-color="#ae1247"/><stop offset=".81" stop-color="#8c0843"/><stop offset=".92" stop-color="#770240"/><stop offset="1" stop-color="#700040"/></linearGradient><linearGradient id="Degradado_sin_nombre_137" x1="133.16" y1="239.49" x2="238.22" y2="239.49" gradientTransform="matrix(1, 0, 0, 1, 0, 0)" gradientUnits="userSpaceOnUse"><stop offset="0" stop-color="#ff5452"/><stop offset="1" stop-color="#90173a"/></linearGradient><clipPath id="clippath"><path class="cls-48" d="M187.9,261.02c11.32-4.02,50.32-27.93,50.32-27.93l-8.95-2.46-1.15-.1-43.06,23.87c-23.64,9.65-35.73,4.74-41.44-.22-5.33-4.63-5.66-12.94-.4-17.65,.6-.53,1.01-.8,1.01-.8l30.76-20.04-7.06-1.94-27.49,18.84c-2.46,1.68-4.54,3.91-5.77,6.61-1.83,4-3.11,10.93,3.14,17.6,11.35,12.13,36.68,8.99,50.1,4.22Z"/></clipPath><radialGradient id="radial-gradient-4" cx="196.32" cy="-87.16" fx="196.32" fy="-87.16" r="73.77" gradientTransform="translate(-75.16 326.48) scale(1.2 .74)" gradientUnits="userSpaceOnUse"><stop offset="0" stop-color="#ffbc00"/><stop offset=".01" stop-color="#f8b700"/><stop offset=".13" stop-color="#bf8c00"/><stop offset=".25" stop-color="#8c6700"/><stop offset=".37" stop-color="#614700"/><stop offset=".49" stop-color="#3d2d00"/><stop offset=".62" stop-color="#221900"/><stop offset=".74" stop-color="#0f0b00"/><stop offset=".87" stop-color="#030200"/><stop offset="1" stop-color="#000"/></radialGradient><radialGradient id="radial-gradient-5" cx="-194.84" cy="-1445.9" fx="-194.84" fy="-1445.9" r="54.8" gradientTransform="translate(378.79 649.71) scale(1 .29)" xlink:href="#radial-gradient"/><radialGradient id="radial-gradient-6" cx="-194.97" cy="-1466.23" fx="-194.97" fy="-1466.23" r="54.8" gradientTransform="translate(377.49 649.89) scale(1 .29)" xlink:href="#radial-gradient"/><radialGradient id="radial-gradient-7" cx="-153.31" cy="-1449.01" fx="-153.31" fy="-1449.01" r="54.8" gradientTransform="translate(377.54 640.43) scale(1 .29)" xlink:href="#radial-gradient"/><linearGradient id="Degradado_sin_nombre_115" x1="210.6" y1="136.06" x2="201.38" y2="228.85" gradientTransform="matrix(1, 0, 0, 1, 0, 0)" gradientUnits="userSpaceOnUse"><stop offset="0" stop-color="#d43f63"/><stop offset="1" stop-color="#9b193d"/></linearGradient><clipPath id="clippath-1"><path class="cls-89" d="M176.27,215.15v-55.08s-1.48-34.85,34.95-27.54c34.85,6.99,25,54.5,25,54.5l-8.1,43.49,10.01,2.63,8.47-44.49s11.44-55.29-33.26-64.19c-44.7-8.9-46.6,26.27-46.6,40.67v48.25l9.53,1.75Z"/></clipPath><radialGradient id="Degradado_sin_nombre_130" cx="886.07" cy="-3693.62" fx="886.07" fy="-3693.62" r="91.76" gradientTransform="translate(1294.57 -2562.59) rotate(-180) scale(1.2 .74)" gradientUnits="userSpaceOnUse"><stop offset="0" stop-color="#ffb01d"/><stop offset=".01" stop-color="#f8ab1c"/><stop offset=".13" stop-color="#bf8315"/><stop offset=".25" stop-color="#8c600f"/><stop offset=".37" stop-color="#61430b"/><stop offset=".49" stop-color="#3d2a07"/><stop offset=".62" stop-color="#221803"/><stop offset=".74" stop-color="#0f0a01"/><stop offset=".87" stop-color="#030200"/><stop offset="1" stop-color="#000"/></radialGradient><linearGradient id="Degradado_sin_nombre_101" x1="176.26" y1="180.99" x2="237.5" y2="180.99" gradientTransform="matrix(1, 0, 0, 1, 0, 0)" gradientUnits="userSpaceOnUse"><stop offset="0" stop-color="#c02e5b"/><stop offset=".21" stop-color="#971f3d"/><stop offset=".45" stop-color="#711123"/><stop offset=".66" stop-color="#56080f"/><stop offset=".85" stop-color="#450204"/><stop offset="1" stop-color="#400000"/></linearGradient><linearGradient id="linear-gradient-3" x1="139.44" y1="236.9" x2="178.13" y2="236.9" gradientTransform="matrix(1, 0, 0, 1, 0, 0)" gradientUnits="userSpaceOnUse"><stop offset="0" stop-color="#da2800"/><stop offset=".31" stop-color="#ae171a"/><stop offset=".6" stop-color="#8c0a2e"/><stop offset=".84" stop-color="#77023b"/><stop offset="1" stop-color="#700040"/></linearGradient><linearGradient id="linear-gradient-4" x1="210.18" y1="132.16" x2="213.15" y2="229.16" xlink:href="#linear-gradient-2"/><linearGradient id="Degradado_sin_nombre_96" x1="263.77" y1="130.52" x2="266.74" y2="227.55" gradientTransform="matrix(1, 0, 0, 1, 0, 0)" gradientUnits="userSpaceOnUse"><stop offset="0" stop-color="#900044"/><stop offset=".04" stop-color="#9d0c4b"/><stop offset=".16" stop-color="#c32e5f"/><stop offset=".27" stop-color="#de476d"/><stop offset=".37" stop-color="#ef5675"/><stop offset=".44" stop-color="#f55c79"/><stop offset=".53" stop-color="#cd4365"/><stop offset=".63" stop-color="#a52b51"/><stop offset=".73" stop-color="#861842"/><stop offset=".83" stop-color="#700a36"/><stop offset=".92" stop-color="#620230"/><stop offset="1" stop-color="#5e002e"/></linearGradient><linearGradient id="linear-gradient-5" x1="165.53" y1="192.99" x2="226.33" y2="197.23" gradientTransform="matrix(1, 0, 0, 1, 0, 0)" gradientUnits="userSpaceOnUse"><stop offset="0" stop-color="#f7fdff"/><stop offset=".22" stop-color="#f1f8fb"/><stop offset=".48" stop-color="#e3e9f0"/><stop offset=".77" stop-color="#cbd2de"/><stop offset="1" stop-color="#b2bacc"/></linearGradient><linearGradient id="linear-gradient-6" x1="160.49" y1="161.52" x2="243.32" y2="178.26" xlink:href="#linear-gradient-5"/><linearGradient id="linear-gradient-7" x1="161.92" y1="171.86" x2="241.05" y2="187.85" gradientTransform="matrix(1, 0, 0, 1, 0, 0)" gradientUnits="userSpaceOnUse"><stop offset="0" stop-color="#fff"/><stop offset="1" stop-color="#fff"/></linearGradient><linearGradient id="linear-gradient-8" x1="146.71" y1="180.63" x2="226.78" y2="202.24" gradientTransform="matrix(1, 0, 0, 1, 0, 0)" gradientUnits="userSpaceOnUse"><stop offset="0" stop-color="#00a8ff"/><stop offset="1" stop-color="#0046ff"/></linearGradient><linearGradient id="linear-gradient-9" x1="141.55" y1="199.76" x2="221.62" y2="221.36" xlink:href="#linear-gradient-8"/><linearGradient id="linear-gradient-10" x1="136.39" y1="218.89" x2="216.46" y2="240.49" xlink:href="#linear-gradient-8"/><linearGradient id="linear-gradient-11" x1="154.64" y1="151.24" x2="234.71" y2="172.85" xlink:href="#linear-gradient-8"/><linearGradient id="linear-gradient-12" x1="150.82" y1="165.39" x2="230.9" y2="187" xlink:href="#linear-gradient-8"/><linearGradient id="linear-gradient-13" x1="158.46" y1="137.1" x2="238.53" y2="158.71" xlink:href="#linear-gradient-8"/><linearGradient id="linear-gradient-14" x1="135.73" y1="221.3" x2="215.81" y2="242.91" xlink:href="#linear-gradient-8"/><linearGradient id="linear-gradient-15" x1="140.01" y1="205.46" x2="220.08" y2="227.07" xlink:href="#linear-gradient-8"/><linearGradient id="linear-gradient-16" x1="148.9" y1="186.95" x2="238.72" y2="170.21" gradientTransform="matrix(1, 0, 0, 1, 0, 0)" gradientUnits="userSpaceOnUse"><stop offset="0" stop-color="#ff3e00"/><stop offset="1" stop-color="#aa144c"/></linearGradient><linearGradient id="linear-gradient-17" x1="153.06" y1="209.28" x2="242.88" y2="192.55" xlink:href="#linear-gradient-16"/><linearGradient id="linear-gradient-18" x1="157.22" y1="231.62" x2="247.04" y2="214.88" xlink:href="#linear-gradient-16"/><linearGradient id="linear-gradient-19" x1="145.4" y1="168.19" x2="235.22" y2="151.45" xlink:href="#linear-gradient-16"/><linearGradient id="linear-gradient-20" x1="145.6" y1="169.21" x2="235.42" y2="152.48" xlink:href="#linear-gradient-16"/><linearGradient id="linear-gradient-21" x1="145.28" y1="167.53" x2="235.1" y2="150.8" xlink:href="#linear-gradient-16"/><linearGradient id="linear-gradient-22" x1="158.73" y1="239.71" x2="248.55" y2="222.98" xlink:href="#linear-gradient-16"/><linearGradient id="linear-gradient-23" x1="158.37" y1="237.75" x2="248.19" y2="221.02" xlink:href="#linear-gradient-16"/><linearGradient id="linear-gradient-24" x1="274.54" y1="197.11" x2="181.96" y2="178.47" gradientTransform="matrix(1, 0, 0, 1, 0, 0)" gradientUnits="userSpaceOnUse"><stop offset="0" stop-color="#000"/><stop offset=".85" stop-color="#fff"/><stop offset="1" stop-color="#fff"/></linearGradient><linearGradient id="linear-gradient-25" x1="255.81" y1="218.79" x2="286.57" y2="150.82" xlink:href="#linear-gradient-24"/><linearGradient id="Degradado_sin_nombre_87" x1="261.64" y1="194.03" x2="256.07" y2="210.76" gradientTransform="matrix(1, 0, 0, 1, 0, 0)" gradientUnits="userSpaceOnUse"><stop offset="0" stop-color="#6b6b6b"/><stop offset=".22" stop-color="#6c6c6c"/><stop offset=".3" stop-color="#737373"/><stop offset=".35" stop-color="#7f7f7f"/><stop offset=".4" stop-color="#909090"/><stop offset=".44" stop-color="#a6a6a6"/><stop offset=".47" stop-color="#c1c1c1"/><stop offset=".5" stop-color="#e1e1e1"/><stop offset=".52" stop-color="#fff"/><stop offset=".67" stop-color="#fdfdfd"/><stop offset=".72" stop-color="#f6f6f6"/><stop offset=".76" stop-color="#eaeaea"/><stop offset=".79" stop-color="#d9d9d9"/><stop offset=".82" stop-color="#c3c3c3"/><stop offset=".84" stop-color="#a8a8a8"/><stop offset=".86" stop-color="#888"/><stop offset=".87" stop-color="gray"/></linearGradient><linearGradient id="linear-gradient-26" x1="263.09" y1="183.85" x2="263.09" y2="207.95" gradientTransform="translate(382.67 -106.59) rotate(73.2)" gradientUnits="userSpaceOnUse"><stop offset="0" stop-color="#b2b2b2"/><stop offset="1" stop-color="#fff"/></linearGradient><linearGradient id="linear-gradient-27" x1="296.35" y1="170.57" x2="265.05" y2="144.62" gradientTransform="matrix(1, 0, 0, 1, 0, 0)" gradientUnits="userSpaceOnUse"><stop offset="0" stop-color="#8a8a8a"/><stop offset="1" stop-color="#707070"/></linearGradient><linearGradient id="linear-gradient-28" x1="297.39" y1="169.01" x2="266.67" y2="143.54" gradientTransform="matrix(1, 0, 0, 1, 0, 0)" gradientUnits="userSpaceOnUse"><stop offset="0" stop-color="#e3e3e3"/><stop offset="1" stop-color="#fff"/></linearGradient><linearGradient id="linear-gradient-29" x1="269.39" y1="169.34" x2="266.7" y2="168.84" gradientTransform="matrix(1, 0, 0, 1, 0, 0)" gradientUnits="userSpaceOnUse"><stop offset="0" stop-color="#858585"/><stop offset="1" stop-color="#fff"/></linearGradient><radialGradient id="radial-gradient-8" cx="251.62" cy="-1211.39" fx="251.62" fy="-1211.39" r="55.32" xlink:href="#radial-gradient"/><radialGradient id="radial-gradient-9" cx="248.25" cy="-1209.73" fx="248.25" fy="-1209.73" r="55.32" xlink:href="#radial-gradient"/><radialGradient id="Degradado_sin_nombre_210" cx="311.05" cy="240.61" fx="311.05" fy="240.61" r="56.9" gradientTransform="matrix(1, 0, 0, 1, 0, 0)" gradientUnits="userSpaceOnUse"><stop offset=".14" stop-color="#f55c79"/><stop offset=".39" stop-color="#c63b5e"/><stop offset=".59" stop-color="#a6244b"/><stop offset=".7" stop-color="#9a1c45"/></radialGradient><linearGradient id="Degradado_sin_nombre_232" x1="254.66" y1="245.79" x2="324.45" y2="245.79" gradientTransform="matrix(1, 0, 0, 1, 0, 0)" gradientUnits="userSpaceOnUse"><stop offset=".34" stop-color="#6b071a"/><stop offset=".57" stop-color="#891435"/><stop offset=".69" stop-color="#9a1c45"/><stop offset=".78" stop-color="#951940"/><stop offset=".88" stop-color="#871232"/><stop offset=".99" stop-color="#71071c"/><stop offset="1" stop-color="#6f061a"/></linearGradient><linearGradient id="Degradado_sin_nombre_245" x1="254.03" y1="245.39" x2="325.5" y2="245.39" gradientTransform="matrix(1, 0, 0, 1, 0, 0)" gradientUnits="userSpaceOnUse"><stop offset=".34" stop-color="#4c0008"/><stop offset=".63" stop-color="#6a0112"/><stop offset=".69" stop-color="#700214"/><stop offset=".88" stop-color="#6b0215"/><stop offset="1" stop-color="#650318"/></linearGradient><linearGradient id="Degradado_sin_nombre_245-2" x1="254.51" y1="243.95" x2="324.45" y2="243.95" xlink:href="#Degradado_sin_nombre_245"/><linearGradient id="Degradado_sin_nombre_217" x1="276.65" y1="265.61" x2="342.13" y2="220.65" gradientTransform="matrix(1, 0, 0, 1, 0, 0)" gradientUnits="userSpaceOnUse"><stop offset=".02" stop-color="#9a1c45"/><stop offset=".14" stop-color="#9e1f47"/><stop offset=".26" stop-color="#ac284f"/><stop offset=".4" stop-color="#c2385c"/><stop offset=".53" stop-color="#e14e6e"/><stop offset=".6" stop-color="#f55c79"/><stop offset=".78" stop-color="#c63b5e"/><stop offset=".92" stop-color="#a6244b"/><stop offset="1" stop-color="#9a1c45"/></linearGradient><linearGradient id="Degradado_sin_nombre_217-2" x1="278.03" y1="267.16" x2="343.86" y2="221.96" xlink:href="#Degradado_sin_nombre_217"/><linearGradient id="Degradado_sin_nombre_377" x1="291.04" y1="243.37" x2="302.57" y2="223.39" gradientTransform="translate(41.27 -48.37) rotate(9.62)" gradientUnits="userSpaceOnUse"><stop offset=".54" stop-color="#fc6403"/><stop offset=".61" stop-color="#fc7102"/><stop offset=".75" stop-color="#fd9501"/><stop offset=".88" stop-color="#ffc100"/></linearGradient><linearGradient id="Degradado_sin_nombre_462" x1="288.62" y1="228.84" x2="310.63" y2="216.14" gradientTransform="translate(41.27 -48.37) rotate(9.62)" gradientUnits="userSpaceOnUse"><stop offset="0" stop-color="#ffde36"/><stop offset=".52" stop-color="#fc9a10"/><stop offset=".65" stop-color="#fca717"/><stop offset=".89" stop-color="#fecb2b"/><stop offset="1" stop-color="#ffde36"/></linearGradient><linearGradient id="Degradado_sin_nombre_314" x1="294.79" y1="230.65" x2="304.27" y2="218.07" gradientTransform="translate(47.07 -104.27) rotate(14.57) scale(.95 1.14) skewX(10.79)" gradientUnits="userSpaceOnUse"><stop offset=".54" stop-color="#fc9603"/><stop offset=".68" stop-color="#fca302"/><stop offset=".88" stop-color="#ffc100"/></linearGradient><linearGradient id="Degradado_sin_nombre_377-2" x1="266.11" y1="248.33" x2="278.18" y2="227.42" gradientTransform="translate(-30.62 43.67) rotate(-8.21)" xlink:href="#Degradado_sin_nombre_377"/><linearGradient id="Degradado_sin_nombre_462-2" x1="263.94" y1="233.26" x2="286.67" y2="220.14" gradientTransform="translate(-30.62 43.67) rotate(-8.21)" xlink:href="#Degradado_sin_nombre_462"/><linearGradient id="Degradado_sin_nombre_314-2" x1="268.23" y1="236.63" x2="278.12" y2="223.5" gradientTransform="translate(-42.22 -11.33) rotate(-3.27) scale(.95 1.14) skewX(10.79)" xlink:href="#Degradado_sin_nombre_314"/><linearGradient id="Degradado_sin_nombre_523" x1="279.61" y1="242.25" x2="309.28" y2="231.3" gradientTransform="translate(-30.62 43.67) rotate(-8.21)" gradientUnits="userSpaceOnUse"><stop offset="0" stop-color="#593e72"/><stop offset="0" stop-color="#593f74"/><stop offset=".14" stop-color="#5f5f99"/><stop offset=".21" stop-color="#626ba8"/><stop offset=".23" stop-color="#6a73ac"/><stop offset=".34" stop-color="#949bc5"/><stop offset=".45" stop-color="#b6bcda"/><stop offset=".56" stop-color="#d1d6ea"/><stop offset=".68" stop-color="#e4e8f5"/><stop offset=".8" stop-color="#f0f3fc"/><stop offset=".92" stop-color="#f4f7ff"/></linearGradient><linearGradient id="Degradado_sin_nombre_499" x1="285.49" y1="236.09" x2="294.56" y2="225.89" gradientTransform="translate(-30.62 43.67) rotate(-8.21)" gradientUnits="userSpaceOnUse"><stop offset=".07" stop-color="#b7aac8"/><stop offset=".33" stop-color="#c2b7d2"/><stop offset=".82" stop-color="#dfdbef"/></linearGradient><linearGradient id="Degradado_sin_nombre_499-2" x1="301.12" y1="230.48" x2="281.57" y2="230.48" xlink:href="#Degradado_sin_nombre_499"/><linearGradient id="Degradado_sin_nombre_377-3" x1="291.62" y1="248.73" x2="266.62" y2="248.73" gradientTransform="matrix(1, 0, 0, 1, 0, 0)" xlink:href="#Degradado_sin_nombre_377"/><linearGradient id="Degradado_sin_nombre_310" x1="282.16" y1="245.1" x2="257.57" y2="245.1" gradientTransform="matrix(1, 0, 0, 1, 0, 0)" gradientUnits="userSpaceOnUse"><stop offset=".07" stop-color="#fc9603"/><stop offset=".26" stop-color="#fca30c"/><stop offset=".62" stop-color="#fec725"/><stop offset=".82" stop-color="#ffde36"/></linearGradient><linearGradient id="Degradado_sin_nombre_314-3" x1="284.54" y1="245.17" x2="267.19" y2="245.17" gradientTransform="matrix(1, 0, 0, 1, 0, 0)" xlink:href="#Degradado_sin_nombre_314"/><linearGradient id="Degradado_sin_nombre_262" x1="276.09" y1="272.25" x2="294.54" y2="261.59" gradientTransform="matrix(1, 0, 0, 1, 0, 0)" gradientUnits="userSpaceOnUse"><stop offset=".04" stop-color="#5a0a0c"/><stop offset=".33" stop-color="#9a3434"/><stop offset=".46" stop-color="#b45247"/><stop offset=".63" stop-color="#df8265"/><stop offset=".83" stop-color="#ea8f6e"/><stop offset="1" stop-color="#f8a07b"/></linearGradient><filter id="luminosity-invert" color-interpolation-filters="sRGB" filterUnits="userSpaceOnUse"><feColorMatrix values="-1 0 0 0 1 0 -1 0 0 1 0 0 -1 0 1 0 0 0 1 0"/></filter><mask id="mask" x="270.5" y="258" width="26" height="17" maskUnits="userSpaceOnUse"><g class="cls-51"><image width="26" height="17" transform="translate(270.5 258)" xlink:href="Mesa de trabajo 15.png"/></g></mask><linearGradient id="Degradado_sin_nombre_271" x1="307.72" y1="252.54" x2="325.27" y2="242.41" gradientTransform="translate(-78.44 171.2) rotate(-27.28)" gradientUnits="userSpaceOnUse"><stop offset="0" stop-color="#9a3434"/><stop offset=".21" stop-color="#b45247"/><stop offset=".5" stop-color="#df8265"/><stop offset=".66" stop-color="#ea8f6e"/><stop offset=".81" stop-color="#f8a07b"/></linearGradient><mask id="mask-1" x="303.5" y="235" width="23" height="22" maskUnits="userSpaceOnUse"><g class="cls-51"><image width="23" height="22" transform="translate(303.5 235)" xlink:href="Mesa de trabajo 16.png"/></g></mask><linearGradient id="Degradado_sin_nombre_274" x1="342.09" y1="229.71" x2="337.38" y2="238.84" gradientTransform="translate(-78.44 171.2) rotate(-27.28)" gradientUnits="userSpaceOnUse"><stop offset="0" stop-color="#9a3434"/><stop offset=".18" stop-color="#b45247"/><stop offset=".42" stop-color="#df8265"/><stop offset=".62" stop-color="#ea8f6e"/><stop offset=".81" stop-color="#f8a07b"/></linearGradient><mask id="mask-2" x="324.5" y="216" width="13" height="15" maskUnits="userSpaceOnUse"><g class="cls-51"><image width="13" height="15" transform="translate(324.5 216)" xlink:href="Mesa de trabajo 17.png"/></g></mask></defs><g class="cls-146"><g id="Capa_2_copia"><image width="619" height="302" transform="translate(-.39 .03)" xlink:href="../registration22.png"/></g><g id="Capa_5"><rect class="cls-70" x=".05" y=".04" width="1.04" height="299.85"/></g><g id="Capa_1"><image width="409" height="61" transform="translate(118.51 228.33)" xlink:href="../registration22_base.png"/><g class="cls-105"><image width="109" height="82" transform="translate(318.5 238)" xlink:href="Mesa de trabajo 11.png"/></g><image width="114" height="83" transform="translate(66.5 224)" xlink:href="Mesa de trabajo 12.png"/><g class="cls-105"><image width="114" height="83" transform="translate(310.5 235)" xlink:href="Mesa de trabajo 13.png"/></g><image width="182" height="82" transform="translate(216.5 238)" xlink:href="Mesa de trabajo 14.png"/><image width="190" height="52" transform="translate(259.77 223.4) scale(1.21 1.23)" xlink:href="../registration22_shadown.png"/><g><path class="cls-57" d="M338.45,65.91c14.71-9.28,14.5-21.06,12.32-33.6-5.34-16.89-29.38-21.46-29.38-21.46,0,0,8.44,7.33,6.45,10.15-17.24-3.87-27.03,6.22-28.15,12.55,4.56-3.8,8.58-4.32,10.47-4.31,.24,0,.31,.33,.09,.43-1.77,.81-4.81,4.41-6.1,13.03,5.63-6.1,9.97-3.52,9.97-3.52,0,0-2.11,20.29,10.79,25.57-.95-4.59,.65-8.66,1.56-10.48,.26-.52,.94-.63,1.36-.23,1.56,1.53,5.21,5.14,9.23,9.24,1.76,2.11,1.21,2.89,1.41,2.64Z"/><path class="cls-67" d="M320.38,63.3c11.03-4.51,20.29-6.08,23.48-15.77,5.21-17.57-16.31-26.14-16.31-26.14,0,0,2.91,6.59,2.29,8.09-7.33-6.3-14.04-6.25-18.96-4.58-.61,.21,20,3.72,23.42,15.6,4.4,12.73-13.85,15.79-15.2,19.22-.55,1.63,1.24,3.59,1.3,3.57Z"/><path class="cls-57" d="M289.54,99.69c14.71-9.28,16.67-20.88,14.49-33.43-4.57-22.4-31.78-20.41-31.78-20.41,0,0,8.68,6.1,6.69,8.91-17.24-3.87-27.03,6.22-28.15,12.55,4.56-3.8,8.58-4.32,10.47-4.31,.24,0,.31,.33,.09,.43-1.77,.81-4.81,4.41-6.1,13.03,5.63-6.1,9.97-3.52,9.97-3.52,0,0-2.11,20.29,10.79,25.57-.95-4.59,.65-8.66,1.56-10.48,.26-.52,.94-.63,1.36-.23,1.56,1.53,5.21,5.14,9.23,9.24,1.76,2.11,1.21,2.89,1.41,2.64Z"/><path class="cls-67" d="M287.43,97.4c9.5-11.44,18.78-18.6,16.6-31.14-4.57-22.4-31.78-20.41-31.78-20.41,0,0,8.68,6.1,6.69,8.91-11.76-2.64-20.06,1.22-24.5,5.94-.55,.59,24.2-7.65,34.94,3.44,12.32,11.44-5.98,25.51-5.45,30.08,.35,2.11,3.47,3.23,3.52,3.17Z"/><g><path class="cls-68" d="M443.53,100.4c-.71-.74,2.54-6.79-1.81-8.16-.02,0-.05-.01-.07-.02-6.26-.99-11.18,8.79-11.88,12.9s1,7.77,1.34,9.16c.05,.22,.01,.45-.11,.64,0,0-10.42,14.42-13.87,21.71-.56,1.12-.74,.5-1.12,.27-5.81-3.42-46.68-26.24-57.87,2.72-9.47,25.61,34.69,33.42,34.85,33.45h0c.12,.01,26.91,2.04,35.58-2.99,7.84-4.55,19.72-37.71,25.82-40.23,.08-.03,2.06-.45,2.13-.49,1.69-.97,20.72-12.32,16.24-29.49-.06-.23-.38-.26-.46-.04-1.38,3.49-8.29,10.72-5.38,7.66,.01-.01,.02-.03,.04-.04,2.58-3.34,4.98-6.55,5.39-10.32,.21-1.86,.43-5.61-2.9-7.48-.13-.08-.31,0-.36,.14-1.33,3.87-2.82,7.58-5.99,10.95-.53,.98,11.21-14.84,3.89-17.9-4.72-1.7-9.01,13.38-14.25,15.32s-8.76,2.69-9.2,2.23Z"/><path class="cls-12" d="M443.53,100.4c-.71-.74,2.54-6.79-1.81-8.16-.02,0-.05-.01-.07-.02-6.26-.99-11.18,8.79-11.88,12.9s1,7.77,1.34,9.16c.05,.22,.01,.45-.11,.64,0,0-10.42,14.42-13.87,21.71-.56,1.12-.74,.5-1.12,.27-5.81-3.42-46.68-26.24-57.87,2.72-9.47,25.61,34.69,33.42,34.85,33.45h0c.12,.01,26.91,2.04,35.58-2.99,7.84-4.55,19.72-37.71,25.82-40.23,.08-.03,2.06-.45,2.13-.49,1.69-.97,20.72-12.32,16.24-29.49-.06-.23-.38-.26-.46-.04-1.38,3.49-8.29,10.72-5.38,7.66,.01-.01,.02-.03,.04-.04,2.58-3.34,4.98-6.55,5.39-10.32,.21-1.86,.43-5.61-2.9-7.48-.13-.08-.31,0-.36,.14-1.33,3.87-2.82,7.58-5.99,10.95-.53,.98,11.21-14.84,3.89-17.9-4.72-1.7-9.01,13.38-14.25,15.32s-8.76,2.69-9.2,2.23Z"/></g><path class="cls-18" d="M370.26,132.99c-43.82-9.39-51.02-46.44-51.02-46.44,0,0-2.6,1.81-2.78,4.68,0,.07-.09,.11-.15,.07-3.77-3.3,3-12.13,3-12.13,0,0-4.6,2.46-6.34,5.22-.08,.12-.26,.11-.31-.02-2.39-6.15,6.44-15.06,6.44-15.06,0,0-4.47,.56-8.19,3.99-.02,.02-.05,0-.04-.02,.6-2.74,1.62-4.98,2.94-6.86,2.06-2.93,4.86-4.97,7.89-6.65,8.01-4.42,17.72-6.29,20.23-15.34,3.81-15.46-13.91-22.33-13.91-22.33,0,0,3.64,6.43,1.55,7.6-9.69-7.58-18.87-4.16-21.46-.5,4.01-1.03,6.69-.16,7.87,.41,.15,.07,.1,.3-.07,.3-1.36-.02-4.34,1.34-7.73,6.38,5.36-2.16,7.32,.76,7.32,.76,0,0-7.38,12.14-.84,19.31,.77-3.17,3-5.26,4.11-6.14,.32-.25,.78-.12,.91,.26,.52,1.43,1.74,4.79,3.05,8.58-1.54,.88-6.38,3.7-8.97,7.26-2.71-3.47-5.03-7.46-5.43-11.69-2.94,.96-3.97,3.99-3.98,6.29-6.21-3.39-4.75-11.35-3.3-15.86,.38-1.18-1.01-2.1-1.97-1.33-1.08,.87-2.22,2.06-3.06,3.61-5.88-13.84,13.19-25.41,13.01-25.43-1.46-.1-3.73-.32-7.32,1.14,6.73-12.86,23.32-7.58,23.32-7.58,0,0,.88-.22-4.4-5.01-.09-.08-.03-.21,.08-.2,23.36,1.47,30.92,23.04,30.92,23.04,0,0,33.36-3.43,52.36,14.26,25.64,20.84,10.16,93.51-33.74,85.43Z"/><path class="cls-7" d="M395.28,163.73c-62.63,14.78-94.77-28.85-94.77-28.85,0,0-1.17,4.46-.7,7.98-4.69,0-3.75-17.59-3.75-17.59,0,0-4.69,6.33-5.04,11.03-3.05-.47-1.29-23.69-1.29-23.69,0,0-5.51,3.52-8.21,10.32-.94-3.97-.99-7.55-.43-10.82,.87-5.08,3.24-9.44,6.15-13.48,7.67-10.66,19.11-19.06,16.8-32.35-4.57-22.4-31.78-20.41-31.78-20.41,0,0,8.68,6.1,6.69,8.91-17.24-3.87-27.03,6.22-28.15,12.55,4.56-3.8,8.58-4.32,10.47-4.31,.24,0,.31,.33,.09,.43-1.77,.81-4.81,4.41-6.1,13.03,5.63-6.1,9.97-3.52,9.97-3.52,0,0-2.11,20.29,10.79,25.57-.95-4.59,.65-8.66,1.56-10.48,.26-.52,.94-.63,1.36-.23,1.56,1.53,5.21,5.14,9.23,9.24-1.45,2.09-6,8.73-7.17,14.93-5.65-2.83-11.12-6.59-14.24-11.82-2.35,5.28-2.87,7.62-.7,11.03-14.54-.82-14.66-23.99-14.66-23.99,0,0-4.52,1.99-5.1,10.91-15.66-15.13,1.76-40.99,1.76-40.99,0,0-4.05,1.52-9.68,4.93,2.64-18.3,28.27-22.4,28.27-22.4,0,0-.23-2.87-10.67-4.52,26.39-8.68,53.84,10.73,53.84,10.73,0,0,41.17-24.98,76.71-13.72,46.09,11.26,70.72,115.06,8.8,131.6Z"/><path class="cls-10" d="M395.28,163.73c-62.63,14.78-94.77-28.85-94.77-28.85,0,0-1.17,4.46-.7,7.98-4.69,0-3.75-17.59-3.75-17.59,0,0-4.69,6.33-5.04,11.03-6.48-3.25-1.29-23.69-1.29-23.69,0,0-5.51,3.52-8.21,10.32-.94-3.97-.99-7.55-.43-10.82,.87-5.08,3.24-9.44,6.15-13.48,7.67-10.66,19.11-19.06,16.8-32.35-2.01-9.83-11.58-20.23-31.2-20.23,2.38,1.41,5.98,5.81,6.6,7.92-2.15,.33-3.96,.09-6.07,.09-.65-1.76-7.45-9.44-8.86-7.95,13.52-5.72,29.08-2.4,35.95,4.34,18.92,18.56,11.08,69.84,51.67,81.63,46.68,10.32,77.18-18.53,79.99-29.34,1.9,27.14-8.24,53.37-36.83,61.01Z"/><path class="cls-7" d="M395.28,163.73c-62.63,14.78-94.77-28.85-94.77-28.85,0,0-1.17,4.46-.7,7.98-4.69,0-3.75-17.59-3.75-17.59,0,0-4.69,6.33-5.04,11.03-3.05-.47-1.29-23.69-1.29-23.69,0,0-5.51,3.52-8.21,10.32-.94-3.97-.99-7.55-.43-10.82,.87-5.08,3.24-9.44,6.15-13.48,7.67-10.66,19.11-19.06,16.8-32.35-4.57-22.4-31.78-20.41-31.78-20.41,0,0,8.68,6.1,6.69,8.91-17.24-3.87-27.03,6.22-28.15,12.55,4.56-3.8,8.58-4.32,10.47-4.31,.24,0,.31,.33,.09,.43-1.77,.81-4.81,4.41-6.1,13.03,5.63-6.1,9.97-3.52,9.97-3.52,0,0-2.11,20.29,10.79,25.57-.95-4.59,.65-8.66,1.56-10.48,.26-.52,.94-.63,1.36-.23,1.56,1.53,5.21,5.14,9.23,9.24-1.45,2.09-6,8.73-7.17,14.93-5.65-2.83-11.12-6.59-14.24-11.82-2.35,5.28-2.87,7.62-.7,11.03-14.54-.82-14.66-23.99-14.66-23.99,0,0-4.52,1.99-5.1,10.91-15.66-15.13,1.76-40.99,1.76-40.99,0,0-4.05,1.52-9.68,4.93,2.64-18.3,28.27-22.4,28.27-22.4,0,0-.23-2.87-10.67-4.52,26.39-8.68,53.84,10.73,53.84,10.73,0,0,41.17-24.98,76.71-13.72,46.09,11.26,70.72,115.06,8.8,131.6Z"/><ellipse class="cls-50" cx="442.78" cy="101.37" rx="27.91" ry="29.99"/><g><ellipse class="cls-60" cx="440.44" cy="105.36" rx="18.25" ry="19.61"/><ellipse class="cls-4" cx="440.44" cy="105.36" rx="18.25" ry="19.61"/><ellipse class="cls-17" cx="440.44" cy="105.36" rx="18.25" ry="19.61"/></g><ellipse class="cls-76" cx="460.25" cy="84.21" rx="1.99" ry="4.53" transform="translate(135.78 421.31) rotate(-56.46)"/><ellipse class="cls-76" cx="453.14" cy="84.02" rx="1.47" ry="3.22" transform="translate(132.75 415.31) rotate(-56.46)"/><path class="cls-150" d="M470.69,101.37c0,16.56-12.5,29.99-27.91,29.99s-27.91-13.43-27.91-29.99c0-9.84-.75,12.65,7.07,13.47,4.89,.33,7.82-3.91,12.05-.33s-.16,8.63,6.03,7,8.11-8.27,14.66-15.15c3.04-3.19,10.1,3.75,10.1,11.89,7.82-9.29,5.91-21.94,5.91-16.89Z"/><text class="cls-38" transform="translate(428.64 110.11) rotate(23.46) scale(1.11 1)"><tspan x="0" y="0">B</tspan></text><path class="cls-75" d="M381.91,69.43c.53-7.57,29.73-11.08,34.83-5.45,5.1,5.63-12.32,20.76-14.07,20.94s-21.29-7.92-20.76-15.48Z"/><path class="cls-59" d="M408.66,61.34c3.72,.31,6.74,1.16,8.08,2.64,5.1,5.63-12.93,20.32-14.69,20.5s19.7-14.43,6.61-23.13Z"/><path class="cls-61" d="M401.76,89.28c-.39,2.5-10.35,11.46-18.44,13.22s-13.9-3.61-13.66-3.37,6.16,3.61,8.39,12.87c4.85,12.25,5.95,29.16,19.21,28.22,11.38-1.29,6.27-22.18,6.36-37.02,.04-6.66,2.77-12.16,3.31-12.81,.09-.01-4.41-.89-5.16-1.11Z"/><path class="cls-66" d="M379,114.55c4.22,12.23,5.13,27.15,18.38,26.21,7.74-1.14,6.53-14.58,5.63-27.36-.25-1.85-5.58-3.58-11.17-4.03-.29-.02,4.3,2.93,2.98,9-.7-6.6-4.46-9.1-4.75-9.1-5.79-.18-11.3,1.14-11.09,5.28Z"/><path class="cls-20" d="M402.14,85.13s.18,1.85-.18,4.09c-.39,2.5-10.44,11.29-18.53,13.05s-13.9-3.72-13.66-3.49,6.16,3.61,8.39,12.87c4.85,12.25,5.51,30.14,18.77,29.2,11.38-1.29,6.71-23.16,6.8-38,.04-6.66,2.77-12.16,3.31-12.81,.09-.01,2.08,.27,3.99,.15,2.96-.2,6.27-1.93,6.11-11.48,.13-.62,.37,10.57-4.82,11.27s-9.73-.76-9.73-.76l-.44-4.09Z"/><path class="cls-20" d="M368.62,101.32c.15,.02-.68-1.65,.37-3.12,1.54-1.98,2.75-1.1,2.84-1.23,.18-.22-1.61-.73-2.81,1.21-.92,1.25-.51,3.23-.4,3.14Z"/><path class="cls-13" d="M381.91,69.43c.53-7.57,29.73-11.08,34.83-5.45,5.1,5.63-12.76,20.85-14.51,21.02s-20.85-8-20.32-15.57Z"/><path class="cls-69" d="M401.61,57.11c.57,0-.44-5.27,3.52-5.67,4.31-.44,3.61,4.57,6.77,4.27,1.58-.18-1.76-6.73-7.21-6.38s-3.65,7.78-3.08,7.78Z"/><path class="cls-69" d="M374.34,63.71c-.8,.55-9.45-5.96-15.39-2.73-6.47,3.51-5.28,15.04-9.76,14.07s-2.36-11.45,5.63-16.19c10.12-5.81,20.33,4.29,19.53,4.84Z"/><path class="cls-7" d="M301.94,226.97c1.09-.72,1.65-.16,2.53,.28-1.32,.6-5.25,4.47-2.7,12.22,1.06-2.38,3.05-4.91,3.49-5.09-1.5,1.58-3.41,7.29,1.61,13.36,.62-2.64,2.46-5.45,2.46-5.45,0,0-1.41,5.1,4.4,8.88,2.73-.09,14.26-6.41,14.58-16.35,.55-17.25-20.82-23.5-26.37-7.84Z"/><path class="cls-7" d="M301.94,226.97c1.09-.72,2.73-.7,3.61-.26-1.32,.6-5.21,4.17-3.61,11.44,1.06-2.38,3.96-4.13,4.4-4.31-1.5,1.58-3.52,5.72,0,12.32,.62-2.64,3.34-4.49,3.34-4.49,0,0-1.58,5.37,4.22,9.15,2.73-.09,15.66-6.6,15.48-16.54s-17.68-26.04-27.45-7.3Z"/><path class="cls-7" d="M436.62,197.68c26.57-4.22,31.14,50.49,.18,51.02-22.17-.35-22.87-47.85-.18-51.02Z"/><path class="cls-8" d="M357.51,146.6c-26.51,.23-24.86,28.85-24.86,28.85,0,0-20.76,8.91-15.83,50.2,10.38,65.09,66.74,24.63,89.73,28.85,38.7,5.16,44.53-18.32,41.34-46.62-2.43-21.59-29.38-58.94-47.44-50.49-11.03-.47-16.42-11.03-42.93-10.79Z"/><path class="cls-72" d="M332.64,175.46c-1.41,.76-20.88,7.98-15.83,50.2,5.04,55.36,52.31,34.72,59.93,33.42-86.67,6.57-47.44-79.91-44.1-83.62Z"/><path class="cls-8" d="M356.57,144.73c-26.51,.23-23.93,30.73-23.93,30.73,0,0-20.76,8.91-15.83,50.2,10.38,65.09,66.74,24.63,89.73,28.85,38.7,5.16,44.53-18.32,41.34-46.62-2.43-21.59-27.74-59.64-45.8-51.2-11.03-.47-19-12.2-45.51-11.96Z"/><path class="cls-14" d="M350.71,144.02c-24.86,4.93-20.88,30.49-20.88,30.49,0,0-13.29,10.6-15.32,31.92-.17,1.81,14.62,10.78,39.82,9.67,43.53-27.28,85.52-11.57,93.56-8.22-2.43-21.59-29.62-61.99-47.68-53.54-11.03-.47-24.63-15.25-49.5-10.32Z"/><path class="cls-7" d="M470.18,226.36c2.95-7.52-11.16-13.14-23.12,1.41-1.03,1.3-26.21,6.8-18.82,25.57,11.61,22.75,46.21,.53,49.03-2.81,6.17-6.22,1.8-13.08-.53-13.65,.79-1.5,.71-5.16-.76-7.46-2.33-3.17-4.87-3.01-5.79-3.05Z"/><path class="cls-72" d="M469.4,226.65c2.35-5.45-4.14-7.71-9.84-6.43,4.03-.49,8.37,2.79,7.73,6.96-.14-.14-3.07,1.4-4.52,2.58,12.02-3.52,12.68,6.91,11.38,7.21-1-.23-5.99,1.08-6.39,1.47,12.55-.7,9.73,12.08,4.75,14.19-4.66,3.08-17.83,10.67-33.9,4.16-7.86-4.22-13.55-13.14-6.16-19.82-4.11,3.75-5.92,9.56-3.93,16.04,11.61,22.75,44.86,.44,47.68-2.9,6.39-6.04,2.41-11.64-1.11-12.32,3.05-1.17,2.43-5.51,.82-8.03-2.33-3.17-5.59-3.06-6.51-3.11Z"/><path class="cls-7" d="M470.18,226.36c2.95-7.52-11.16-13.14-23.12,1.41-1.03,1.3-26.21,6.8-18.82,25.57,11.61,22.75,46.21,.53,49.03-2.81,6.17-6.22,1.8-13.08-.53-13.65,.79-1.5,.71-5.16-.76-7.46-2.33-3.17-4.87-3.01-5.79-3.05Z"/><path class="cls-69" d="M462.34,230.2c6.07-3.58,10.67-2.02,10.67-2.02l-2.87-2.14s-5.4,.88-7.8,4.16Z"/><path class="cls-69" d="M463.76,240.39c0-.84,12.18-4.27,14.56-.31s-.22,7.78-.22,7.78c0,0,2.49-1.76,2.24-5.41-.14-2.08-1.19-4.49-2.64-6.03-.08-1.58,.27-2.88,.18-3.69-2.38-12.89-15.26-2.81-15.26-2.81,0,0,11.1-6.04,13.3,2.18,.6,2.23-.74,4.89-1.47,4.87-2.81,.05-6.86-.01-10.69,3.42Z"/><path class="cls-10" d="M457.15,225.42c-2.52-2.35-7.15,2.4-4.52,5.4,2.4,2.4,7.21-2.81,4.52-5.4Z"/><path class="cls-10" d="M464.53,232.05c-2.76-2.76-9.03,2.58-6.1,5.92,2.4,2.4,9.18-2.96,6.1-5.92Z"/><path class="cls-10" d="M469.61,243.39c-1.42-3.04-9.15-.93-7.48,3.19,1.48,3.06,9.41,.62,7.48-3.19Z"/><path class="cls-10" d="M446.74,234.13c-6.17,2.61-14.39,8.86-10.59,15.4,2.55,3.84,16.13,3.99,20.29-.59,2.62-2.88-3.53-17.42-9.7-14.81Z"/><path class="cls-81" d="M476.54,242.7s.86,1.74,.15,3.29c-.11,.15,.16,.04,.4,.1,1.82-.5,5.01-1.61,3.93-4.43-2.16,1.54-4.47,1.03-4.47,1.03Z"/><path class="cls-65" d="M476.53,242.69s.93,1.49,.15,3.36c2.01-.72,5.21-2.52,4.37-4.43-2.16,1.54-4.52,1.07-4.52,1.07Z"/><path class="cls-81" d="M473.2,230.35c.4,.12,1.48,1.2,1.44,2.75,.03,.02,.13,0,.51-.04,1.38-.7,3.75-2.27,2.32-4.44-1.66,2.06-4.2,1.74-4.27,1.73Z"/><path class="cls-65" d="M473.17,230.34c1.61,.81,1.48,2.79,1.48,2.79,0,0,4.17-2.97,2.84-4.57-1.66,2.06-4.17,1.85-4.32,1.78Z"/><path class="cls-81" d="M466.24,221.72c1.09,.82,1.31,2.94,1.31,2.94,0,0-.06,.07,.52,.04,1.72-.44,3.59-2.02,2.35-4.51-1.45,2.42-4.11,1.53-4.18,1.52Z"/><path class="cls-65" d="M466.24,221.73c1.3,1.03,1.32,3.02,1.32,3.02,0,0,4.36-1.73,2.87-4.68-1.52,2.55-3.97,1.58-4.19,1.66Z"/><path class="cls-68" d="M432.22,124.85c-.66-.85,3.35-6.78-.97-8.7-.06-.02-.12-.05-.17-.06-6.42-1.63-13.17,9.3-13.75,12.22-.51,2.54,.21,8.23,.42,9.72,.03,.24-.03,.47-.18,.66,0,0-12.43,13.96-16.83,21.21-.71,1.11-.82,.44-1.2,.16-5.7-4.2-45.98-32.43-60.78-3.36-12.48,25.42,31.5,38.32,32.81,38.7,.02,0,.04,.01,.06,.01,1.1,.23,32.28,6.6,41.72,2.34,7.8-3.52,12.9-9.81,14.55-12.07,.34-.46,1.03-.49,1.38-.04,.23,.29,.47,.66,.67,1.11,.28,.63,1.13,.72,1.53,.16,1.77-2.54,1.8-6.32,1.64-8.44-.05-.74,.78-1.22,1.39-.78,.36,.27,.73,.6,1.02,1.02,.44,.63,1.44,.37,1.57-.39,.31-1.82,.37-4.18,.36-5.89,0-.81,1.01-1.2,1.54-.58l.03,.04c.44,.52,1.27,.38,1.5-.26,1.44-3.97,1.91-12.32,2.01-14.51,.02-.33,.21-.61,.5-.75,3.19-1.49,21.23-10.64,20-27.16-.06-.81-1.09-1.12-1.58-.46-2.68,3.61-8.49,8.57-5.56,6.05,.02-.02,.05-.04,.07-.06,3.05-3.21,5.89-6.31,6.73-10.19,.38-1.78,.96-5.26-1.56-7.6-.43-.4-1.13-.25-1.38,.28-1.72,3.64-3.65,7.11-7.1,10.09-.66,.97,13.31-14.31,5.98-18.3-4.75-2.29-10.85,13.02-16.54,14.49-5.69,1.47-9.44,1.88-9.85,1.35Z"/><path class="cls-62" d="M402.14,159.33s3.75,7.68,2.11,12.78c.12-3.28-7.1-12.55-7.1-12.55l4.98-.23Z"/><path class="cls-72" d="M438.45,153.34c-4.76,32.47-26.61,41.32-26.61,41.32,0,0-21.88,3.57-68.18-37.75-12.24,24.94,31,38.6,31,38.6,0,0,31.06,6.46,40.35,2.27,9.29-4.19,14.62-12.47,14.62-12.47,0,0,1.47,1.02,1.81,3.17,3.85-3.17,2.49-10.88,2.49-10.88,0,0,3.29,1.02,3.06,3.85,1.7-1.47,1.25-10.31,1.25-10.31,0,0,1.59,1.47,2.38,2.72,2.15-3.17,2.61-15.87,2.61-15.87,0,0,22.24-9.92,18.5-29.13,.17,19.04-20.74,26.01-23.29,24.48Z"/><path class="cls-62" d="M418.89,137.34s.74,6.33,4.96,9.38c-3.53,0-7.13-5.4-7.13-5.4l2.17-3.98Z"/><path class="cls-16" d="M432.22,124.85c-.66-.85,3.38-6.83-1.02-8.72-.02-.01-.05-.02-.08-.03-6.44-1.71-12.63,7.99-13.8,12.21s.21,8.23,.42,9.72c.03,.24-.03,.47-.18,.66,0,0-12.43,13.96-16.83,21.21-.71,1.11-.82,.44-1.2,.16-5.7-4.2-45.98-32.43-60.78-3.36-12.64,25.76,32.67,38.66,32.84,38.7h0c.13,.03,32.16,6.68,41.75,2.35,8.68-3.92,14.02-11.28,14.98-12.67,.09-.13,.26-.15,.38-.05,.4,.35,1.22,1.23,1.56,2.66,.05,.19,.29,.27,.43,.13,3.05-2.95,2.51-8.88,2.3-10.52-.03-.2,.17-.35,.35-.27,.87,.38,2.82,1.47,2.76,3.64,0,.07,.08,.11,.12,.06,1.08-1.25,1.23-5.59,1.22-8.3,0-.81,1.01-1.2,1.54-.58l.85,1s.09,.04,.12,0c2.01-3.3,2.53-14.69,2.59-16.12,0-.09,.06-.17,.14-.21,1.87-.83,22.98-10.66,20.14-29.08-.04-.25-.37-.31-.48-.09-1.81,3.5-9.81,10.32-6.45,7.43,.01-.01,.03-.03,.04-.04,3.06-3.21,5.9-6.32,6.74-10.2,.42-1.92,1.05-5.82-2.22-8.13-.13-.09-.32-.04-.39,.11-1.81,3.9-3.76,7.62-7.44,10.8-.66,.97,13.31-14.31,5.98-18.3-4.75-2.29-10.85,13.02-16.54,14.49-5.69,1.47-9.44,1.88-9.85,1.35Z"/><path class="cls-10" d="M336.28,231.28c7.74-15.31,18.71-23.4,37.36-10.91,13.84-2.46,20.1,6.45,20.35,6.51,.94,.23,12.67-8.5,24.51-3.69,14.66,7.39,9.97,20.82,9.97,20.82,0,0,2.58,4.75,.94,8.68s-3.99,5.16-3.99,5.16c0,0,2.7,15.8-9.85,14.31-6.69,.23-20.41-10.56-32.25-11.49-11.85-.94-22.28,4.57-37.77,1.29s-17.01-15.36-9.27-30.67Z"/><path class="cls-68" d="M320.45,224.48c10.09-17.95,29.09-18.3,54.3,.82,13.84-2.46,19.57,8.5,19.82,8.56,.94,.23,13.14-9.15,24.98-4.34,14.66,7.39,9.5,21.46,9.5,21.46,0,0,2.58,4.75,.94,8.68-1.64,3.93-3.99,5.16-3.99,5.16,0,0,2.7,15.8-9.85,14.31-6.69,.23-20.41-10.56-32.25-11.49-11.85-.94-22.28,4.57-37.77,1.29-15.48-3.28-23.11-14.13-23.11-14.13,0,0-1.7,2.46-.59,6.63-4.6-2.96-2.81-12.96-2.9-12.73-.62,.06-3.02,2.05-4.13,4.13-1.29-2.9,2.11-13.37,2.11-13.37,0,0,0-.5-4.16,5.37-2.93-7.74,7.57-14.31,6.89-14.25s-4.63-.03-7.24,1.82c.5-4.54,6.98-7.1,7.45-7.92Z"/><path class="cls-72" d="M320.45,224.48c3.71,13.32,5.66,31.61,28.98,36.92,25.09,2.02,27.83-2.62,39.87-.5,4.87,.74,16.11,9.96,23.28,11.2,6.48,1.12,8.53-5.49,7.45-8.27-2.67,.66-9.88-.88-10.91-4.72-.01-.14,.45-.86,.98-.29,3.52,4.05,8.43,4.49,10.2,3.34,3.79-2.46,3.4-11.03,2.81-11.48-5.67,.16-10.25-2.11-11.26-3.23-.15-.35,.2-1.03,.6-.92,5.12,2.92,17.62,8.73,13.03-11.73,5.87,7.33,3.56,16.19,3.56,16.19,0,0,2.58,4.75,.94,8.68-1.64,3.93-3.99,5.16-3.99,5.16,0,0,5.42,12.73-9.85,14.31-9-.26-20.41-10.56-32.25-11.49-11.85-.94-22.28,4.57-37.77,1.29-15.48-3.28-23.11-14.13-23.11-14.13,0,0-1.7,2.46-.59,6.63-4.6-2.96-2.81-12.96-2.9-12.73-.62,.06-3.02,2.05-4.13,4.13-1.29-2.9,2.11-13.37,2.11-13.37,0,0,0-.5-4.16,5.37-2.93-7.74,7.57-14.31,6.89-14.25s-4.63-.03-7.24,1.82c.5-4.54,6.98-7.1,7.45-7.92Z"/><path class="cls-81" d="M421.91,241.69l-.24,3.44s-.02,.12,.31,.7c1.75,.35,5.36,.18,5.7-2.66-2.66,.44-5.76-1.47-5.76-1.47Z"/><path class="cls-65" d="M421.93,240.7l-.26,4.4s5.81,.35,6.07-2.38c-2.64,.26-5.81-2.02-5.81-2.02Z"/><path class="cls-81" d="M420.32,255.32l-.31,3.43s.04,.12,.37,.7c1.75,.35,5.36,.18,5.7-2.66-2.66,.44-5.76-1.47-5.76-1.47Z"/><path class="cls-65" d="M420.26,254.95l-.26,3.78s5.76,.7,6.03-2.02c-2.64,.26-5.76-1.76-5.76-1.76Z"/><path class="cls-81" d="M417.62,268.52l-1.89,3.12s.07,.38,.4,.96c1.75,.35,5.58,.77,5.91-2.08-2.65-.14-4.42-2-4.42-2Z"/><path class="cls-65" d="M417.93,268.01l-2.18,3.61s5.59,1.57,6.26-1.09c-2.65-.14-4.08-2.52-4.08-2.52Z"/><path class="cls-15" d="M320.45,224.48c10.09-17.95,29.09-18.3,54.3,.82,13.84-2.46,19.57,8.5,19.82,8.56,.94,.23,13.14-9.15,24.98-4.34,14.66,7.39,9.5,21.46,9.5,21.46,0,0,2.58,4.75,.94,8.68-1.64,3.93-3.99,5.16-3.99,5.16,0,0,2.96,15.45-9.85,14.31-10.23-1.41-20.41-10.56-32.25-11.49-11.85-.94-22.28,4.57-37.77,1.29-15.48-3.28-23.11-14.13-23.11-14.13,0,0-1.7,2.46-.59,6.63-4.6-2.96-2.81-12.96-2.9-12.73-.62,.06-3.02,2.05-4.13,4.13-1.29-2.9,2.11-13.37,2.11-13.37,0,0,0-.5-4.16,5.37-2.93-7.74,7.57-14.31,6.89-14.25s-4.63-.03-7.24,1.82c.5-4.54,6.98-7.1,7.45-7.92Z"/><path class="cls-9" d="M337.22,179.21c5.51,13.25,28.5,18.88,33.66,19.82,2.26,.41,3.31-.87,3.28-1.14-.04-.35-1.5,1.7-1.96-.82-4.96-20.26,.32-37.21,9.08-51.01,.48-.75-.05-1.76-.9-2.02-6.62-2.04-23.45-6.65-33.07-.36-11.29,7.37-15.6,22.28-10.09,35.54Z"/><path class="cls-53" d="M372.11,198.21l-1.47-14.31s-13.55-1.64-18.18-9.15c7.8,1.73,18,.15,18,.15l6.33-21.29s-16.89,2.73-20.23,1.2c11.38-1.88,21.35-11.03,21.35-11.03,0,0-31.37-15.01-42.11,17.24-5.63,33.43,36.3,37.18,36.3,37.18Z"/><path class="cls-56" d="M370.94,192.17c-.82-10.5-1.61-24.4,3.84-35.48-21.77,2.68-31.54-.09-35.8-2.29,.22-.7,.5-1.09,.94-1.82,18.94,1.41,31.2-7.86,32.49-9.66-7.76-1.53-17.92-3.12-24.75,1.33-7.66,5-12.2,15.09-12.32,23.69,0,.19,12.9,6.48,35.3,3.78-.53,3.54-.62,9.21-.79,15.13-1.47,.47-16.04-3.2-21.67-12.05-1.58,.18-3.87-.06-5.34-.29,6.74,13.31,25.98,17.95,28.09,17.65Z"/><path class="cls-9" d="M337.22,179.21c5.51,13.25,28.5,18.88,33.66,19.82,2.26,.41,3.31-.87,3.28-1.14-.04-.35-1.5,1.7-1.96-.82-5.25-16.1,.29-43.45,10.7-50.7,.94-.94-1.39-1.8-2.52-2.17-6.59-2.13-23.45-6.82-33.08-.53-11.29,7.37-15.6,22.28-10.09,35.54Z"/></g><g><g class="cls-122"><ellipse class="cls-32" cx="250.26" cy="262.64" rx="96.53" ry="35.94"/><ellipse class="cls-23" cx="244.38" cy="263.72" rx="96.53" ry="35.94"/></g><g class="cls-121"><ellipse class="cls-27" cx="248.25" cy="266.75" rx="55.32" ry="20.6"/></g><g><g><path class="cls-34" d="M235.23,228.34l-3.86,35.72s2.17,4.44,8.31,5.17c6.14,.72,9.49-1.13,10.83-2.79l13.95-42.6-29.23,4.51Z"/><path class="cls-47" d="M255.96,225.14l-9.98,43.82c2.28-.55,3.75-1.56,4.53-2.52l13.95-42.6-8.5,1.31Z"/><path class="cls-45" d="M243.74,227.03l-8.51,1.31-3.86,35.72s1.49,2.93,5.36,4.42l7.01-41.44Z"/></g><path class="cls-119" d="M233.05,248.45c4.28-3.14,13.07-9.58,15.52-11.28,1.86-1.29,7.7-2.2,12.42-2.74l3.47-10.59-29.23,4.51-2.18,20.11Z"/><g><path class="cls-111" d="M238.22,233.09l-93.69,7.78c-2.46,1.68-8.88,.72-10.11,3.41-1.83,4,1.23,14.12,7.48,20.79,11.35,12.13,32.15,8,48.78,1.44,11.17-4.41,55.4-34.83,55.4-34.83l-7.86,1.4Z"/><path class="cls-116" d="M238.22,233.09l-93.69,7.78c-2.46,1.68-8.88,.72-10.11,3.41-1.83,4,1.23,14.12,7.48,20.79,11.35,12.13,32.15,8,48.78,1.44,11.17-4.41,55.4-34.83,55.4-34.83l-7.86,1.4Z"/></g><path class="cls-90" d="M167.93,213.74l-27.49,18.84c-2.46,1.68-4.54,3.91-5.77,6.61-1.83,4-3.11,10.93,3.14,17.6,11.35,12.13,36.68,8.99,50.1,4.22,11.32-4.02,50.32-27.93,50.32-27.93l-70.29-19.34Z"/><g><path class="cls-48" d="M187.9,261.02c11.32-4.02,50.32-27.93,50.32-27.93l-8.95-2.46-1.15-.1-43.06,23.87c-23.64,9.65-35.73,4.74-41.44-.22-5.33-4.63-5.66-12.94-.4-17.65,.6-.53,1.01-.8,1.01-.8l30.76-20.04-7.06-1.94-27.49,18.84c-2.46,1.68-4.54,3.91-5.77,6.61-1.83,4-3.11,10.93,3.14,17.6,11.35,12.13,36.68,8.99,50.1,4.22Z"/><g class="cls-35"><ellipse class="cls-84" cx="159.53" cy="262.22" rx="88.18" ry="54.38"/></g></g><g><path class="cls-48" d="M188.22,259.2c-13.43,4.77-38.75,7.91-50.1-4.22-4.13-4.41-4.96-8.93-4.53-12.64-.94,3.99-.62,9.3,4.21,14.46,11.35,12.13,36.68,8.99,50.1,4.22,11.32-4.02,50.32-27.93,50.32-27.93l-1.84-.51c-8.3,5.04-38.43,23.17-48.16,26.62Z"/><path class="cls-48" d="M143.54,234.71c-2.24,2-3.41,4.66-3.67,7.41,.54-2.08,1.61-4.04,3.35-5.6,.6-.53,1.01-.8,1.01-.8l30.76-20.04-1.74-.48-28.7,18.7s-.41,.27-1.01,.8Z"/></g><ellipse class="cls-24" cx="184.01" cy="234.33" rx="54.8" ry="15.75" transform="translate(-47.81 47.16) rotate(-12.94)"/><ellipse class="cls-25" cx="182.58" cy="228.66" rx="54.8" ry="15.75" transform="translate(-46.57 46.7) rotate(-12.94)"/><ellipse class="cls-26" cx="224.28" cy="224.16" rx="54.8" ry="15.75" transform="translate(-44.5 55.92) rotate(-12.94)"/><g><path class="cls-89" d="M176.27,215.15v-55.08s-1.48-34.85,34.95-27.54c34.85,6.99,25,54.5,25,54.5l-8.1,43.49,10.01,2.63,8.47-44.49s11.44-55.29-33.26-64.19c-44.7-8.9-46.6,26.27-46.6,40.67v48.25l9.53,1.75Z"/><g class="cls-100"><ellipse class="cls-85" cx="235.2" cy="160.27" rx="109.69" ry="67.65" transform="translate(25.24 352.42) rotate(-76.73)"/></g></g><path class="cls-91" d="M228.13,230.46l8.09-43.43s9.85-47.51-25-54.5c-36.43-7.31-34.95,27.54-34.95,27.54v55.08l51.86,15.31Z"/><g class="cls-46"><path class="cls-55" d="M200.96,131.55c-27.76-.68-26.54,28.51-26.54,28.51v54.74l1.86,.34v-55.08s-1.16-27.88,24.69-28.51Z"/><path class="cls-52" d="M213.34,124.48c-5.6-1.11-10.53-1.54-14.87-1.4,3.88,.01,8.18,.43,13.01,1.4,44.7,8.9,33.26,64.19,33.26,64.19l-8.38,44.02,1.77,.47,8.47-44.49s11.44-55.29-33.26-64.19Z"/></g><g class="cls-44"><path d="M167.87,167.31c0-14.41,1.89-50.35,46.59-41.45,14.36,2.86,22.92,11.29,27.93,20.35-4.82-9.99-13.56-18.65-29.05-21.73-44.7-8.9-46.6,26.27-46.6,40.67v48.25l1.13,.21v-46.3Z"/><path class="cls-53" d="M228.12,230.52l1.46,.38,7.77-41.72s4.88-23.6-4.45-39.98c7.78,16.22,3.32,37.82,3.32,37.82l-8.1,43.49Z"/></g><polygon class="cls-117" points="164.88 241.8 228.12 230.52 219.37 227.99 164.88 241.8"/><path class="cls-109" d="M146.36,238.27c.6-.53,1.01-.8,1.01-.8l30.76-20.04-4.1-1.13-29.8,19.42s-.41,.27-1.01,.8c-5.26,4.7-4.93,13.02,.4,17.65,1.36,1.18,3.08,2.34,5.23,3.32-.77-.51-1.47-1.04-2.08-1.57-5.33-4.63-5.66-12.94-.4-17.65Z"/><g><path class="cls-110" d="M210.05,123.91l-.24-.05h.03c.07,.02,.14,.04,.21,.05Z"/><path class="cls-115" d="M290.56,140.47l-74.15-15.26c41.07,10.78,30.19,63.45,30.19,63.45l-8.47,44.49,63.23-11.65s11.12-28.28,10.8-51.79c-.32-23.51-21.61-29.23-21.61-29.23Z"/><path class="cls-36" d="M298.41,144.23c5.32,4.38,10.63,11.66,10.79,23.32,.32,23.51-10.8,51.79-10.8,51.79l-59.73,11.01-.53,2.8,63.23-11.65s11.12-28.28,10.8-51.79c-.19-13.86-7.65-21.51-13.76-25.48Z"/></g><path class="cls-113" d="M236.22,187.02s4.63-22.36-3.71-38.66l-88.25,18.34c-2.87,.6-4.66,3.47-3.93,6.32l16.77,65.15c.7,2.73,3.48,4.39,6.22,3.71l65.72-16.28,7.18-38.57Z"/><path class="cls-120" d="M232.51,148.36l-88.25,18.34c-2.87,.6-4.66,3.47-3.93,6.32l2.5,9.71,61.8,18.49c1.96,.53,4.03-.05,5.51-1.53l27.35-27.47c-.03-7.36-1.09-16.25-4.98-23.85Z"/><path class="cls-112" d="M237.47,170.61c-.18-7.02-1.35-15.2-4.97-22.25l-88.25,18.34c-2.87,.6-4.66,3.47-3.93,6.32l2.5,9.71h0l61.5,15.36c1.87,.47,3.84-.05,5.25-1.36l27.9-26.11Z"/><path class="cls-147" d="M209.46,194.92c-1.44,1.31-3.47,1.83-5.39,1.36l-61.61-14.97,.36,1.41,61.5,15.36c1.87,.47,3.84-.05,5.25-1.36l27.9-26.11c0-.38-.03-.77-.05-1.16l-27.96,25.47Z"/><path class="cls-54" d="M145.22,171.3l89.17-18.51c-.55-1.51-1.15-3-1.88-4.43l-88.25,18.34c-2.87,.6-4.66,3.47-3.93,6.32l16.77,65.15c.7,2.73,3.48,4.39,6.22,3.71l65.72-16.28,.95-5.13-67.8,16.85c-.24,.06-.48-.09-.54-.32l-16.77-65.15c-.04-.15,0-.27,.05-.35,.07-.11,.17-.18,.29-.2Z"/><path class="cls-1" d="M196.17,163.43c0,7.64-10.04,13.82-22.43,13.82-11.44,0-20.88-5.28-22.25-12.11,2.54-.52,14.25-2.83,15.28-3.15,.22-6,.65-8.58,1.19-11.92,1.86-.31,3.76-.47,5.78-.47,12.39,0,22.43,6.19,22.43,13.82Z"/><g><polygon class="cls-107" points="146.28 177.31 140.95 175.44 142.84 182.79 148.17 184.66 146.28 177.31"/><polygon class="cls-108" points="151.96 199.36 146.63 197.49 148.52 204.84 153.85 206.71 151.96 199.36"/><polygon class="cls-140" points="152.3 219.54 154.2 226.89 159.53 228.77 157.63 221.42 152.3 219.54"/><polygon class="cls-141" points="178.38 159.61 186.07 162.82 196.67 160.62 188.97 157.41 178.38 159.61"/><polygon class="cls-139" points="146.61 166.21 154.28 169.42 164.88 167.22 157.2 164.01 146.61 166.21"/><polygon class="cls-138" points="228.45 154.03 220.74 150.81 210.15 153.01 217.86 156.23 228.45 154.03"/><polygon class="cls-128" points="174.51 234.26 182.58 237.11 193.52 234.4 185.43 231.55 174.51 234.26"/><polygon class="cls-134" points="207.29 226.12 215.4 228.98 226.34 226.27 218.21 223.4 207.29 226.12"/></g><g><polygon class="cls-136" points="148.17 184.66 142.84 182.79 144.74 190.14 150.07 192.01 148.17 184.66"/><polygon class="cls-137" points="153.85 206.71 148.52 204.84 150.41 212.19 155.74 214.07 153.85 206.71"/><polygon class="cls-129" points="154.2 226.89 156.09 234.25 161.42 236.12 159.53 228.77 154.2 226.89"/><polygon class="cls-135" points="167.79 161.81 175.48 165.02 186.07 162.82 178.38 159.61 167.79 161.81"/><path class="cls-131" d="M144.88,171.85c-.04-.15,0-.27,.05-.35,.07-.11,.17-.18,.29-.2l9.07-1.88-7.67-3.2-2.35,.49c-1.91,.4-3.32,1.81-3.85,3.55l4.54,1.9-.08-.3Z"/><polygon class="cls-132" points="217.86 156.23 210.15 153.01 199.56 155.21 207.26 158.42 217.86 156.23"/><polygon class="cls-130" points="163.58 236.98 171.64 239.82 182.58 237.11 174.51 234.26 163.58 236.98"/><polygon class="cls-133" points="196.36 228.83 204.46 231.69 215.4 228.98 207.29 226.12 196.36 228.83"/></g><path class="cls-48" d="M158.69,238.97l-16.77-65.15c-.73-2.84,1.06-5.72,3.93-6.32l87.12-18.11c-.16-.34-.29-.69-.47-1.03l-88.25,18.34c-2.87,.6-4.66,3.47-3.93,6.32l16.77,65.15c.47,1.81,1.85,3.13,3.53,3.63-.92-.68-1.63-1.65-1.94-2.84Z"/><path class="cls-33" d="M211.06,152.82c9.61,9.43,20.71,30.24,12.11,74.23l5.87-1.45,7.18-38.57s4.63-22.36-3.71-38.66l-21.45,4.46Z"/><path class="cls-42" d="M229.32,224.05l-1,.28-65.72,16.28c-2.03,.5-4.07-.28-5.29-1.83,.94,2.36,3.47,3.73,5.99,3.1l65.72-16.28,.18-.95,.11-.6Z"/><path class="cls-49" d="M246.6,188.67l-.13,.67,64.31-2.7c.9-5.62,1.46-11.4,1.38-16.93-.05-3.73-.67-6.96-1.6-9.84l-66.12-8.59c6.2,17.75,2.16,37.39,2.16,37.39Z"/><path class="cls-31" d="M293.11,151.95c-4.46-1.07-20.9-3.59-20.9-3.59l-.48,12.37,3.42,4.03-9.43,29c-1.46-.02-4.34,.26-6.38,2.56-2.82,3.18-1.71,8.54-1.71,8.54l7.43,4.97,.44-1.1-2.41,3.82s8.32-2,10.31-6.06c1.99-4.05,1.04-9.6-3.88-11.83l9.52-25.21s8.74,1.29,10.57,1.37c1.83,.08,3.81-.39,4.21-1.87,.4-1.47,3.34-13.64,3.34-13.64,0,0,.41-2.3-4.04-3.37Z"/><path class="cls-114" d="M265.64,196.24l-4.42-1.31c-.48-.16-.97-.26-1.5-.27-3.68-.07-7.14,3.6-7.72,8.19-.5,3.93,1.28,7.24,4.1,8.18v.02l.19,.06h.03l4,1.2,.67-2.01c2.23-1.38,3.97-4.05,4.37-7.18,.21-1.64,0-3.17-.49-4.48l.8-2.39Z"/><ellipse class="cls-143" cx="263.09" cy="204.32" rx="8.47" ry="6.58" transform="translate(-8.54 397.14) rotate(-73.2)"/><path class="cls-53" d="M262.73,212.47c-3.44-.07-5.79-3.61-5.25-7.9,.54-4.3,3.77-7.72,7.22-7.66,2.13,.04,3.84,1.42,4.71,3.48-.82-2.57-2.76-4.35-5.26-4.4-3.68-.07-7.14,3.6-7.72,8.19-.58,4.6,1.94,8.38,5.62,8.46,.61,.01,1.2-.11,1.79-.29-.36,.07-.73,.12-1.1,.11Z"/><path class="cls-142" d="M272.04,144.69l18.74,3.69c1.64,.32,2.69,1.93,2.33,3.57l-1.99,13.63c-.34,1.56-2.93,2.89-4.5,2.61l-18.9-3.32,4.33-20.18Z"/><path class="cls-144" d="M273.58,143.54l18.74,3.69c1.64,.32,2.69,1.93,2.33,3.57l-3.07,13.94c-.34,1.56-1.85,2.57-3.43,2.29l-18.9-3.32,4.33-20.18Z"/><path class="cls-145" d="M272.46,142.24c-1.81-.42-2.17,.41-2.17,.41l-10.16,52.04c.27,.33,.92,.63,1.61,.87,.4,.13,1.15,.3,2.21,.19l10.19-52.18s.13-.91-1.68-1.33Z"/></g><g class="cls-122"><ellipse class="cls-29" cx="251.62" cy="266.13" rx="55.32" ry="20.6"/><ellipse class="cls-28" cx="248.25" cy="266.75" rx="55.32" ry="20.6"/></g></g><g id="Capa_14_copia_2"><g class="cls-118"><path d="M321.71,221.72s3.48-1.3,11.29,.65,29.16,25.47,23.78,43.82-51.8,11.13-73.09,13.3c-30.93,3.16-30.57-15.2-26.44-18.68,49.3-6.52,64.45-39.09,64.45-39.09Z"/><path d="M321.71,221.72s.59-.22,1.83-.34c.17-.02-1.57,.76-1.39,3.17s2.96,4.26,2.17,7.17-7.11,1.57-9.56,3.45,0,8.5-10.21,9.58c-3.5,2.2,.87,11.51-3.26,14.33s-13.9,3.26-21.07,6.52-22.15,8.19-23.29,6.14c-3.91-4.72-1.68-10.43-1.14-10.75,49.3-6.52,65.92-39.26,65.92-39.26Z"/><path d="M356.24,267.33c3.31-13.52-.43-11.4-6.3-18.57-2.46-3.01-.02-8.47-1.95-12.38-2.67-5.41-10.43-11.4-14.99-14.01,3.81,.95,10.83,7.02,16.4,15.12,5.87,8.52,10.13,19.29,7.38,28.7-5.38,18.35-51.8,11.13-73.09,13.3-30.93,3.16-30.73-15.04-26.61-18.52,5.38-.71,.81,14.61,10.75,14.61,12.6,.43,13.3-2.9,24.76-2.17,14.71,.93,19.98,7.6,41.7,3.91,11.95-3.26,1.85-6.84,4.13-7.82s14.23,4.45,17.81-2.17Z"/><path d="M256.55,272.11c20.42,.87,65.59-33.12,68.96-51.45-2.2,.09-3.8,1.06-3.8,1.06,0,0-57.01,37.79-63.75,36.71s-3.15,13.03-1.41,13.68Z"/><path d="M321.71,221.72s.59-.22,1.83-.34c.17-.02-1.57,.76-1.39,3.17s2.96,4.26,2.17,7.17-7.11,1.57-9.56,3.45,1.85,7.19-10.21,9.58c-5.64,1.12-2.55,5.41-7.93,8.25-6.27,3.32-17.59,8.9-26.39,9.99-9.12,1.52-7.38,5.54-14.33,5.54-2.82-6.79-.54-9.67,0-9.99,49.3-6.52,65.81-36.81,65.81-36.81Z"/><path class="cls-19" d="M255.35,266.68s3.74,4.09,8.42,2.12c2.07-.87,4.56-3.6,7-4.4,3.8-1.25,8.37-1.02,11.57-2.28s5.41-3.74,6.52-4.24c4.4-1.95,9.12,2.28,11.57,.16s-.98-6.03,.98-10.59,6.03-1.95,9.61-5.05,1.3-5.86,3.75-8.31,6.35,.49,7.82-2.44-3.58-7.49,.16-9.94,12.6,2.01,12.6,2.01c0,0-7.22-.05-8.85,1.74s2.44,10.1-.81,10.91-5.7-.81-8.14,2.61,1.47,6.19-3.91,9.45-6.03-1.95-7.98,3.58c-.49,1.47,2.77,8.47-2.61,10.91s-9.61-.16-12.38,.98-.65,5.54-6.68,5.7-6.52-.33-9.77,.98-6.79,6.41-11.35,6.19c-6.62-.33-7.49-10.1-7.49-10.1Z"/><path d="M256.22,270.15c1.52-1.9,4.02,1.7,8.69-.27,2.07-.87,4.56-3.6,7-4.4,3.8-1.25,8.37-1.02,11.57-2.28s5.41-3.74,6.52-4.24c4.4-1.95,9.12,2.28,11.57,.16s-.98-6.03,.98-10.59,6.03-1.95,9.61-5.05,1.3-5.86,3.75-8.31,6.35,.49,7.82-2.44c1.47-2.93-3.72-7.71,.16-9.94,5.48-3.15,13.03,2.06,13.03,2.06,0,0-7.66-.11-9.29,1.68s2.44,10.1-.81,10.91-5.7-.81-8.14,2.61c-2.44,3.42,1.47,6.19-3.91,9.45s-6.08-2.06-8.04,3.48c-.49,1.47,2.55,8.74-2.82,11.19s-9.34-.33-12.11,.81,0,5.65-6.03,5.81-7.17-.43-10.43,.87-6.73,5.52-11.29,5.65c-5.7,.16-7.82-7.17-7.82-7.17Z"/><path d="M256.28,257.38c22.12,11.8,75.79-29.69,62.12-39.81-1.14-1.11-2.17-2.09-3.36-2.49-51.05-15.73-73.85,34.98-58.76,42.3Z"/><path d="M256.44,256.36c21.91,8.29,77.78-35.86,56.84-42.18-53.85-12.28-69.7,38.41-56.84,42.18Z"/><path d="M257.65,255.11c11.32,6.73,59.43-23.85,57.26-35.15-2.74-8.37-23.77-7.41-37.34-1.16-18.77,8.66-29.12,29.29-19.92,36.31Z"/><path d="M312.91,220.35l.62,.23h0s.62,6.49-.81,9.27-6.66,5.86-13.77,5.66c-7.11-.2-10.99-4.79-11.9-6.14s-.3-6.43-.3-6.43l26.78-2.36"/><path d="M313.13,218.65c1.86,5.89-3.05,11.46-10.45,12.87-7.4,1.41-15.19-4.11-15.93-7.76s2.93-10.05,10.33-11.46c7.4-1.41,14.46,1.59,16.06,6.36Z"/><path class="cls-105" d="M309.34,220.25c.56,3.04-2.47,6.42-7.25,7.33-4.78,.91-10.21-2.95-10.58-5.45s2.41-6.26,7.19-7.17c4.78-.91,10.08,2.25,10.64,5.29Z"/><path d="M286.56,223.4h.66s2.34,5.96,1.71,9.11-4.77,7.91-11.59,10.2-11.75-.72-12.98-1.68-2.01-6.02-2.01-6.02l24.86-11.61"/><path d="M286.32,221.7c3.35,4.95,.17,11.97-6.5,15.9s-15.57,1.4-17.25-1.82,.09-10.59,6.76-14.52,14.19-3.54,16.99,.44Z"/><path class="cls-105" d="M283.14,224.55c1.35,2.7-.63,6.98-4.94,9.51-4.31,2.54-10.51,.77-11.53-1.49s.61-6.8,4.92-9.34c4.31-2.54,10.2-1.39,11.55,1.31Z"/><path d="M277.21,238.72s1.29,5.23,2.6,6.18,5.32,3.01,12.67,.63c7.36-2.38,10.64-10.11,11.05-11.54s-1.83-8.39-1.83-8.39l-24.49,13.12Z"/><path d="M301.55,225.09c1.66,3.22-2.16,9.67-8.83,13.6-6.67,3.93-13.22,3.15-15.34,.49-2.12-2.66,1.61-9.97,8.28-13.9,6.67-3.93,14.23-3.41,15.89-.19Z"/><path class="cls-105" d="M280.24,237.54c-5.33-3.78,11.45-16.46,17.11-12.73s-10.14,17.68-17.11,12.73Z"/><path d="M281.21,242.02l.63,.1h0s1.09,6.36,.56,7.57-5.03,6.36-11.9,7.4c-6.86,1.04-11.67-.61-12.74-1.65s-1.35-5.08-1.35-5.08l25.42-8.24"/><path d="M281.84,242.12c1.12,3.13-2.63,7.8-9.05,10.33s-15.58,.52-16.37-2.09,3.85-8.03,10.27-10.56c6.42-2.53,14.03-.81,15.15,2.32Z"/><path class="cls-105" d="M278.1,243.37c.79,2.21-1.85,5.5-6.38,7.29s-10.99,.36-11.55-1.47,2.71-5.66,7.24-7.45,9.9-.57,10.69,1.64Z"/><path d="M256.28,257.38c22.12,11.8,75.79-29.69,62.12-39.81-1.14-1.11-2.17-2.09-3.36-2.49,6.8,22.58-55.46,48.32-59.52,39.01-.67-1.54-1.59,2.15,.75,3.29Z"/><path d="M256.44,256.36c21.91,8.29,77.78-35.86,56.84-42.18-1.89-.43-3.73-.78-5.52-1.06,25.64,10.88-32.12,44.8-48.16,42.47-3.45-.7-5.63-3.2-5.38-6.99-1.3,1.17-1.88,2.35-1.52,3.56,.64,2.15,1.89,3.66,3.74,4.2Z"/><path d="M276.75,266.57c4.24,0,9.77,1.19,11.73-3.04s6.95-2.17,5.65,4.13-13.25,6.84-17.7,5.32-3.91-6.41,.33-6.41Z"/><path d="M276.75,266.57c4.24,0,9.77,1.19,11.73-3.04s6.95-2.17,5.65,4.13-13.25,6.84-17.7,5.32-3.91-6.41,.33-6.41Z"/><path d="M308.24,249.3c4.89-1.09,8.78-2.62,8.58-7.28s4.79-5.22,6.52,.98-6.19,12.81-11.98,12.4c-4.65,.69-6.88-4.16-3.12-6.1Z"/><path d="M308.24,249.3c4.89-1.09,8.78-2.62,8.58-7.28s4.79-5.22,6.52,.98-6.19,12.81-11.98,12.4c-4.65,.69-6.88-4.16-3.12-6.1Z"/><path d="M327.79,222.37c-.65-3.69,4.79-5.22,6.52,.98,.86,3.1-.43,6.73-4.78,5.97s-1.09-3.26-1.74-6.95Z"/><path d="M327.79,222.37c-.65-3.69,4.79-5.22,6.52,.98,.86,3.1-.43,6.73-4.78,5.97s-1.09-3.26-1.74-6.95Z"/></g><g><path class="cls-94" d="M321.71,220.72s3.48-1.3,11.29,.65,29.16,25.47,23.78,43.82-51.8,11.13-73.09,13.3c-30.93,3.16-30.57-15.2-26.44-18.68,49.3-6.52,64.45-39.09,64.45-39.09Z"/><path class="cls-92" d="M321.71,220.72s.59-.22,1.83-.34c.17-.02-1.57,.76-1.39,3.17s2.96,4.26,2.17,7.17-7.11,1.57-9.56,3.45,0,8.5-10.21,9.58c-3.5,2.2,.87,11.51-3.26,14.33s-13.9,3.26-21.07,6.52-22.15,8.19-23.29,6.14c-3.91-4.72-1.68-10.43-1.14-10.75,49.3-6.52,65.92-39.26,65.92-39.26Z"/><path class="cls-79" d="M356.24,266.33c3.31-13.52-.43-11.4-6.3-18.57-2.46-3.01-.02-8.47-1.95-12.38-2.67-5.41-10.43-11.4-14.99-14.01,3.81,.95,10.83,7.02,16.4,15.12,5.87,8.52,10.13,19.29,7.38,28.7-5.38,18.35-51.8,11.13-73.09,13.3-30.93,3.16-30.73-15.04-26.61-18.52,5.38-.71,.81,14.61,10.75,14.61,12.6,.43,13.3-2.9,24.76-2.17,14.71,.93,19.98,7.6,41.7,3.91,11.95-3.26,1.85-6.84,4.13-7.82s14.23,4.45,17.81-2.17Z"/><path class="cls-93" d="M256.55,271.11c20.42,.87,65.59-33.12,68.96-51.45-2.2,.09-3.8,1.06-3.8,1.06,0,0-57.01,37.79-63.75,36.71s-3.15,13.03-1.41,13.68Z"/><path class="cls-124" d="M321.71,220.72s.59-.22,1.83-.34c.17-.02-1.57,.76-1.39,3.17s2.96,4.26,2.17,7.17-7.11,1.57-9.56,3.45,1.85,7.19-10.21,9.58c-5.64,1.12-2.55,5.41-7.93,8.25-6.27,3.32-17.59,8.9-26.39,9.99-9.12,1.52-7.38,5.54-14.33,5.54-2.82-6.79-.54-9.67,0-9.99,49.3-6.52,65.81-36.81,65.81-36.81Z"/><path class="cls-2" d="M255.35,265.68s3.74,4.09,8.42,2.12c2.07-.87,4.56-3.6,7-4.4,3.8-1.25,8.37-1.02,11.57-2.28s5.41-3.74,6.52-4.24c4.4-1.95,9.12,2.28,11.57,.16s-.98-6.03,.98-10.59,6.03-1.95,9.61-5.05,1.3-5.86,3.75-8.31,6.35,.49,7.82-2.44-3.58-7.49,.16-9.94,12.6,2.01,12.6,2.01c0,0-7.22-.05-8.85,1.74s2.44,10.1-.81,10.91-5.7-.81-8.14,2.61,1.47,6.19-3.91,9.45-6.03-1.95-7.98,3.58c-.49,1.47,2.77,8.47-2.61,10.91s-9.61-.16-12.38,.98-.65,5.54-6.68,5.7-6.52-.33-9.77,.98-6.79,6.41-11.35,6.19c-6.62-.33-7.49-10.1-7.49-10.1Z"/><path class="cls-123" d="M256.22,269.15c1.52-1.9,4.02,1.7,8.69-.27,2.07-.87,4.56-3.6,7-4.4,3.8-1.25,8.37-1.02,11.57-2.28s5.41-3.74,6.52-4.24c4.4-1.95,9.12,2.28,11.57,.16s-.98-6.03,.98-10.59,6.03-1.95,9.61-5.05,1.3-5.86,3.75-8.31,6.35,.49,7.82-2.44c1.47-2.93-3.72-7.71,.16-9.94,5.48-3.15,13.03,2.06,13.03,2.06,0,0-7.66-.11-9.29,1.68s2.44,10.1-.81,10.91-5.7-.81-8.14,2.61c-2.44,3.42,1.47,6.19-3.91,9.45s-6.08-2.06-8.04,3.48c-.49,1.47,2.55,8.74-2.82,11.19s-9.34-.33-12.11,.81,0,5.65-6.03,5.81-7.17-.43-10.43,.87-6.73,5.52-11.29,5.65c-5.7,.16-7.82-7.17-7.82-7.17Z"/><path class="cls-73" d="M256.28,256.38c22.12,11.8,75.79-29.69,62.12-39.81-1.14-1.11-2.17-2.09-3.36-2.49-51.05-15.73-73.85,34.98-58.76,42.3Z"/><path class="cls-58" d="M256.44,255.36c21.91,8.29,77.78-35.86,56.84-42.18-53.85-12.28-69.7,38.41-56.84,42.18Z"/><path class="cls-63" d="M257.65,254.11c11.32,6.73,59.43-23.85,57.26-35.15-2.74-8.37-23.77-7.41-37.34-1.16-18.77,8.66-29.12,29.29-19.92,36.31Z"/><path class="cls-98" d="M312.91,219.35l.62,.23h0s.62,6.49-.81,9.27-6.66,5.86-13.77,5.66c-7.11-.2-10.99-4.79-11.9-6.14s-.3-6.43-.3-6.43l26.78-2.36"/><path class="cls-86" d="M313.13,217.65c1.86,5.89-3.05,11.46-10.45,12.87-7.4,1.41-15.19-4.11-15.93-7.76s2.93-10.05,10.33-11.46c7.4-1.41,14.46,1.59,16.06,6.36Z"/><path class="cls-106" d="M309.34,219.25c.56,3.04-2.47,6.42-7.25,7.33-4.78,.91-10.21-2.95-10.58-5.45s2.41-6.26,7.19-7.17c4.78-.91,10.08,2.25,10.64,5.29Z"/><path class="cls-126" d="M286.56,222.4h.66s2.34,5.96,1.71,9.11-4.77,7.91-11.59,10.2-11.75-.72-12.98-1.68-2.01-6.02-2.01-6.02l24.86-11.61"/><path class="cls-127" d="M286.32,220.7c3.35,4.95,.17,11.97-6.5,15.9s-15.57,1.4-17.25-1.82,.09-10.59,6.76-14.52,14.19-3.54,16.99,.44Z"/><path class="cls-104" d="M283.14,223.55c1.35,2.7-.63,6.98-4.94,9.51-4.31,2.54-10.51,.77-11.53-1.49s.61-6.8,4.92-9.34c4.31-2.54,10.2-1.39,11.55,1.31Z"/><path class="cls-88" d="M277.21,237.72s1.29,5.23,2.6,6.18,5.32,3.01,12.67,.63c7.36-2.38,10.64-10.11,11.05-11.54s-1.83-8.39-1.83-8.39l-24.49,13.12Z"/><path class="cls-87" d="M301.55,224.09c1.66,3.22-2.16,9.67-8.83,13.6-6.67,3.93-13.22,3.15-15.34,.49-2.12-2.66,1.61-9.97,8.28-13.9,6.67-3.93,14.23-3.41,15.89-.19Z"/><path class="cls-102" d="M280.24,236.54c-5.33-3.78,11.45-16.46,17.11-12.73s-10.14,17.68-17.11,12.73Z"/><path class="cls-125" d="M281.21,241.02l.63,.1h0s1.09,6.36,.56,7.57-5.03,6.36-11.9,7.4c-6.86,1.04-11.67-.61-12.74-1.65s-1.35-5.08-1.35-5.08l25.42-8.24"/><path class="cls-99" d="M281.84,241.12c1.12,3.13-2.63,7.8-9.05,10.33s-15.58,.52-16.37-2.09,3.85-8.03,10.27-10.56c6.42-2.53,14.03-.81,15.15,2.32Z"/><path class="cls-103" d="M278.1,242.37c.79,2.21-1.85,5.5-6.38,7.29s-10.99,.36-11.55-1.47,2.71-5.66,7.24-7.45,9.9-.57,10.69,1.64Z"/><path class="cls-73" d="M256.28,256.38c22.12,11.8,75.79-29.69,62.12-39.81-1.14-1.11-2.17-2.09-3.36-2.49,6.8,22.58-55.46,48.32-59.52,39.01-.67-1.54-1.59,2.15,.75,3.29Z"/><path class="cls-58" d="M256.44,255.36c21.91,8.29,77.78-35.86,56.84-42.18-1.89-.43-3.73-.78-5.52-1.06,25.64,10.88-32.12,44.8-48.16,42.47-3.45-.7-5.63-3.2-5.38-6.99-1.3,1.17-1.88,2.35-1.52,3.56,.64,2.15,1.89,3.66,3.74,4.2Z"/><g><path class="cls-97" d="M276.75,265.57c4.24,0,9.77,1.19,11.73-3.04s6.95-2.17,5.65,4.13-13.25,6.84-17.7,5.32-3.91-6.41,.33-6.41Z"/><g class="cls-43"><g class="cls-30"><path class="cls-80" d="M276.75,265.57c4.24,0,9.77,1.19,11.73-3.04s6.95-2.17,5.65,4.13-13.25,6.84-17.7,5.32-3.91-6.41,.33-6.41Z"/></g></g></g><g><path class="cls-96" d="M308.24,248.3c4.89-1.09,8.78-2.62,8.58-7.28s4.79-5.22,6.52,.98-6.19,12.81-11.98,12.4c-4.65,.69-6.88-4.16-3.12-6.1Z"/><g class="cls-149"><g class="cls-30"><path class="cls-80" d="M308.24,248.3c4.89-1.09,8.78-2.62,8.58-7.28s4.79-5.22,6.52,.98-6.19,12.81-11.98,12.4c-4.65,.69-6.88-4.16-3.12-6.1Z"/></g></g></g><g><path class="cls-95" d="M327.79,221.37c-.65-3.69,4.79-5.22,6.52,.98,.86,3.1-.43,6.73-4.78,5.97s-1.09-3.26-1.74-6.95Z"/><g class="cls-148"><g class="cls-30"><path class="cls-80" d="M327.79,221.37c-.65-3.69,4.79-5.22,6.52,.98,.86,3.1-.43,6.73-4.78,5.97s-1.09-3.26-1.74-6.95Z"/></g></g></g></g></g><g><ellipse class="cls-41" cx="161.78" cy="69.1" rx="50.57" ry="54.33" transform="translate(-8.94 26.65) rotate(-9.17)"/><g><ellipse class="cls-60" cx="157.36" cy="81.15" rx="31.04" ry="31.57" transform="translate(-10.92 26.1) rotate(-9.17)"/><ellipse class="cls-3" cx="157.36" cy="81.15" rx="31.04" ry="31.57" transform="translate(-10.92 26.1) rotate(-9.17)"/><ellipse class="cls-21" cx="157.36" cy="81.15" rx="31.04" ry="31.57" transform="translate(-10.92 26.1) rotate(-9.17)"/></g><ellipse class="cls-64" cx="187.43" cy="40.1" rx="3.6" ry="8.2" transform="translate(73.56 194.27) rotate(-65.63)"/><ellipse class="cls-64" cx="174.66" cy="41.82" rx="2.66" ry="5.84" transform="translate(64.49 183.66) rotate(-65.63)"/><path class="cls-83" d="M211.7,61.05c4.78,29.62-13.7,57.25-41.27,61.69-27.57,4.45-53.8-15.96-58.58-45.58,26.32,58.85,91.48,43.87,99.85-16.11Z"/><text class="cls-37" transform="translate(137.35 87.31) rotate(22.01) scale(1.13 1)"><tspan x="0" y="0">N</tspan></text></g><g><ellipse class="cls-77" cx="108.7" cy="168.53" rx="31.07" ry="33.38" transform="translate(-91.64 159.56) rotate(-54.61)"/><g><ellipse class="cls-60" cx="110.81" cy="173.23" rx="20.32" ry="21.83" transform="translate(-94.59 163.25) rotate(-54.61)"/><ellipse class="cls-11" cx="110.81" cy="173.23" rx="20.32" ry="21.83" transform="translate(-94.59 163.25) rotate(-54.61)"/><ellipse class="cls-22" cx="110.81" cy="173.23" rx="20.32" ry="21.83" transform="translate(-94.59 163.25) rotate(-54.61)"/></g><ellipse class="cls-74" cx="104.39" cy="141.61" rx="5.04" ry="2.21" transform="translate(-43.94 47.01) rotate(-21.08)"/><ellipse class="cls-74" cx="99.64" cy="147.94" rx="3.59" ry="1.64" transform="translate(-46.53 45.73) rotate(-21.08)"/><path class="cls-82" d="M126.7,143.2c15.03,10.68,19.16,30.67,9.22,44.66-9.94,13.99-30.18,16.68-45.21,6,56.59,13.5,47.79-40.58,35.99-50.66Z"/><text class="cls-40" transform="translate(111.58 185.67) rotate(-31.15) scale(1.11 1)"><tspan x="0" y="0">I</tspan></text></g><g><ellipse class="cls-71" cx="373.49" cy="260.63" rx="20.61" ry="19.18" transform="translate(54.68 585.88) rotate(-80.48)"/><g><ellipse class="cls-60" cx="371.44" cy="263.07" rx="13.48" ry="12.55" transform="translate(50.58 585.9) rotate(-80.48)"/><ellipse class="cls-5" cx="371.44" cy="263.07" rx="13.48" ry="12.55" transform="translate(50.58 585.9) rotate(-80.48)"/><ellipse class="cls-6" cx="371.44" cy="263.07" rx="13.48" ry="12.55" transform="translate(50.58 585.9) rotate(-80.48)"/></g><ellipse class="cls-78" cx="387.28" cy="250.98" rx="1.37" ry="3.11" transform="translate(-60.51 362.62) rotate(-46.94)"/><ellipse class="cls-78" cx="382.48" cy="250.05" rx="1.01" ry="2.21" transform="translate(-61.35 358.81) rotate(-46.94)"/><path class="cls-101" d="M392.41,263.8c-1.88,11.23-11.88,18.91-22.33,17.16-7.08-1.19-12.55-6.4-14.76-13.13,12.54,8.71,29.53,7.73,36.93-12.19,.55,2.59,.63,5.35,.16,8.16Z"/><text class="cls-39" transform="translate(362.4 264.02) rotate(32.98) scale(1.11 1)"><tspan x="0" y="0">G</tspan></text></g></g></g></svg>