<?xml version="1.0" encoding="utf-8"?>
<!-- Generator: Adobe Illustrator 26.3.1, SVG Export Plug-In . SVG Version: 6.00 Build 0)  -->
<svg version="1.1" id="Capa_1" xmlns="http://www.w3.org/2000/svg" xmlns:xlink="http://www.w3.org/1999/xlink" x="0px" y="0px"
	 viewBox="0 0 16 16" style="enable-background:new 0 0 16 16;" xml:space="preserve">
<style type="text/css">
	.st0{display:none;}
</style>
<path class="st0" d="M0,4.5C0,3.7,0.7,3,1.5,3h13C15.3,3,16,3.7,16,4.5V6c0,0.3-0.2,0.5-0.5,0.5C14.7,6.5,14,7.2,14,8
	s0.7,1.5,1.5,1.5c0.3,0,0.5,0.2,0.5,0.5v1.5c0,0.8-0.7,1.5-1.5,1.5h-13C0.7,13,0,12.3,0,11.5V10c0-0.3,0.2-0.5,0.5-0.5
	C1.3,9.5,2,8.8,2,8S1.3,6.5,0.5,6.5C0.2,6.5,0,6.3,0,6V4.5z M4,3.5v1h1v-1H4z M5,6.5v-1H4v1H5z M12,6.5v-1h-1v1H12z M11,4.5h1v-1h-1
	V4.5z M5,7.5H4v1h1V7.5z M12,8.5v-1h-1v1H12z M5,9.5H4v1h1V9.5z M12,10.5v-1h-1v1H12z M4,11.5v1h1v-1H4z M11,12.5h1v-1h-1V12.5z"/>
<path d="M15.5,6.5C15.8,6.5,16,6.3,16,6V4.5C16,3.7,15.3,3,14.5,3h-13C0.7,3,0,3.7,0,4.5V6c0,0.3,0.2,0.5,0.5,0.5C1.3,6.5,2,7.2,2,8
	S1.3,9.5,0.5,9.5C0.2,9.5,0,9.7,0,10v1.5C0,12.3,0.7,13,1.5,13h13c0.8,0,1.5-0.7,1.5-1.5V10c0-0.3-0.2-0.5-0.5-0.5
	C14.7,9.5,14,8.8,14,8S14.7,6.5,15.5,6.5z M4,12.5H3v-1h1V12.5z M4,10.5H3v-1h1V10.5z M4,8.5H3v-1h1V8.5z M4,6.5H3v-1h1V6.5z M4,4.5
	H3v-1h1V4.5z M8,10.3c-5.1-3.4-1.5-6,0-4.5C9.5,4.3,13.1,6.9,8,10.3z M13,12.5h-1v-1h1V12.5z M13,10.5h-1v-1h1V10.5z M13,8.5h-1v-1
	h1V8.5z M13,6.5h-1v-1h1V6.5z M13,4.5h-1v-1h1V4.5z"/>
</svg>
